SplineFontDB: 3.0
FontName: Bristol-Semibold
FullName: Bristol Semibold
FamilyName: Bristol
Weight: Semibold
Copyright: Copyright (c) 2011 by Pablo Impallari. www.impallari.com Igino Marini. www.ikern.com. All rights reserved.
Version: 1.005
DefaultBaseFilename: Bristol-600
ItalicAngle: 0
UnderlinePosition: -100
UnderlineWidth: 50
Ascent: 800
Descent: 200
InvalidEm: 0
sfntRevision: 0x00010148
LayerCount: 2
Layer: 0 1 "Back" 1
Layer: 1 1 "Fore" 0
XUID: [1021 805 -1179658985 2144269]
FSType: 0
OS2Version: 3
OS2_WeightWidthSlopeOnly: 0
OS2_UseTypoMetrics: 1
CreationTime: 1321858809
ModificationTime: 1431274732
PfmFamily: 17
TTFWeight: 600
TTFWidth: 5
LineGap: 0
VLineGap: 0
Panose: 2 11 8 3 5 2 2 2 0 4
OS2TypoAscent: 965
OS2TypoAOffset: 0
OS2TypoDescent: -250
OS2TypoDOffset: 0
OS2TypoLinegap: 0
OS2WinAscent: 965
OS2WinAOffset: 0
OS2WinDescent: 250
OS2WinDOffset: 0
HheadAscent: 965
HheadAOffset: 0
HheadDescent: -250
HheadDOffset: 0
OS2SubXSize: 700
OS2SubYSize: 650
OS2SubXOff: 0
OS2SubYOff: 140
OS2SupXSize: 700
OS2SupYSize: 650
OS2SupXOff: 0
OS2SupYOff: 477
OS2StrikeYSize: 50
OS2StrikeYPos: 250
OS2CapHeight: 700
OS2XHeight: 497
OS2FamilyClass: 2050
OS2Vendor: '    '
OS2CodePages: 00000001.00000000
OS2UnicodeRanges: 8000002f.0000000b.00000000.00000000
Lookup: 1 0 0 "'aalt' Access All Alternates in Latin lookup 0" { "'aalt' Access All Alternates in Latin lookup 0 subtable"  } ['aalt' ('latn' <'dflt' > ) ]
Lookup: 1 0 0 "'smcp' Lowercase to Small Capitals in Latin lookup 1" { "'smcp' Lowercase to Small Capitals in Latin lookup 1 subtable"  } ['smcp' ('latn' <'dflt' > ) ]
Lookup: 258 0 0 "'kern' Horizontal Kerning in Latin lookup 0" { "'kern' Horizontal Kerning in Latin lookup 0 per glyph data 0"  "'kern' Horizontal Kerning in Latin lookup 0 kerning class 1"  } ['kern' ('latn' <'dflt' > ) ]
MarkAttachClasses: 1
DEI: 91125
KernClass2: 89+ 76 "'kern' Horizontal Kerning in Latin lookup 0 kerning class 1"
 8 quotedbl
 9 ampersand
 9 parenleft
 5 comma
 20 hyphen endash emdash

StartChar: .notdef
Encoding: 65536 -1 0
Width: 250
Flags: W
LayerCount: 2
Back
Fore
SplineSet
174 243 m 1,0,-1
 60 243 l 1,1,-1
 60 367 l 1,2,-1
 174 367 l 1,3,-1
 174 243 l 1,0,-1
EndSplineSet
EndChar

StartChar: exclam
Encoding: 33 33 2
Width: 248
Flags: W
LayerCount: 2
Back
Fore
SplineSet
186 750 m 1,0,-1
 163 200 l 1,1,-1
 85 200 l 1,2,-1
 62 750 l 1,3,-1
 186 750 l 1,0,-1
180 0 m 1,4,-1
 68 0 l 1,5,-1
 68 112 l 1,6,-1
 180 112 l 1,7,-1
 180 0 l 1,4,-1
EndSplineSet
EndChar

StartChar: quotedbl
Encoding: 34 34 3
Width: 399
Flags: W
LayerCount: 2
Back
Fore
SplineSet
361 750 m 1,0,-1
 341 450 l 1,1,-1
 267 450 l 1,2,-1
 247 750 l 1,3,-1
 361 750 l 1,0,-1
153 750 m 1,4,-1
 133 450 l 1,5,-1
 58 450 l 1,6,-1
 38 750 l 1,7,-1
 153 750 l 1,4,-1
EndSplineSet
EndChar

StartChar: numbersign
Encoding: 35 35 4
Width: 704
Flags: W
LayerCount: 2
Back
Fore
SplineSet
642 417 m 1,0,-1
 527 417 l 1,1,-1
 485 306 l 1,2,-1
 611 306 l 1,3,-1
 568 213 l 1,4,-1
 449 213 l 1,5,-1
 364 -11 l 1,6,-1
 274 -11 l 1,7,-1
 357 213 l 1,8,-1
 240 213 l 1,9,-1
 154 -11 l 1,10,-1
 64 -11 l 1,11,-1
 149 213 l 1,12,-1
 30 213 l 1,13,-1
 71 306 l 1,14,-1
 184 306 l 1,15,-1
 226 417 l 1,16,-1
 104 417 l 1,17,-1
 135 510 l 1,18,-1
 262 510 l 1,19,-1
 336 700 l 1,20,-1
 426 700 l 1,21,-1
 353 510 l 1,22,-1
 471 510 l 1,23,-1
 544 700 l 1,24,-1
 635 700 l 1,25,-1
 563 510 l 1,26,-1
 674 510 l 1,27,-1
 642 417 l 1,0,-1
318 417 m 1,28,-1
 274 306 l 1,29,-1
 392 306 l 1,30,-1
 436 417 l 1,31,-1
 318 417 l 1,28,-1
EndSplineSet
EndChar

StartChar: dollar
Encoding: 36 36 5
Width: 520
Flags: W
LayerCount: 2
Back
Fore
SplineSet
293 81 m 1,0,-1
 309 -32 l 1,1,-1
 208 -32 l 1,2,-1
 224 80 l 1,3,4
 106 86 106 86 49 119 c 1,5,-1
 64 240 l 1,6,7
 132 179 132 179 251 179 c 0,8,9
 356 179 356 179 356 235 c 0,10,11
 356 262 356 262 332.5 278.5 c 128,-1,12
 309 295 309 295 274 307.5 c 128,-1,13
 239 320 239 320 198 332 c 128,-1,14
 157 344 157 344 122 361.5 c 128,-1,15
 87 379 87 379 63.5 405.5 c 128,-1,16
 40 432 40 432 40 474 c 0,17,18
 40 503 40 503 50.5 529.5 c 128,-1,19
 61 556 61 556 83.5 577.5 c 128,-1,20
 106 599 106 599 141 613 c 128,-1,21
 176 627 176 627 224 632 c 1,22,-1
 208 748 l 1,23,-1
 309 748 l 1,24,-1
 293 632 l 1,25,26
 397 626 397 626 453 594 c 1,27,-1
 443 486 l 1,28,29
 341 537 341 537 272 537 c 0,30,31
 157 537 157 537 157 486 c 0,32,33
 157 461 157 461 181.5 446.5 c 128,-1,34
 206 432 206 432 242 421 c 128,-1,35
 278 410 278 410 321 398.5 c 128,-1,36
 364 387 364 387 400 367.5 c 128,-1,37
 436 348 436 348 460.5 317 c 128,-1,38
 485 286 485 286 485 236 c 0,39,40
 485 213 485 213 477 187.5 c 128,-1,41
 469 162 469 162 448 140.5 c 128,-1,42
 427 119 427 119 389.5 102.5 c 128,-1,43
 352 86 352 86 293 81 c 1,0,-1
EndSplineSet
EndChar

StartChar: percent
Encoding: 37 37 6
Width: 840
Flags: W
LayerCount: 2
Back
Fore
SplineSet
246 -12 m 1,0,-1
 151 -12 l 1,1,-1
 572 700 l 1,2,-1
 667 700 l 1,3,-1
 246 -12 l 1,0,-1
182 334 m 0,4,5
 116 334 116 334 74.5 383 c 128,-1,6
 33 432 33 432 33 516 c 0,7,8
 33 560 33 560 45 595 c 128,-1,9
 57 630 57 630 78 654 c 128,-1,10
 99 678 99 678 127 691 c 128,-1,11
 155 704 155 704 187 704 c 256,12,13
 219 704 219 704 246 691.5 c 128,-1,14
 273 679 273 679 293 656 c 128,-1,15
 313 633 313 633 324.5 599.5 c 128,-1,16
 336 566 336 566 336 524 c 0,17,18
 336 480 336 480 324.5 445 c 128,-1,19
 313 410 313 410 293 385 c 128,-1,20
 273 360 273 360 244.5 347 c 128,-1,21
 216 334 216 334 182 334 c 0,4,5
186 639 m 0,22,23
 155 639 155 639 130.5 608.5 c 128,-1,24
 106 578 106 578 106 516 c 0,25,26
 106 457 106 457 128.5 429.5 c 128,-1,27
 151 402 151 402 183 402 c 0,28,29
 218 402 218 402 241 431.5 c 128,-1,30
 264 461 264 461 264 524 c 0,31,32
 264 582 264 582 240 610.5 c 128,-1,33
 216 639 216 639 186 639 c 0,22,23
653 -11 m 0,34,35
 586 -11 586 -11 545 37.5 c 128,-1,36
 504 86 504 86 504 171 c 0,37,38
 504 215 504 215 516 250 c 128,-1,39
 528 285 528 285 549 309 c 128,-1,40
 570 333 570 333 598 346 c 128,-1,41
 626 359 626 359 658 359 c 256,42,43
 690 359 690 359 717 346.5 c 128,-1,44
 744 334 744 334 764 311 c 128,-1,45
 784 288 784 288 795.5 254.5 c 128,-1,46
 807 221 807 221 807 179 c 0,47,48
 807 135 807 135 795.5 100 c 128,-1,49
 784 65 784 65 764 40 c 128,-1,50
 744 15 744 15 715.5 2 c 128,-1,51
 687 -11 687 -11 653 -11 c 0,34,35
657 294 m 0,52,53
 626 294 626 294 601.5 263.5 c 128,-1,54
 577 233 577 233 577 171 c 0,55,56
 577 112 577 112 599.5 84.5 c 128,-1,57
 622 57 622 57 654 57 c 0,58,59
 689 57 689 57 712 86.5 c 128,-1,60
 735 116 735 116 735 179 c 0,61,62
 735 237 735 237 711 265.5 c 128,-1,63
 687 294 687 294 657 294 c 0,52,53
EndSplineSet
EndChar

StartChar: ampersand
Encoding: 38 38 7
Width: 621
Flags: W
LayerCount: 2
Back
Fore
SplineSet
614 0 m 1,0,-1
 486 0 l 1,1,-1
 451 38 l 1,2,3
 377 -24 377 -24 266 -24 c 0,4,5
 208 -24 208 -24 164.5 -9.5 c 128,-1,6
 121 5 121 5 91.5 30.5 c 128,-1,7
 62 56 62 56 47.5 90.5 c 128,-1,8
 33 125 33 125 33 166 c 0,9,10
 33 275 33 275 156 367 c 1,11,12
 81 460 81 460 81 537 c 0,13,14
 81 575 81 575 97 606 c 128,-1,15
 113 637 113 637 141 658.5 c 128,-1,16
 169 680 169 680 205 691.5 c 128,-1,17
 241 703 241 703 282 703 c 0,18,19
 357 703 357 703 396.5 665.5 c 128,-1,20
 436 628 436 628 436 565 c 0,21,22
 436 535 436 535 426 509 c 128,-1,23
 416 483 416 483 397 459.5 c 128,-1,24
 378 436 378 436 350.5 413 c 128,-1,25
 323 390 323 390 287 366 c 1,26,-1
 442 195 l 1,27,28
 459 245 459 245 462 352 c 1,29,-1
 569 352 l 1,30,31
 566 207 566 207 515 114 c 1,32,-1
 614 0 l 1,0,-1
274 613 m 0,33,34
 237 613 237 613 213.5 592.5 c 128,-1,35
 190 572 190 572 190 533 c 0,36,37
 190 485 190 485 239 424 c 1,38,39
 290 462 290 462 313.5 488.5 c 128,-1,40
 337 515 337 515 337 550 c 0,41,42
 337 613 337 613 274 613 c 0,33,34
394 105 m 1,43,-1
 210 304 l 1,44,45
 149 249 149 249 149 176 c 0,46,47
 149 127 149 127 179 95 c 128,-1,48
 209 63 209 63 278 63 c 0,49,50
 352 63 352 63 394 105 c 1,43,-1
EndSplineSet
EndChar

StartChar: quotesingle
Encoding: 39 39 8
Width: 194
Flags: W
LayerCount: 2
Back
Fore
SplineSet
155 750 m 1,0,-1
 136 450 l 1,1,-1
 58 450 l 1,2,-1
 39 750 l 1,3,-1
 155 750 l 1,0,-1
EndSplineSet
EndChar

StartChar: parenleft
Encoding: 40 40 9
Width: 272
Flags: W
LayerCount: 2
Back
Fore
SplineSet
249 -136 m 1,0,-1
 147 -136 l 1,1,2
 120 -90 120 -90 100 -43.5 c 128,-1,3
 80 3 80 3 67 55.5 c 128,-1,4
 54 108 54 108 47.5 169.5 c 128,-1,5
 41 231 41 231 41 307 c 256,6,7
 41 383 41 383 47.5 445 c 128,-1,8
 54 507 54 507 67.5 560 c 128,-1,9
 81 613 81 613 100.5 659 c 128,-1,10
 120 705 120 705 147 750 c 1,11,-1
 249 750 l 1,12,13
 133 550 133 550 133 307 c 256,14,15
 133 64 133 64 249 -136 c 1,0,-1
EndSplineSet
EndChar

StartChar: parenright
Encoding: 41 41 10
Width: 272
Flags: W
LayerCount: 2
Back
Fore
SplineSet
125 -136 m 1,0,-1
 23 -136 l 1,1,2
 139 64 139 64 139 307 c 256,3,4
 139 550 139 550 23 750 c 1,5,-1
 125 750 l 1,6,7
 152 705 152 705 171.5 659 c 128,-1,8
 191 613 191 613 204.5 560 c 128,-1,9
 218 507 218 507 224.5 445 c 128,-1,10
 231 383 231 383 231 307 c 0,11,12
 231 232 231 232 224.5 170 c 128,-1,13
 218 108 218 108 205 55.5 c 128,-1,14
 192 3 192 3 172 -44 c 128,-1,15
 152 -91 152 -91 125 -136 c 1,0,-1
EndSplineSet
EndChar

StartChar: asterisk
Encoding: 42 42 11
Width: 441
Flags: W
LayerCount: 2
Back
Fore
SplineSet
312 417 m 1,0,-1
 222 552 l 1,1,-1
 132 414 l 1,2,-1
 76 468 l 1,3,-1
 193 567 l 1,4,-1
 33 624 l 1,5,-1
 72 693 l 1,6,-1
 210 592 l 1,7,-1
 182 749 l 1,8,-1
 261 749 l 1,9,-1
 231 592 l 1,10,-1
 370 693 l 1,11,-1
 409 623 l 1,12,-1
 251 569 l 1,13,-1
 368 471 l 1,14,-1
 312 417 l 1,0,-1
EndSplineSet
EndChar

StartChar: plus
Encoding: 43 43 12
Width: 462
Flags: W
LayerCount: 2
Back
Fore
SplineSet
416 232 m 1,0,-1
 276 232 l 1,1,-1
 276 102 l 1,2,-1
 186 102 l 1,3,-1
 186 232 l 1,4,-1
 46 232 l 1,5,-1
 46 324 l 1,6,-1
 186 324 l 1,7,-1
 186 452 l 1,8,-1
 276 452 l 1,9,-1
 276 324 l 1,10,-1
 416 324 l 1,11,-1
 416 232 l 1,0,-1
EndSplineSet
EndChar

StartChar: comma
Encoding: 44 44 13
Width: 227
Flags: W
LayerCount: 2
Back
Fore
SplineSet
172 0 m 1,0,-1
 80 -110 l 1,1,-1
 55 -96 l 1,2,-1
 88 -10 l 1,3,-1
 55 0 l 1,4,-1
 55 116 l 1,5,-1
 172 116 l 1,6,-1
 172 0 l 1,0,-1
EndSplineSet
EndChar

StartChar: hyphen
Encoding: 45 45 14
Width: 420
Flags: W
LayerCount: 2
Back
Fore
SplineSet
365 232 m 1,0,-1
 55 232 l 1,1,-1
 55 324 l 1,2,-1
 365 324 l 1,3,-1
 365 232 l 1,0,-1
EndSplineSet
EndChar

StartChar: period
Encoding: 46 46 15
Width: 224
Flags: W
LayerCount: 2
Back
Fore
SplineSet
169 0 m 1,0,-1
 55 0 l 1,1,-1
 55 116 l 1,2,-1
 169 116 l 1,3,-1
 169 0 l 1,0,-1
EndSplineSet
EndChar

StartChar: slash
Encoding: 47 47 16
Width: 544
Flags: W
LayerCount: 2
Back
Fore
SplineSet
511 700 m 1,0,-1
 142 -85 l 1,1,-1
 18 -85 l 1,2,-1
 387 700 l 1,3,-1
 511 700 l 1,0,-1
EndSplineSet
EndChar

StartChar: zero
Encoding: 48 48 17
Width: 708
Flags: W
LayerCount: 2
Back
Fore
SplineSet
348 -14 m 0,0,1
 283 -14 283 -14 230 11.5 c 128,-1,2
 177 37 177 37 139 83.5 c 128,-1,3
 101 130 101 130 80.5 195 c 128,-1,4
 60 260 60 260 60 339 c 0,5,6
 60 421 60 421 83 489.5 c 128,-1,7
 106 558 106 558 146.5 608 c 128,-1,8
 187 658 187 658 241.5 686 c 128,-1,9
 296 714 296 714 360 714 c 0,10,11
 423 714 423 714 475.5 687 c 128,-1,12
 528 660 528 660 566.5 612.5 c 128,-1,13
 605 565 605 565 626.5 499.5 c 128,-1,14
 648 434 648 434 648 356 c 0,15,16
 648 274 648 274 626.5 206 c 128,-1,17
 605 138 605 138 566 89 c 128,-1,18
 527 40 527 40 471.5 13 c 128,-1,19
 416 -14 416 -14 348 -14 c 0,0,1
358 609 m 256,20,21
 322 609 322 609 289.5 591.5 c 128,-1,22
 257 574 257 574 232.5 539.5 c 128,-1,23
 208 505 208 505 194 454.5 c 128,-1,24
 180 404 180 404 180 339 c 0,25,26
 180 215 180 215 226 153.5 c 128,-1,27
 272 92 272 92 350 92 c 0,28,29
 432 92 432 92 481 157.5 c 128,-1,30
 530 223 530 223 530 356 c 0,31,32
 530 416 530 416 516.5 463.5 c 128,-1,33
 503 511 503 511 480 543 c 128,-1,34
 457 575 457 575 425.5 592 c 128,-1,35
 394 609 394 609 358 609 c 256,20,21
EndSplineSet
EndChar

StartChar: one
Encoding: 49 49 18
Width: 365
Flags: W
LayerCount: 2
Back
Fore
SplineSet
267 0 m 1,0,-1
 147 0 l 1,1,-1
 147 533 l 1,2,3
 101 499 101 499 54 489 c 1,4,-1
 42 591 l 1,5,6
 60 595 60 595 80.5 606.5 c 128,-1,7
 101 618 101 618 119.5 633 c 128,-1,8
 138 648 138 648 153.5 665.5 c 128,-1,9
 169 683 169 683 177 700 c 1,10,-1
 267 700 l 1,11,-1
 267 0 l 1,0,-1
EndSplineSet
EndChar

StartChar: two
Encoding: 50 50 19
Width: 529
Flags: W
LayerCount: 2
Back
Fore
SplineSet
472 0 m 1,0,-1
 48 0 l 1,1,2
 138 130 138 130 194 215.5 c 128,-1,3
 250 301 250 301 281 357 c 128,-1,4
 312 413 312 413 322.5 447.5 c 128,-1,5
 333 482 333 482 333 509 c 0,6,7
 333 558 333 558 305 585.5 c 128,-1,8
 277 613 277 613 228 613 c 0,9,10
 137 613 137 613 67 510 c 1,11,-1
 52 616 l 1,12,13
 61 632 61 632 79.5 649.5 c 128,-1,14
 98 667 98 667 124.5 681.5 c 128,-1,15
 151 696 151 696 183.5 705 c 128,-1,16
 216 714 216 714 254 714 c 0,17,18
 304 714 304 714 340 698.5 c 128,-1,19
 376 683 376 683 399.5 657 c 128,-1,20
 423 631 423 631 434.5 596.5 c 128,-1,21
 446 562 446 562 446 525 c 0,22,23
 446 489 446 489 435.5 449.5 c 128,-1,24
 425 410 425 410 402 361 c 128,-1,25
 379 312 379 312 342 251 c 128,-1,26
 305 190 305 190 253 112 c 1,27,-1
 472 112 l 1,28,-1
 472 0 l 1,0,-1
EndSplineSet
EndChar

StartChar: three
Encoding: 51 51 20
Width: 543
Flags: W
LayerCount: 2
Back
Fore
SplineSet
227 -14 m 0,0,1
 198 -14 198 -14 167.5 -8.5 c 128,-1,2
 137 -3 137 -3 110 5 c 128,-1,3
 83 13 83 13 63.5 22.5 c 128,-1,4
 44 32 44 32 38 40 c 1,5,-1
 67 148 l 1,6,7
 134 97 134 97 223 97 c 0,8,9
 283 97 283 97 323 123.5 c 128,-1,10
 363 150 363 150 363 212 c 0,11,12
 363 240 363 240 356 263 c 128,-1,13
 349 286 349 286 333 302 c 128,-1,14
 317 318 317 318 290 326.5 c 128,-1,15
 263 335 263 335 223 335 c 2,16,-1
 138 335 l 1,17,-1
 149 427 l 1,18,-1
 192 427 l 2,19,20
 336 427 336 427 336 526 c 0,21,22
 336 613 336 613 228 613 c 0,23,24
 144 613 144 613 101 577 c 1,25,-1
 82 668 l 1,26,27
 91 677 91 677 106.5 685 c 128,-1,28
 122 693 122 693 143 699.5 c 128,-1,29
 164 706 164 706 189 710 c 128,-1,30
 214 714 214 714 241 714 c 0,31,32
 305 714 305 714 347 697 c 128,-1,33
 389 680 389 680 413.5 653 c 128,-1,34
 438 626 438 626 447.5 593.5 c 128,-1,35
 457 561 457 561 457 530 c 0,36,37
 457 441 457 441 383 388 c 1,38,39
 482 338 482 338 482 216 c 0,40,41
 482 161 482 161 461.5 118 c 128,-1,42
 441 75 441 75 406 46 c 128,-1,43
 371 17 371 17 325 1.5 c 128,-1,44
 279 -14 279 -14 227 -14 c 0,0,1
EndSplineSet
EndChar

StartChar: four
Encoding: 52 52 21
Width: 576
Flags: W
LayerCount: 2
Back
Fore
SplineSet
518 190 m 1,0,-1
 433 190 l 1,1,-1
 433 0 l 1,2,-1
 313 0 l 1,3,-1
 313 190 l 1,4,-1
 12 190 l 1,5,-1
 334 700 l 1,6,-1
 433 700 l 1,7,-1
 433 288 l 1,8,-1
 518 288 l 1,9,-1
 518 190 l 1,0,-1
313 288 m 1,10,-1
 313 512 l 1,11,-1
 178 288 l 1,12,-1
 313 288 l 1,10,-1
EndSplineSet
EndChar

StartChar: five
Encoding: 53 53 22
Width: 540
Flags: W
LayerCount: 2
Back
Fore
SplineSet
229 -13 m 0,0,1
 202 -13 202 -13 172.5 -7.5 c 128,-1,2
 143 -2 143 -2 117 5.5 c 128,-1,3
 91 13 91 13 72.5 21.5 c 128,-1,4
 54 30 54 30 50 37 c 1,5,-1
 78 145 l 1,6,7
 142 96 142 96 226 96 c 0,8,9
 256 96 256 96 282.5 104.5 c 128,-1,10
 309 113 309 113 328.5 130 c 128,-1,11
 348 147 348 147 359.5 171.5 c 128,-1,12
 371 196 371 196 371 228 c 0,13,14
 371 255 371 255 361.5 275.5 c 128,-1,15
 352 296 352 296 330.5 310.5 c 128,-1,16
 309 325 309 325 273.5 332 c 128,-1,17
 238 339 238 339 187 339 c 2,18,-1
 87 339 l 1,19,-1
 130 700 l 1,20,-1
 450 700 l 1,21,-1
 439 588 l 1,22,-1
 220 588 l 1,23,-1
 202 439 l 1,24,25
 353 438 353 438 420.5 388.5 c 128,-1,26
 488 339 488 339 488 233 c 0,27,28
 488 176 488 176 467 130.5 c 128,-1,29
 446 85 446 85 410.5 53 c 128,-1,30
 375 21 375 21 328 4 c 128,-1,31
 281 -13 281 -13 229 -13 c 0,0,1
EndSplineSet
EndChar

StartChar: six
Encoding: 54 54 23
Width: 565
Flags: W
LayerCount: 2
Back
Fore
SplineSet
278 -14 m 0,0,1
 229 -14 229 -14 188.5 1.5 c 128,-1,2
 148 17 148 17 119.5 49.5 c 128,-1,3
 91 82 91 82 75.5 131.5 c 128,-1,4
 60 181 60 181 60 249 c 0,5,6
 60 313 60 313 75 371.5 c 128,-1,7
 90 430 90 430 115 480.5 c 128,-1,8
 140 531 140 531 171.5 571.5 c 128,-1,9
 203 612 203 612 236.5 640.5 c 128,-1,10
 270 669 270 669 302 684.5 c 128,-1,11
 334 700 334 700 360 700 c 1,12,-1
 438 654 l 1,13,14
 407 648 407 648 367 622 c 128,-1,15
 327 596 327 596 289.5 557.5 c 128,-1,16
 252 519 252 519 223.5 471 c 128,-1,17
 195 423 195 423 187 374 c 1,18,19
 223 421 223 421 311 421 c 0,20,21
 357 421 357 421 395.5 407.5 c 128,-1,22
 434 394 434 394 462 368.5 c 128,-1,23
 490 343 490 343 506 305 c 128,-1,24
 522 267 522 267 522 219 c 256,25,26
 522 171 522 171 504.5 128.5 c 128,-1,27
 487 86 487 86 454.5 54.5 c 128,-1,28
 422 23 422 23 377 4.5 c 128,-1,29
 332 -14 332 -14 278 -14 c 0,0,1
302 324 m 0,30,31
 248 324 248 324 212.5 292 c 128,-1,32
 177 260 177 260 177 202 c 0,33,34
 177 175 177 175 186.5 154.5 c 128,-1,35
 196 134 196 134 211.5 119.5 c 128,-1,36
 227 105 227 105 247.5 97.5 c 128,-1,37
 268 90 268 90 291 90 c 0,38,39
 319 90 319 90 341 100.5 c 128,-1,40
 363 111 363 111 378.5 129 c 128,-1,41
 394 147 394 147 402.5 170 c 128,-1,42
 411 193 411 193 411 219 c 0,43,44
 411 240 411 240 404 259 c 128,-1,45
 397 278 397 278 383.5 292.5 c 128,-1,46
 370 307 370 307 349.5 315.5 c 128,-1,47
 329 324 329 324 302 324 c 0,30,31
EndSplineSet
EndChar

StartChar: seven
Encoding: 55 55 24
Width: 509
Flags: W
LayerCount: 2
Back
Fore
SplineSet
500 700 m 1,0,-1
 204 0 l 1,1,-1
 81 0 l 1,2,-1
 329 588 l 1,3,-1
 42 588 l 1,4,-1
 42 700 l 1,5,-1
 500 700 l 1,0,-1
EndSplineSet
EndChar

StartChar: eight
Encoding: 56 56 25
Width: 604
Flags: W
LayerCount: 2
Back
Fore
SplineSet
293 -14 m 0,0,1
 234 -14 234 -14 190 2 c 128,-1,2
 146 18 146 18 116.5 45 c 128,-1,3
 87 72 87 72 72 108.5 c 128,-1,4
 57 145 57 145 57 186 c 0,5,6
 57 300 57 300 173 377 c 1,7,8
 97 437 97 437 97 538 c 0,9,10
 97 575 97 575 108.5 607.5 c 128,-1,11
 120 640 120 640 145.5 663.5 c 128,-1,12
 171 687 171 687 210.5 700.5 c 128,-1,13
 250 714 250 714 306 714 c 0,14,15
 359 714 359 714 397.5 702 c 128,-1,16
 436 690 436 690 460.5 668 c 128,-1,17
 485 646 485 646 497 616.5 c 128,-1,18
 509 587 509 587 509 553 c 0,19,20
 509 502 509 502 486.5 463.5 c 128,-1,21
 464 425 464 425 413 386 c 1,22,23
 547 330 547 330 547 202 c 0,24,25
 547 161 547 161 530.5 122.5 c 128,-1,26
 514 84 514 84 482 53.5 c 128,-1,27
 450 23 450 23 402.5 4.5 c 128,-1,28
 355 -14 355 -14 293 -14 c 0,0,1
301 618 m 0,29,30
 250 618 250 618 225.5 594 c 128,-1,31
 201 570 201 570 201 528 c 0,32,33
 201 453 201 453 296 424 c 1,34,35
 398 452 398 452 398 535 c 0,36,37
 398 572 398 572 374 595 c 128,-1,38
 350 618 350 618 301 618 c 0,29,30
305 334 m 1,39,40
 249 324 249 324 211 288 c 128,-1,41
 173 252 173 252 173 193 c 0,42,43
 173 139 173 139 206 111 c 128,-1,44
 239 83 239 83 297 83 c 0,45,46
 357 83 357 83 393 114.5 c 128,-1,47
 429 146 429 146 429 200 c 0,48,49
 429 252 429 252 394 286.5 c 128,-1,50
 359 321 359 321 305 334 c 1,39,40
EndSplineSet
EndChar

StartChar: nine
Encoding: 57 57 26
Width: 566
Flags: W
LayerCount: 2
Back
Fore
SplineSet
287 714 m 0,0,1
 336 714 336 714 376.5 698.5 c 128,-1,2
 417 683 417 683 445.5 651 c 128,-1,3
 474 619 474 619 490 569.5 c 128,-1,4
 506 520 506 520 506 452 c 0,5,6
 506 353 506 353 476.5 270 c 128,-1,7
 447 187 447 187 402.5 127 c 128,-1,8
 358 67 358 67 306 33.5 c 128,-1,9
 254 0 254 0 208 0 c 1,10,-1
 129 46 l 1,11,12
 159 52 159 52 200 74.5 c 128,-1,13
 241 97 241 97 279.5 133.5 c 128,-1,14
 318 170 318 170 347 218 c 128,-1,15
 376 266 376 266 382 323 c 1,16,17
 373 312 373 312 357 304 c 128,-1,18
 341 296 341 296 322.5 290.5 c 128,-1,19
 304 285 304 285 285.5 282 c 128,-1,20
 267 279 267 279 254 279 c 0,21,22
 157 279 157 279 100 329.5 c 128,-1,23
 43 380 43 380 43 479 c 0,24,25
 43 529 43 529 60.5 572 c 128,-1,26
 78 615 78 615 110.5 646.5 c 128,-1,27
 143 678 143 678 188 696 c 128,-1,28
 233 714 233 714 287 714 c 0,0,1
265 376 m 0,29,30
 319 376 319 376 355 408 c 128,-1,31
 391 440 391 440 391 498 c 0,32,33
 391 555 391 555 357.5 582.5 c 128,-1,34
 324 610 324 610 278 610 c 0,35,36
 250 610 250 610 228 599.5 c 128,-1,37
 206 589 206 589 190.5 571.5 c 128,-1,38
 175 554 175 554 167 531 c 128,-1,39
 159 508 159 508 159 484 c 0,40,41
 159 462 159 462 165.5 442.5 c 128,-1,42
 172 423 172 423 185 408 c 128,-1,43
 198 393 198 393 218 384.5 c 128,-1,44
 238 376 238 376 265 376 c 0,29,30
EndSplineSet
EndChar

StartChar: colon
Encoding: 58 58 27
Width: 224
Flags: W
LayerCount: 2
Back
Fore
SplineSet
169 324 m 1,0,-1
 55 324 l 1,1,-1
 55 440 l 1,2,-1
 169 440 l 1,3,-1
 169 324 l 1,0,-1
169 0 m 1,4,-1
 55 0 l 1,5,-1
 55 116 l 1,6,-1
 169 116 l 1,7,-1
 169 0 l 1,4,-1
EndSplineSet
EndChar

StartChar: semicolon
Encoding: 59 59 28
Width: 238
Flags: W
LayerCount: 2
Back
Fore
SplineSet
183 324 m 1,0,-1
 57 324 l 1,1,-1
 57 440 l 1,2,-1
 183 440 l 1,3,-1
 183 324 l 1,0,-1
174 0 m 1,4,-1
 82 -110 l 1,5,-1
 57 -96 l 1,6,-1
 90 -10 l 1,7,-1
 57 0 l 1,8,-1
 57 116 l 1,9,-1
 174 116 l 1,10,-1
 174 0 l 1,4,-1
EndSplineSet
EndChar

StartChar: less
Encoding: 60 60 29
Width: 431
Flags: W
LayerCount: 2
Back
Fore
SplineSet
373 78 m 1,0,-1
 242 78 l 1,1,-1
 29 284 l 1,2,-1
 242 490 l 1,3,-1
 373 490 l 1,4,-1
 160 284 l 1,5,-1
 373 78 l 1,0,-1
EndSplineSet
EndChar

StartChar: equal
Encoding: 61 61 30
Width: 498
Flags: W
LayerCount: 2
Back
Fore
SplineSet
434 312 m 1,0,-1
 64 312 l 1,1,-1
 64 401 l 1,2,-1
 434 401 l 1,3,-1
 434 312 l 1,0,-1
434 153 m 1,4,-1
 64 153 l 1,5,-1
 64 242 l 1,6,-1
 434 242 l 1,7,-1
 434 153 l 1,4,-1
EndSplineSet
EndChar

StartChar: greater
Encoding: 62 62 31
Width: 432
Flags: W
LayerCount: 2
Back
Fore
SplineSet
403 284 m 1,0,-1
 190 78 l 1,1,-1
 59 78 l 1,2,-1
 272 284 l 1,3,-1
 59 490 l 1,4,-1
 190 490 l 1,5,-1
 403 284 l 1,0,-1
EndSplineSet
EndChar

StartChar: question
Encoding: 63 63 32
Width: 442
Flags: W
LayerCount: 2
Back
Fore
SplineSet
239 200 m 1,0,-1
 163 200 l 1,1,2
 160 239 160 239 160 251 c 0,3,4
 160 298 160 298 181 336 c 128,-1,5
 202 374 202 374 226.5 409 c 128,-1,6
 251 444 251 444 272 480 c 128,-1,7
 293 516 293 516 293 560 c 0,8,9
 293 611 293 611 262 636.5 c 128,-1,10
 231 662 231 662 183 662 c 0,11,12
 141 662 141 662 108 642.5 c 128,-1,13
 75 623 75 623 57 596 c 1,14,-1
 30 680 l 1,15,16
 52 714 52 714 95 732 c 128,-1,17
 138 750 138 750 190 750 c 0,18,19
 239 750 239 750 278 733 c 128,-1,20
 317 716 317 716 344 689 c 128,-1,21
 371 662 371 662 385 628 c 128,-1,22
 399 594 399 594 399 561 c 0,23,24
 399 514 399 514 374 473.5 c 128,-1,25
 349 433 349 433 319 392.5 c 128,-1,26
 289 352 289 352 264 309.5 c 128,-1,27
 239 267 239 267 239 217 c 2,28,-1
 239 200 l 1,0,-1
258 0 m 1,29,-1
 145 0 l 1,30,-1
 145 112 l 1,31,-1
 258 112 l 1,32,-1
 258 0 l 1,29,-1
EndSplineSet
EndChar

StartChar: at
Encoding: 64 64 33
Width: 719
Flags: W
LayerCount: 2
Back
Fore
SplineSet
542 379 m 1,0,1
 491 432 491 432 420 432 c 0,2,3
 374 432 374 432 328.5 407 c 128,-1,4
 283 382 283 382 247 342.5 c 128,-1,5
 211 303 211 303 188.5 252.5 c 128,-1,6
 166 202 166 202 166 151 c 0,7,8
 166 103 166 103 188 71.5 c 128,-1,9
 210 40 210 40 261 40 c 0,10,11
 282 40 282 40 307 48.5 c 128,-1,12
 332 57 332 57 356 72.5 c 128,-1,13
 380 88 380 88 401.5 109 c 128,-1,14
 423 130 423 130 437 156 c 1,15,16
 437 155 437 155 436.5 150.5 c 128,-1,17
 436 146 436 146 435.5 141 c 128,-1,18
 435 136 435 136 434.5 131 c 128,-1,19
 434 126 434 126 434 125 c 0,20,21
 434 93 434 93 447 67.5 c 128,-1,22
 460 42 460 42 489 42 c 0,23,24
 504 42 504 42 522 47.5 c 128,-1,25
 540 53 540 53 558 62 c 128,-1,26
 576 71 576 71 593 82.5 c 128,-1,27
 610 94 610 94 622 106 c 1,28,29
 598 63 598 63 563 27.5 c 128,-1,30
 528 -8 528 -8 485 -33.5 c 128,-1,31
 442 -59 442 -59 393.5 -73 c 128,-1,32
 345 -87 345 -87 294 -87 c 0,33,34
 237 -87 237 -87 191 -69.5 c 128,-1,35
 145 -52 145 -52 112.5 -19 c 128,-1,36
 80 14 80 14 63 62 c 128,-1,37
 46 110 46 110 46 170 c 0,38,39
 46 250 46 250 76 320 c 128,-1,40
 106 390 106 390 158 441.5 c 128,-1,41
 210 493 210 493 278 523 c 128,-1,42
 346 553 346 553 423 553 c 0,43,44
 481 553 481 553 527.5 535 c 128,-1,45
 574 517 574 517 606 484 c 128,-1,46
 638 451 638 451 655 404 c 128,-1,47
 672 357 672 357 672 299 c 0,48,49
 672 273 672 273 669.5 245 c 128,-1,50
 667 217 667 217 659 191.5 c 128,-1,51
 651 166 651 166 634.5 145 c 128,-1,52
 618 124 618 124 590 111 c 0,53,54
 551 94 551 94 524 94 c 0,55,56
 487 94 487 94 487 147 c 0,57,58
 487 160 487 160 492 184 c 128,-1,59
 497 208 497 208 505 238.5 c 128,-1,60
 513 269 513 269 522.5 305 c 128,-1,61
 532 341 532 341 542 379 c 1,0,1
421 371 m 0,62,63
 468 371 468 371 475 349 c 1,64,65
 469 310 469 310 448.5 267.5 c 128,-1,66
 428 225 428 225 401 189 c 128,-1,67
 374 153 374 153 344.5 129.5 c 128,-1,68
 315 106 315 106 290 106 c 0,69,70
 268 106 268 106 257 124 c 128,-1,71
 246 142 246 142 246 170 c 0,72,73
 246 209 246 209 263 245.5 c 128,-1,74
 280 282 280 282 306.5 309.5 c 128,-1,75
 333 337 333 337 363.5 354 c 128,-1,76
 394 371 394 371 421 371 c 0,62,63
EndSplineSet
EndChar

StartChar: A
Encoding: 65 65 34
Width: 624
Flags: W
LayerCount: 2
Back
Fore
SplineSet
619 0 m 1,0,-1
 496 0 l 1,1,-1
 434 175 l 1,2,-1
 190 175 l 1,3,-1
 128 0 l 1,4,-1
 5 0 l 1,5,-1
 254 700 l 1,6,-1
 369 700 l 1,7,-1
 619 0 l 1,0,-1
394 287 m 1,8,-1
 311 520 l 1,9,-1
 229 287 l 1,10,-1
 394 287 l 1,8,-1
EndSplineSet
EndChar

StartChar: B
Encoding: 66 66 35
Width: 617
Flags: W
LayerCount: 2
Back
Fore
SplineSet
338 0 m 2,0,-1
 78 0 l 1,1,-1
 78 700 l 1,2,-1
 257 700 l 2,3,4
 320 700 320 700 369.5 693 c 128,-1,5
 419 686 419 686 453.5 666.5 c 128,-1,6
 488 647 488 647 506 612 c 128,-1,7
 524 577 524 577 524 522 c 0,8,9
 524 473 524 473 511 438 c 128,-1,10
 498 403 498 403 465 374 c 1,11,12
 529 349 529 349 557.5 309.5 c 128,-1,13
 586 270 586 270 586 207 c 0,14,15
 586 146 586 146 564.5 106 c 128,-1,16
 543 66 543 66 508 42.5 c 128,-1,17
 473 19 473 19 428.5 9.5 c 128,-1,18
 384 0 384 0 338 0 c 2,0,-1
301 598 m 2,19,-1
 195 598 l 1,20,-1
 195 416 l 1,21,-1
 318 416 l 2,22,23
 411 416 411 416 411 507 c 0,24,25
 411 561 411 561 383.5 579.5 c 128,-1,26
 356 598 356 598 301 598 c 2,19,-1
333 320 m 2,27,-1
 195 320 l 1,28,-1
 195 102 l 1,29,-1
 313 102 l 2,30,31
 388 102 388 102 426 125 c 128,-1,32
 464 148 464 148 464 209 c 0,33,34
 464 320 464 320 333 320 c 2,27,-1
EndSplineSet
EndChar

StartChar: C
Encoding: 67 67 36
Width: 613
Flags: W
LayerCount: 2
Back
Fore
SplineSet
384 -14 m 0,0,1
 308 -14 308 -14 244.5 12 c 128,-1,2
 181 38 181 38 135 86 c 128,-1,3
 89 134 89 134 63 201 c 128,-1,4
 37 268 37 268 37 350 c 256,5,6
 37 432 37 432 63 499 c 128,-1,7
 89 566 89 566 135 614 c 128,-1,8
 181 662 181 662 244.5 688 c 128,-1,9
 308 714 308 714 384 714 c 0,10,11
 494 714 494 714 581 673 c 1,12,-1
 568 562 l 1,13,14
 456 603 456 603 384 603 c 0,15,16
 331 603 331 603 290.5 584.5 c 128,-1,17
 250 566 250 566 222 532.5 c 128,-1,18
 194 499 194 499 180 452.5 c 128,-1,19
 166 406 166 406 166 350 c 256,20,21
 166 294 166 294 180 247.5 c 128,-1,22
 194 201 194 201 222 167.5 c 128,-1,23
 250 134 250 134 290.5 115.5 c 128,-1,24
 331 97 331 97 384 97 c 0,25,26
 460 97 460 97 568 138 c 1,27,-1
 581 27 l 1,28,29
 496 -14 496 -14 384 -14 c 0,0,1
EndSplineSet
EndChar

StartChar: D
Encoding: 68 68 37
Width: 723
Flags: W
LayerCount: 2
Back
Fore
SplineSet
339 0 m 2,0,-1
 78 0 l 1,1,-1
 78 700 l 1,2,-1
 339 700 l 2,3,4
 416 700 416 700 479.5 675.5 c 128,-1,5
 543 651 543 651 589 605.5 c 128,-1,6
 635 560 635 560 660 495.5 c 128,-1,7
 685 431 685 431 685 350 c 256,8,9
 685 269 685 269 660 204.5 c 128,-1,10
 635 140 635 140 589 94.5 c 128,-1,11
 543 49 543 49 479.5 24.5 c 128,-1,12
 416 0 416 0 339 0 c 2,0,-1
339 589 m 2,13,-1
 196 589 l 1,14,-1
 196 111 l 1,15,-1
 339 111 l 2,16,17
 445 111 445 111 500.5 174.5 c 128,-1,18
 556 238 556 238 556 350 c 256,19,20
 556 462 556 462 500.5 525.5 c 128,-1,21
 445 589 445 589 339 589 c 2,13,-1
EndSplineSet
EndChar

StartChar: E
Encoding: 69 69 38
Width: 564
Flags: W
LayerCount: 2
Back
Fore
SplineSet
529 0 m 1,0,-1
 78 0 l 1,1,-1
 78 700 l 1,2,-1
 519 700 l 1,3,-1
 519 588 l 1,4,-1
 198 588 l 1,5,-1
 198 421 l 1,6,-1
 449 421 l 1,7,-1
 449 309 l 1,8,-1
 198 309 l 1,9,-1
 198 112 l 1,10,-1
 529 112 l 1,11,-1
 529 0 l 1,0,-1
EndSplineSet
EndChar

StartChar: F
Encoding: 70 70 39
Width: 525
Flags: W
LayerCount: 2
Back
Fore
SplineSet
508 588 m 1,0,-1
 196 588 l 1,1,-1
 196 421 l 1,2,-1
 437 421 l 1,3,-1
 437 309 l 1,4,-1
 196 309 l 1,5,-1
 196 0 l 1,6,-1
 78 0 l 1,7,-1
 78 700 l 1,8,-1
 508 700 l 1,9,-1
 508 588 l 1,0,-1
EndSplineSet
EndChar

StartChar: G
Encoding: 71 71 40
Width: 668
Flags: W
LayerCount: 2
Back
Fore
SplineSet
379 -14 m 0,0,1
 305 -14 305 -14 242 12 c 128,-1,2
 179 38 179 38 133.5 86 c 128,-1,3
 88 134 88 134 62.5 201.5 c 128,-1,4
 37 269 37 269 37 351 c 256,5,6
 37 433 37 433 63 500 c 128,-1,7
 89 567 89 567 135.5 614.5 c 128,-1,8
 182 662 182 662 246 688 c 128,-1,9
 310 714 310 714 387 714 c 0,10,11
 412 714 412 714 441 711 c 128,-1,12
 470 708 470 708 498.5 702.5 c 128,-1,13
 527 697 527 697 552.5 689.5 c 128,-1,14
 578 682 578 682 596 673 c 1,15,-1
 584 563 l 1,16,17
 483 603 483 603 390 603 c 0,18,19
 334 603 334 603 292.5 584.5 c 128,-1,20
 251 566 251 566 222.5 533 c 128,-1,21
 194 500 194 500 180 454 c 128,-1,22
 166 408 166 408 166 352 c 0,23,24
 166 295 166 295 181 248 c 128,-1,25
 196 201 196 201 225.5 167.5 c 128,-1,26
 255 134 255 134 298.5 115.5 c 128,-1,27
 342 97 342 97 399 97 c 0,28,29
 450 97 450 97 501 111 c 1,30,-1
 501 251 l 1,31,-1
 414 251 l 1,32,-1
 414 351 l 1,33,-1
 619 351 l 1,34,-1
 619 39 l 1,35,36
 600 28 600 28 571 18.5 c 128,-1,37
 542 9 542 9 509 1.5 c 128,-1,38
 476 -6 476 -6 441.5 -10 c 128,-1,39
 407 -14 407 -14 379 -14 c 0,0,1
EndSplineSet
EndChar

StartChar: H
Encoding: 72 72 41
Width: 742
Flags: W
LayerCount: 2
Back
Fore
SplineSet
664 0 m 1,0,-1
 546 0 l 1,1,-1
 546 309 l 1,2,-1
 196 309 l 1,3,-1
 196 0 l 1,4,-1
 78 0 l 1,5,-1
 78 700 l 1,6,-1
 196 700 l 1,7,-1
 196 422 l 1,8,-1
 546 422 l 1,9,-1
 546 700 l 1,10,-1
 664 700 l 1,11,-1
 664 0 l 1,0,-1
EndSplineSet
EndChar

StartChar: I
Encoding: 73 73 42
Width: 274
Flags: W
LayerCount: 2
Back
Fore
SplineSet
196 0 m 1,0,-1
 78 0 l 1,1,-1
 78 700 l 1,2,-1
 196 700 l 1,3,-1
 196 0 l 1,0,-1
EndSplineSet
EndChar

StartChar: J
Encoding: 74 74 43
Width: 273
Flags: W
LayerCount: 2
Back
Fore
SplineSet
32 -172 m 2,0,-1
 2 -172 l 1,1,-1
 -8 -88 l 1,2,-1
 12 -88 l 2,3,4
 49 -88 49 -88 63.5 -67 c 128,-1,5
 78 -46 78 -46 78 2 c 2,6,-1
 78 700 l 1,7,-1
 195 700 l 1,8,-1
 195 -26 l 2,9,10
 195 -98 195 -98 153 -135 c 128,-1,11
 111 -172 111 -172 32 -172 c 2,0,-1
EndSplineSet
EndChar

StartChar: K
Encoding: 75 75 44
Width: 608
Flags: W
LayerCount: 2
Back
Fore
SplineSet
604 0 m 1,0,-1
 474 0 l 1,1,-1
 225 370 l 1,2,-1
 474 700 l 1,3,-1
 604 700 l 1,4,-1
 356 370 l 1,5,-1
 604 0 l 1,0,-1
196 0 m 1,6,-1
 78 0 l 1,7,-1
 78 700 l 1,8,-1
 196 700 l 1,9,-1
 196 0 l 1,6,-1
EndSplineSet
EndChar

StartChar: L
Encoding: 76 76 45
Width: 502
Flags: W
LayerCount: 2
Back
Fore
SplineSet
494 0 m 1,0,-1
 78 0 l 1,1,-1
 78 700 l 1,2,-1
 196 700 l 1,3,-1
 196 112 l 1,4,-1
 494 112 l 1,5,-1
 494 0 l 1,0,-1
EndSplineSet
EndChar

StartChar: M
Encoding: 77 77 46
Width: 826
Flags: W
LayerCount: 2
Back
Fore
SplineSet
781 0 m 1,0,-1
 658 0 l 1,1,-1
 596 488 l 1,2,-1
 414 153 l 1,3,-1
 230 487 l 1,4,-1
 168 0 l 1,5,-1
 45 0 l 1,6,-1
 141 700 l 1,7,-1
 239 700 l 1,8,-1
 414 372 l 1,9,-1
 587 700 l 1,10,-1
 685 700 l 1,11,-1
 781 0 l 1,0,-1
EndSplineSet
EndChar

StartChar: N
Encoding: 78 78 47
Width: 706
Flags: W
LayerCount: 2
Back
Fore
SplineSet
628 0 m 1,0,-1
 531 0 l 1,1,-1
 196 503 l 1,2,-1
 196 0 l 1,3,-1
 78 0 l 1,4,-1
 78 700 l 1,5,-1
 197 700 l 1,6,-1
 510 226 l 1,7,-1
 510 700 l 1,8,-1
 628 700 l 1,9,-1
 628 0 l 1,0,-1
EndSplineSet
EndChar

StartChar: O
Encoding: 79 79 48
Width: 764
Flags: W
LayerCount: 2
Back
Fore
SplineSet
630 86 m 0,0,1
 534 -14 534 -14 382 -14 c 0,2,3
 307 -14 307 -14 243.5 12 c 128,-1,4
 180 38 180 38 134 86 c 128,-1,5
 88 134 88 134 62.5 201 c 128,-1,6
 37 268 37 268 37 350 c 256,7,8
 37 432 37 432 62.5 499 c 128,-1,9
 88 566 88 566 134 614 c 128,-1,10
 180 662 180 662 243.5 688 c 128,-1,11
 307 714 307 714 382 714 c 0,12,13
 458 714 458 714 521 687.5 c 128,-1,14
 584 661 584 661 630 613 c 128,-1,15
 676 565 676 565 701.5 498 c 128,-1,16
 727 431 727 431 727 350 c 0,17,18
 727 186 727 186 630 86 c 0,0,1
542 533 m 0,19,20
 487 603 487 603 382 603 c 0,21,22
 329 603 329 603 289 584.5 c 128,-1,23
 249 566 249 566 221.5 532 c 128,-1,24
 194 498 194 498 180 451.5 c 128,-1,25
 166 405 166 405 166 350 c 0,26,27
 166 294 166 294 180 248 c 128,-1,28
 194 202 194 202 221.5 168 c 128,-1,29
 249 134 249 134 289 115.5 c 128,-1,30
 329 97 329 97 382 97 c 0,31,32
 434 97 434 97 474.5 115.5 c 128,-1,33
 515 134 515 134 542.5 168 c 128,-1,34
 570 202 570 202 584 248 c 128,-1,35
 598 294 598 294 598 350 c 0,36,37
 598 462 598 462 542 533 c 0,19,20
EndSplineSet
EndChar

StartChar: P
Encoding: 80 80 49
Width: 589
Flags: W
LayerCount: 2
Back
Fore
SplineSet
331 235 m 2,0,-1
 197 235 l 1,1,-1
 197 0 l 1,2,-1
 78 0 l 1,3,-1
 78 700 l 1,4,-1
 284 700 l 2,5,6
 351 700 351 700 403.5 692 c 128,-1,7
 456 684 456 684 492.5 660 c 128,-1,8
 529 636 529 636 548 592.5 c 128,-1,9
 567 549 567 549 567 479 c 0,10,11
 567 408 567 408 545 361.5 c 128,-1,12
 523 315 523 315 488.5 286.5 c 128,-1,13
 454 258 454 258 412 246.5 c 128,-1,14
 370 235 370 235 331 235 c 2,0,-1
303 600 m 2,15,-1
 197 600 l 1,16,-1
 197 344 l 1,17,-1
 313 344 l 2,18,19
 385 344 385 344 415.5 374.5 c 128,-1,20
 446 405 446 405 446 477 c 0,21,22
 446 510 446 510 439 533.5 c 128,-1,23
 432 557 432 557 415.5 572 c 128,-1,24
 399 587 399 587 371.5 593.5 c 128,-1,25
 344 600 344 600 303 600 c 2,15,-1
EndSplineSet
EndChar

StartChar: Q
Encoding: 81 81 50
Width: 764
Flags: W
LayerCount: 2
Back
Fore
SplineSet
723 74 m 1,0,-1
 656 -6 l 1,1,-1
 588 50 l 1,2,3
 500 -14 500 -14 382 -14 c 0,4,5
 307 -14 307 -14 243.5 12 c 128,-1,6
 180 38 180 38 134 86 c 128,-1,7
 88 134 88 134 62.5 201 c 128,-1,8
 37 268 37 268 37 350 c 256,9,10
 37 432 37 432 62.5 499 c 128,-1,11
 88 566 88 566 134 614 c 128,-1,12
 180 662 180 662 243.5 688 c 128,-1,13
 307 714 307 714 382 714 c 0,14,15
 458 714 458 714 521 687.5 c 128,-1,16
 584 661 584 661 630 613 c 128,-1,17
 676 565 676 565 701.5 498 c 128,-1,18
 727 431 727 431 727 350 c 0,19,20
 727 221 727 221 661 124 c 1,21,-1
 723 74 l 1,0,-1
382 603 m 256,22,23
 329 603 329 603 289 584.5 c 128,-1,24
 249 566 249 566 221.5 532 c 128,-1,25
 194 498 194 498 180 451.5 c 128,-1,26
 166 405 166 405 166 350 c 0,27,28
 166 294 166 294 180 248 c 128,-1,29
 194 202 194 202 221.5 168 c 128,-1,30
 249 134 249 134 289 115.5 c 128,-1,31
 329 97 329 97 382 97 c 0,32,33
 451 97 451 97 498 126 c 1,34,-1
 408 201 l 1,35,-1
 474 281 l 1,36,-1
 568 201 l 1,37,38
 601 261 601 261 601 350 c 0,39,40
 601 405 601 405 586.5 451.5 c 128,-1,41
 572 498 572 498 544.5 532 c 128,-1,42
 517 566 517 566 476 584.5 c 128,-1,43
 435 603 435 603 382 603 c 256,22,23
EndSplineSet
EndChar

StartChar: R
Encoding: 82 82 51
Width: 619
Flags: W
LayerCount: 2
Back
Fore
SplineSet
604 0 m 1,0,-1
 481 0 l 1,1,-1
 333 264 l 1,2,-1
 197 264 l 1,3,-1
 197 0 l 1,4,-1
 78 0 l 1,5,-1
 78 700 l 1,6,-1
 325 700 l 2,7,8
 566 700 566 700 566 497 c 0,9,10
 566 364 566 364 445 295 c 1,11,-1
 604 0 l 1,0,-1
305 602 m 2,12,-1
 197 602 l 1,13,-1
 197 375 l 1,14,-1
 309 375 l 2,15,16
 443 375 443 375 443 491 c 0,17,18
 443 546 443 546 411.5 574 c 128,-1,19
 380 602 380 602 305 602 c 2,12,-1
EndSplineSet
EndChar

StartChar: S
Encoding: 83 83 52
Width: 583
Flags: W
LayerCount: 2
Back
Fore
SplineSet
280 -14 m 0,0,1
 205 -14 205 -14 144 0 c 128,-1,2
 83 14 83 14 49 35 c 1,3,-1
 64 170 l 1,4,5
 98 139 98 139 154.5 118 c 128,-1,6
 211 97 211 97 283 97 c 0,7,8
 421 97 421 97 421 183 c 0,9,10
 421 215 421 215 401.5 237.5 c 128,-1,11
 382 260 382 260 355 275 c 128,-1,12
 328 290 328 290 299.5 298.5 c 128,-1,13
 271 307 271 307 253 313 c 0,14,15
 214 325 214 325 175.5 339 c 128,-1,16
 137 353 137 353 106.5 374 c 128,-1,17
 76 395 76 395 57.5 426.5 c 128,-1,18
 39 458 39 458 39 506 c 0,19,20
 39 541 39 541 52 578 c 128,-1,21
 65 615 65 615 94.5 645 c 128,-1,22
 124 675 124 675 172.5 694.5 c 128,-1,23
 221 714 221 714 292 714 c 0,24,25
 324 714 324 714 357 709.5 c 128,-1,26
 390 705 390 705 420 697.5 c 128,-1,27
 450 690 450 690 474.5 680.5 c 128,-1,28
 499 671 499 671 514 662 c 1,29,-1
 502 540 l 1,30,31
 383 603 383 603 298 603 c 0,32,33
 272 603 272 603 247.5 598.5 c 128,-1,34
 223 594 223 594 204 584 c 128,-1,35
 185 574 185 574 173 558 c 128,-1,36
 161 542 161 542 161 520 c 0,37,38
 161 489 161 489 180.5 471 c 128,-1,39
 200 453 200 453 234.5 439.5 c 128,-1,40
 269 426 269 426 316 412 c 128,-1,41
 363 398 363 398 418 374 c 0,42,43
 439 366 439 366 462.5 351.5 c 128,-1,44
 486 337 486 337 506 315.5 c 128,-1,45
 526 294 526 294 539 265 c 128,-1,46
 552 236 552 236 552 198 c 0,47,48
 552 168 552 168 544.5 131 c 128,-1,49
 537 94 537 94 509.5 61.5 c 128,-1,50
 482 29 482 29 428 7.5 c 128,-1,51
 374 -14 374 -14 280 -14 c 0,0,1
EndSplineSet
EndChar

StartChar: T
Encoding: 84 84 53
Width: 554
Flags: W
LayerCount: 2
Back
Fore
SplineSet
536 588 m 1,0,-1
 336 588 l 1,1,-1
 336 0 l 1,2,-1
 218 0 l 1,3,-1
 218 588 l 1,4,-1
 18 588 l 1,5,-1
 18 700 l 1,6,-1
 536 700 l 1,7,-1
 536 588 l 1,0,-1
EndSplineSet
EndChar

StartChar: U
Encoding: 85 85 54
Width: 720
Flags: W
LayerCount: 2
Back
Fore
SplineSet
70 299 m 2,0,-1
 70 700 l 1,1,-1
 188 700 l 1,2,-1
 188 343 l 2,3,4
 188 291 188 291 195 246 c 128,-1,5
 202 201 202 201 221 168 c 128,-1,6
 240 135 240 135 273.5 116 c 128,-1,7
 307 97 307 97 360 97 c 256,8,9
 413 97 413 97 446.5 116 c 128,-1,10
 480 135 480 135 499 168.5 c 128,-1,11
 518 202 518 202 525 247 c 128,-1,12
 532 292 532 292 532 343 c 2,13,-1
 532 700 l 1,14,-1
 650 700 l 1,15,-1
 650 299 l 2,16,17
 650 152 650 152 577 69 c 128,-1,18
 504 -14 504 -14 360 -14 c 256,19,20
 216 -14 216 -14 143 69 c 128,-1,21
 70 152 70 152 70 299 c 2,0,-1
EndSplineSet
EndChar

StartChar: V
Encoding: 86 86 55
Width: 655
Flags: W
LayerCount: 2
Back
Fore
SplineSet
651 700 m 1,0,-1
 398 0 l 1,1,-1
 259 0 l 1,2,-1
 2 700 l 1,3,-1
 125 700 l 1,4,-1
 328 150 l 1,5,-1
 528 700 l 1,6,-1
 651 700 l 1,0,-1
EndSplineSet
EndChar

StartChar: W
Encoding: 87 87 56
Width: 967
Flags: W
LayerCount: 2
Back
Fore
SplineSet
959 700 m 1,0,-1
 754 0 l 1,1,-1
 643 0 l 1,2,-1
 485 500 l 1,3,-1
 325 0 l 1,4,-1
 209 0 l 1,5,-1
 12 700 l 1,6,-1
 135 700 l 1,7,-1
 279 173 l 1,8,-1
 441 696 l 1,9,-1
 529 696 l 1,10,-1
 696 183 l 1,11,-1
 836 700 l 1,12,-1
 959 700 l 1,0,-1
EndSplineSet
EndChar

StartChar: X
Encoding: 88 88 57
Width: 620
Flags: W
LayerCount: 2
Back
Fore
SplineSet
619 0 m 1,0,-1
 486 0 l 1,1,-1
 306 266 l 1,2,-1
 135 0 l 1,3,-1
 3 0 l 1,4,-1
 246 349 l 1,5,-1
 10 700 l 1,6,-1
 146 700 l 1,7,-1
 314 446 l 1,8,-1
 476 700 l 1,9,-1
 609 700 l 1,10,-1
 373 362 l 1,11,-1
 619 0 l 1,0,-1
EndSplineSet
EndChar

StartChar: Y
Encoding: 89 89 58
Width: 589
Flags: W
LayerCount: 2
Back
Fore
SplineSet
594 700 m 1,0,-1
 354 314 l 1,1,-1
 354 0 l 1,2,-1
 235 0 l 1,3,-1
 235 314 l 1,4,-1
 -6 700 l 1,5,-1
 119 700 l 1,6,-1
 294 419 l 1,7,-1
 469 700 l 1,8,-1
 594 700 l 1,0,-1
EndSplineSet
EndChar

StartChar: Z
Encoding: 90 90 59
Width: 550
Flags: W
LayerCount: 2
Back
Fore
SplineSet
542 700 m 1,0,-1
 203 112 l 1,1,-1
 497 112 l 1,2,-1
 497 0 l 1,3,-1
 9 0 l 1,4,-1
 348 588 l 1,5,-1
 54 588 l 1,6,-1
 54 700 l 1,7,-1
 542 700 l 1,0,-1
EndSplineSet
EndChar

StartChar: bracketleft
Encoding: 91 91 60
Width: 334
Flags: W
LayerCount: 2
Back
Fore
SplineSet
325 -136 m 1,0,-1
 68 -136 l 1,1,-1
 68 750 l 1,2,-1
 325 750 l 1,3,-1
 325 654 l 1,4,-1
 172 654 l 1,5,-1
 172 -39 l 1,6,-1
 325 -39 l 1,7,-1
 325 -136 l 1,0,-1
EndSplineSet
EndChar

StartChar: backslash
Encoding: 92 92 61
Width: 542
Flags: W
LayerCount: 2
Back
Fore
SplineSet
524 -85 m 1,0,-1
 402 -85 l 1,1,-1
 33 700 l 1,2,-1
 155 700 l 1,3,-1
 524 -85 l 1,0,-1
EndSplineSet
EndChar

StartChar: bracketright
Encoding: 93 93 62
Width: 334
Flags: W
LayerCount: 2
Back
Fore
SplineSet
9 748 m 1,0,-1
 266 748 l 1,1,-1
 266 -138 l 1,2,-1
 9 -138 l 1,3,-1
 9 -42 l 1,4,-1
 162 -42 l 1,5,-1
 162 651 l 1,6,-1
 9 651 l 1,7,-1
 9 748 l 1,0,-1
EndSplineSet
EndChar

StartChar: asciicircum
Encoding: 94 94 63
Width: 511
Flags: W
LayerCount: 2
Back
Fore
SplineSet
461 412 m 1,0,-1
 255 625 l 1,1,-1
 49 412 l 1,2,-1
 49 546 l 1,3,-1
 255 759 l 1,4,-1
 461 546 l 1,5,-1
 461 412 l 1,0,-1
EndSplineSet
EndChar

StartChar: underscore
Encoding: 95 95 64
Width: 562
Flags: W
LayerCount: 2
Back
Fore
SplineSet
561 -128 m 1,0,-1
 1 -128 l 1,1,-1
 1 -36 l 1,2,-1
 561 -36 l 1,3,-1
 561 -128 l 1,0,-1
EndSplineSet
EndChar

StartChar: grave
Encoding: 96 96 65
Width: 303
Flags: W
LayerCount: 2
Back
Fore
SplineSet
245 588 m 1,0,-1
 58 650 l 1,1,-1
 58 744 l 1,2,-1
 245 652 l 1,3,-1
 245 588 l 1,0,-1
EndSplineSet
EndChar

StartChar: a
Encoding: 97 97 66
Width: 493
Flags: W
LayerCount: 2
Back
Fore
SplineSet
482 83 m 1,0,-1
 471 -10 l 1,1,-1
 437 -10 l 2,2,3
 353 -10 353 -10 321 52 c 1,4,5
 267 -10 267 -10 169 -10 c 0,6,7
 137 -10 137 -10 110 0.5 c 128,-1,8
 83 11 83 11 63.5 30.5 c 128,-1,9
 44 50 44 50 33 77.5 c 128,-1,10
 22 105 22 105 22 138 c 0,11,12
 22 189 22 189 51.5 222.5 c 128,-1,13
 81 256 81 256 124 276.5 c 128,-1,14
 167 297 167 297 216.5 305.5 c 128,-1,15
 266 314 266 314 307 315 c 1,16,17
 306 366 306 366 284 386.5 c 128,-1,18
 262 407 262 407 211 407 c 0,19,20
 150 407 150 407 77 367 c 1,21,-1
 65 459 l 1,22,23
 151 506 151 506 242 506 c 0,24,25
 332 506 332 506 376.5 456.5 c 128,-1,26
 421 407 421 407 421 294 c 2,27,-1
 421 170 l 2,28,29
 421 142 421 142 422.5 125 c 128,-1,30
 424 108 424 108 429 98.5 c 128,-1,31
 434 89 434 89 443.5 86 c 128,-1,32
 453 83 453 83 469 83 c 2,33,-1
 482 83 l 1,0,-1
307 123 m 1,34,-1
 307 238 l 1,35,36
 232 235 232 235 186 211.5 c 128,-1,37
 140 188 140 188 140 143 c 0,38,39
 140 78 140 78 210 78 c 0,40,41
 234 78 234 78 261 90 c 128,-1,42
 288 102 288 102 307 123 c 1,34,-1
EndSplineSet
Substitution2: "'smcp' Lowercase to Small Capitals in Latin lookup 1 subtable" A.sc
Substitution2: "'aalt' Access All Alternates in Latin lookup 0 subtable" A.sc
EndChar

StartChar: b
Encoding: 98 98 67
Width: 569
Flags: W
LayerCount: 2
Back
Fore
SplineSet
301 -10 m 0,0,1
 224 -10 224 -10 169 39 c 1,2,-1
 165 0 l 1,3,-1
 60 0 l 1,4,-1
 60 750 l 1,5,-1
 173 750 l 1,6,-1
 173 463 l 1,7,8
 222 506 222 506 301 506 c 0,9,10
 355 506 355 506 399 486 c 128,-1,11
 443 466 443 466 474 431.5 c 128,-1,12
 505 397 505 397 522 349.5 c 128,-1,13
 539 302 539 302 539 248 c 256,14,15
 539 194 539 194 522.5 147 c 128,-1,16
 506 100 506 100 475 65 c 128,-1,17
 444 30 444 30 400 10 c 128,-1,18
 356 -10 356 -10 301 -10 c 0,0,1
292 410 m 0,19,20
 234 410 234 410 201 367 c 128,-1,21
 168 324 168 324 168 248 c 0,22,23
 168 170 168 170 201 127.5 c 128,-1,24
 234 85 234 85 292 85 c 0,25,26
 352 85 352 85 387.5 130.5 c 128,-1,27
 423 176 423 176 423 248 c 256,28,29
 423 320 423 320 388 365 c 128,-1,30
 353 410 353 410 292 410 c 0,19,20
EndSplineSet
Substitution2: "'smcp' Lowercase to Small Capitals in Latin lookup 1 subtable" B.sc
Substitution2: "'aalt' Access All Alternates in Latin lookup 0 subtable" B.sc
EndChar

StartChar: c
Encoding: 99 99 68
Width: 450
Flags: W
LayerCount: 2
Back
Fore
SplineSet
273 -10 m 0,0,1
 215 -10 215 -10 170 10 c 128,-1,2
 125 30 125 30 94 64.5 c 128,-1,3
 63 99 63 99 46.5 146 c 128,-1,4
 30 193 30 193 30 248 c 256,5,6
 30 303 30 303 46.5 350.5 c 128,-1,7
 63 398 63 398 94 432.5 c 128,-1,8
 125 467 125 467 170 486.5 c 128,-1,9
 215 506 215 506 273 506 c 0,10,11
 365 506 365 506 423 471 c 1,12,-1
 411 373 l 1,13,14
 350 410 350 410 283 410 c 0,15,16
 217 410 217 410 181.5 366.5 c 128,-1,17
 146 323 146 323 146 248 c 256,18,19
 146 173 146 173 181.5 129 c 128,-1,20
 217 85 217 85 283 85 c 0,21,22
 350 85 350 85 412 122 c 1,23,-1
 423 27 l 1,24,25
 367 -10 367 -10 273 -10 c 0,0,1
EndSplineSet
Substitution2: "'smcp' Lowercase to Small Capitals in Latin lookup 1 subtable" C.sc
Substitution2: "'aalt' Access All Alternates in Latin lookup 0 subtable" C.sc
EndChar

StartChar: d
Encoding: 100 100 69
Width: 569
Flags: W
LayerCount: 2
Back
Fore
SplineSet
509 0 m 1,0,-1
 403 0 l 1,1,-1
 399 39 l 1,2,3
 344 -10 344 -10 268 -10 c 0,4,5
 213 -10 213 -10 169 10 c 128,-1,6
 125 30 125 30 94 65 c 128,-1,7
 63 100 63 100 46.5 147 c 128,-1,8
 30 194 30 194 30 248 c 256,9,10
 30 302 30 302 47 349.5 c 128,-1,11
 64 397 64 397 95 431.5 c 128,-1,12
 126 466 126 466 170 486 c 128,-1,13
 214 506 214 506 268 506 c 0,14,15
 346 506 346 506 395 463 c 1,16,-1
 395 750 l 1,17,-1
 509 750 l 1,18,-1
 509 0 l 1,0,-1
276 410 m 0,19,20
 216 410 216 410 181 365.5 c 128,-1,21
 146 321 146 321 146 248 c 0,22,23
 146 176 146 176 181 130.5 c 128,-1,24
 216 85 216 85 276 85 c 0,25,26
 334 85 334 85 368.5 128 c 128,-1,27
 403 171 403 171 403 247 c 0,28,29
 403 322 403 322 368.5 366 c 128,-1,30
 334 410 334 410 276 410 c 0,19,20
EndSplineSet
Substitution2: "'smcp' Lowercase to Small Capitals in Latin lookup 1 subtable" D.sc
Substitution2: "'aalt' Access All Alternates in Latin lookup 0 subtable" D.sc
EndChar

StartChar: e
Encoding: 101 101 70
Width: 514
Flags: W
LayerCount: 2
Back
Fore
SplineSet
479 230 m 1,0,-1
 146 230 l 1,1,2
 156 155 156 155 200.5 120 c 128,-1,3
 245 85 245 85 306 85 c 0,4,5
 383 85 383 85 456 122 c 1,6,-1
 464 28 l 1,7,8
 386 -10 386 -10 298 -10 c 0,9,10
 234 -10 234 -10 184 9.5 c 128,-1,11
 134 29 134 29 99.5 64 c 128,-1,12
 65 99 65 99 47 146 c 128,-1,13
 29 193 29 193 29 249 c 0,14,15
 29 303 29 303 45.5 349.5 c 128,-1,16
 62 396 62 396 93.5 431 c 128,-1,17
 125 466 125 466 169 486 c 128,-1,18
 213 506 213 506 269 506 c 0,19,20
 316 506 316 506 355.5 490.5 c 128,-1,21
 395 475 395 475 424 447 c 128,-1,22
 453 419 453 419 469.5 379.5 c 128,-1,23
 486 340 486 340 486 292 c 0,24,25
 486 280 486 280 484.5 264.5 c 128,-1,26
 483 249 483 249 479 230 c 1,0,-1
271 410 m 0,27,28
 173 410 173 410 151 307 c 1,29,-1
 370 307 l 1,30,31
 370 350 370 350 346 380 c 128,-1,32
 322 410 322 410 271 410 c 0,27,28
EndSplineSet
Substitution2: "'smcp' Lowercase to Small Capitals in Latin lookup 1 subtable" E.sc
Substitution2: "'aalt' Access All Alternates in Latin lookup 0 subtable" E.sc
EndChar

StartChar: f
Encoding: 102 102 71
Width: 339
Flags: W
LayerCount: 2
Back
Fore
SplineSet
320 405 m 1,0,-1
 203 405 l 1,1,-1
 203 0 l 1,2,-1
 90 0 l 1,3,-1
 90 405 l 1,4,-1
 14 405 l 1,5,-1
 26 497 l 1,6,-1
 90 497 l 1,7,-1
 90 617 l 2,8,9
 90 645 90 645 98 669.5 c 128,-1,10
 106 694 106 694 121 712 c 128,-1,11
 136 730 136 730 158 740 c 128,-1,12
 180 750 180 750 208 750 c 0,13,14
 233 750 233 750 260 748 c 128,-1,15
 287 746 287 746 317 742 c 1,16,-1
 306 647 l 1,17,18
 283 653 283 653 250 653 c 0,19,20
 235 653 235 653 226 649.5 c 128,-1,21
 217 646 217 646 211.5 636 c 128,-1,22
 206 626 206 626 204.5 608 c 128,-1,23
 203 590 203 590 203 562 c 2,24,-1
 203 497 l 1,25,-1
 320 497 l 1,26,-1
 320 405 l 1,0,-1
EndSplineSet
Substitution2: "'smcp' Lowercase to Small Capitals in Latin lookup 1 subtable" F.sc
Substitution2: "'aalt' Access All Alternates in Latin lookup 0 subtable" F.sc
EndChar

StartChar: g
Encoding: 103 103 72
Width: 500
Flags: W
LayerCount: 2
Back
Fore
SplineSet
259 -250 m 0,0,1
 201 -250 201 -250 157 -238 c 128,-1,2
 113 -226 113 -226 84 -205.5 c 128,-1,3
 55 -185 55 -185 40 -158.5 c 128,-1,4
 25 -132 25 -132 25 -102 c 0,5,6
 25 -29 25 -29 109 9 c 1,7,8
 62 35 62 35 62 78 c 0,9,10
 62 123 62 123 114 148 c 1,11,12
 35 203 35 203 35 309 c 0,13,14
 35 351 35 351 49 387.5 c 128,-1,15
 63 424 63 424 89 450 c 128,-1,16
 115 476 115 476 152.5 491 c 128,-1,17
 190 506 190 506 237 506 c 0,18,19
 304 506 304 506 354 474 c 1,20,21
 402 498 402 498 465 498 c 2,22,-1
 490 498 l 1,23,-1
 481 425 l 1,24,-1
 443 425 l 2,25,26
 426 425 426 425 405 422 c 1,27,28
 440 373 440 373 440 310 c 0,29,30
 440 270 440 270 426.5 234.5 c 128,-1,31
 413 199 413 199 387 172 c 128,-1,32
 361 145 361 145 323.5 129.5 c 128,-1,33
 286 114 286 114 239 114 c 0,34,35
 208 114 208 114 181 120 c 1,36,37
 166 112 166 112 166 100 c 0,38,39
 166 91 166 91 172.5 85 c 128,-1,40
 179 79 179 79 194 74 c 128,-1,41
 209 69 209 69 234.5 64.5 c 128,-1,42
 260 60 260 60 299 55 c 0,43,44
 332 50 332 50 367 42 c 128,-1,45
 402 34 402 34 431 18 c 128,-1,46
 460 2 460 2 479 -24 c 128,-1,47
 498 -50 498 -50 500 -91 c 0,48,49
 500 -163 500 -163 437 -206.5 c 128,-1,50
 374 -250 374 -250 259 -250 c 0,0,1
237 420 m 256,51,52
 189 420 189 420 163.5 390 c 128,-1,53
 138 360 138 360 138 309 c 256,54,55
 138 258 138 258 164 228 c 128,-1,56
 190 198 190 198 238 198 c 256,57,58
 286 198 286 198 311.5 228.5 c 128,-1,59
 337 259 337 259 337 310 c 256,60,61
 337 361 337 361 311 390.5 c 128,-1,62
 285 420 285 420 237 420 c 256,51,52
264 -29 m 2,63,-1
 195 -19 l 1,64,65
 163 -29 163 -29 143 -48 c 128,-1,66
 123 -67 123 -67 123 -93 c 0,67,68
 123 -127 123 -127 158 -147.5 c 128,-1,69
 193 -168 193 -168 256 -168 c 256,70,71
 319 -168 319 -168 357.5 -148 c 128,-1,72
 396 -128 396 -128 396 -96 c 0,73,74
 396 -67 396 -67 362 -52.5 c 128,-1,75
 328 -38 328 -38 264 -29 c 2,63,-1
EndSplineSet
Substitution2: "'smcp' Lowercase to Small Capitals in Latin lookup 1 subtable" G.sc
Substitution2: "'aalt' Access All Alternates in Latin lookup 0 subtable" G.sc
EndChar

StartChar: h
Encoding: 104 104 73
Width: 550
Flags: W
LayerCount: 2
Back
Fore
SplineSet
496 0 m 1,0,-1
 383 0 l 1,1,-1
 383 267 l 2,2,3
 383 342 383 342 359 376 c 128,-1,4
 335 410 335 410 278 410 c 0,5,6
 210 410 210 410 173 361 c 1,7,-1
 173 0 l 1,8,-1
 60 0 l 1,9,-1
 60 750 l 1,10,-1
 173 750 l 1,11,-1
 173 462 l 1,12,13
 225 506 225 506 289 506 c 0,14,15
 496 506 496 506 496 267 c 2,16,-1
 496 0 l 1,0,-1
EndSplineSet
Substitution2: "'smcp' Lowercase to Small Capitals in Latin lookup 1 subtable" H.sc
Substitution2: "'aalt' Access All Alternates in Latin lookup 0 subtable" H.sc
EndChar

StartChar: i
Encoding: 105 105 74
Width: 234
Flags: W
LayerCount: 2
Back
Fore
SplineSet
174 583 m 1,0,-1
 60 583 l 1,1,-1
 60 700 l 1,2,-1
 174 700 l 1,3,-1
 174 583 l 1,0,-1
174 0 m 1,4,-1
 60 0 l 1,5,-1
 60 497 l 1,6,-1
 174 497 l 1,7,-1
 174 0 l 1,4,-1
EndSplineSet
Substitution2: "'smcp' Lowercase to Small Capitals in Latin lookup 1 subtable" I.sc
Substitution2: "'aalt' Access All Alternates in Latin lookup 0 subtable" I.sc
EndChar

StartChar: j
Encoding: 106 106 75
Width: 234
Flags: W
LayerCount: 2
Back
Fore
SplineSet
47 -240 m 2,0,-1
 7 -240 l 1,1,-1
 -4 -150 l 1,2,3
 17 -149 17 -149 30 -146.5 c 128,-1,4
 43 -144 43 -144 49.5 -135.5 c 128,-1,5
 56 -127 56 -127 58 -110 c 128,-1,6
 60 -93 60 -93 60 -64 c 2,7,-1
 60 497 l 1,8,-1
 174 497 l 1,9,-1
 174 -110 l 2,10,11
 174 -170 174 -170 139.5 -204 c 128,-1,12
 105 -238 105 -238 47 -240 c 2,0,-1
174 583 m 1,13,-1
 60 583 l 1,14,-1
 60 700 l 1,15,-1
 174 700 l 1,16,-1
 174 583 l 1,13,-1
EndSplineSet
Substitution2: "'smcp' Lowercase to Small Capitals in Latin lookup 1 subtable" J.sc
Substitution2: "'aalt' Access All Alternates in Latin lookup 0 subtable" J.sc
EndChar

StartChar: k
Encoding: 107 107 76
Width: 477
Flags: W
LayerCount: 2
Back
Fore
SplineSet
174 0 m 1,0,-1
 60 0 l 1,1,-1
 60 750 l 1,2,-1
 174 750 l 1,3,-1
 174 287 l 1,4,-1
 339 497 l 1,5,-1
 470 497 l 1,6,-1
 281 261 l 1,7,-1
 471 0 l 1,8,-1
 341 0 l 1,9,-1
 174 230 l 1,10,-1
 174 0 l 1,0,-1
EndSplineSet
Substitution2: "'smcp' Lowercase to Small Capitals in Latin lookup 1 subtable" K.sc
Substitution2: "'aalt' Access All Alternates in Latin lookup 0 subtable" K.sc
EndChar

StartChar: l
Encoding: 108 108 77
Width: 258
Flags: W
LayerCount: 2
Back
Fore
SplineSet
238 83 m 1,0,-1
 227 -10 l 1,1,-1
 187 -10 l 2,2,3
 123 -10 123 -10 91 26 c 128,-1,4
 59 62 59 62 59 117 c 2,5,-1
 59 750 l 1,6,-1
 173 750 l 1,7,-1
 173 168 l 2,8,9
 173 138 173 138 175 121 c 128,-1,10
 177 104 177 104 183.5 95.5 c 128,-1,11
 190 87 190 87 203 85 c 128,-1,12
 216 83 216 83 238 83 c 1,0,-1
EndSplineSet
Substitution2: "'smcp' Lowercase to Small Capitals in Latin lookup 1 subtable" L.sc
Substitution2: "'aalt' Access All Alternates in Latin lookup 0 subtable" L.sc
EndChar

StartChar: m
Encoding: 109 109 78
Width: 871
Flags: W
LayerCount: 2
Back
Fore
SplineSet
817 0 m 1,0,-1
 703 0 l 1,1,-1
 703 275 l 2,2,3
 703 345 703 345 680 377.5 c 128,-1,4
 657 410 657 410 603 410 c 0,5,6
 495 410 495 410 495 301 c 2,7,-1
 495 0 l 1,8,-1
 382 0 l 1,9,-1
 382 269 l 2,10,11
 382 350 382 350 357 380 c 128,-1,12
 332 410 332 410 277 410 c 0,13,14
 207 410 207 410 173 362 c 1,15,-1
 173 0 l 1,16,-1
 60 0 l 1,17,-1
 60 497 l 1,18,-1
 152 497 l 1,19,-1
 160 454 l 1,20,21
 219 506 219 506 294 506 c 0,22,23
 398 506 398 506 451 423 c 1,24,25
 469 457 469 457 513.5 481.5 c 128,-1,26
 558 506 558 506 621 506 c 0,27,28
 718 506 718 506 767.5 445 c 128,-1,29
 817 384 817 384 817 275 c 2,30,-1
 817 0 l 1,0,-1
EndSplineSet
Substitution2: "'smcp' Lowercase to Small Capitals in Latin lookup 1 subtable" M.sc
Substitution2: "'aalt' Access All Alternates in Latin lookup 0 subtable" M.sc
EndChar

StartChar: n
Encoding: 110 110 79
Width: 555
Flags: W
LayerCount: 2
Back
Fore
SplineSet
501 0 m 1,0,-1
 388 0 l 1,1,-1
 388 269 l 2,2,3
 388 342 388 342 362.5 376 c 128,-1,4
 337 410 337 410 280 410 c 0,5,6
 210 410 210 410 173 361 c 1,7,-1
 173 0 l 1,8,-1
 60 0 l 1,9,-1
 60 497 l 1,10,-1
 162 497 l 1,11,-1
 166 460 l 1,12,13
 224 506 224 506 292 506 c 0,14,15
 501 506 501 506 501 269 c 2,16,-1
 501 0 l 1,0,-1
EndSplineSet
Substitution2: "'smcp' Lowercase to Small Capitals in Latin lookup 1 subtable" N.sc
Substitution2: "'aalt' Access All Alternates in Latin lookup 0 subtable" N.sc
EndChar

StartChar: o
Encoding: 111 111 80
Width: 558
Flags: W
LayerCount: 2
Back
Fore
SplineSet
29 248 m 0,0,1
 29 302 29 302 46.5 349.5 c 128,-1,2
 64 397 64 397 96.5 431.5 c 128,-1,3
 129 466 129 466 175.5 486 c 128,-1,4
 222 506 222 506 279 506 c 256,5,6
 336 506 336 506 382 486 c 128,-1,7
 428 466 428 466 460.5 431 c 128,-1,8
 493 396 493 396 511 349 c 128,-1,9
 529 302 529 302 529 248 c 256,10,11
 529 194 529 194 511.5 147 c 128,-1,12
 494 100 494 100 461.5 65 c 128,-1,13
 429 30 429 30 382.5 10 c 128,-1,14
 336 -10 336 -10 279 -10 c 0,15,16
 221 -10 221 -10 175 10 c 128,-1,17
 129 30 129 30 96.5 64.5 c 128,-1,18
 64 99 64 99 46.5 146 c 128,-1,19
 29 193 29 193 29 248 c 0,0,1
145 248 m 256,20,21
 145 173 145 173 180.5 129 c 128,-1,22
 216 85 216 85 279 85 c 256,23,24
 342 85 342 85 377.5 129 c 128,-1,25
 413 173 413 173 413 248 c 256,26,27
 413 323 413 323 377.5 366.5 c 128,-1,28
 342 410 342 410 279 410 c 256,29,30
 216 410 216 410 180.5 366.5 c 128,-1,31
 145 323 145 323 145 248 c 256,20,21
EndSplineSet
Substitution2: "'smcp' Lowercase to Small Capitals in Latin lookup 1 subtable" O.sc
Substitution2: "'aalt' Access All Alternates in Latin lookup 0 subtable" O.sc
EndChar

StartChar: p
Encoding: 112 112 81
Width: 569
Flags: W
LayerCount: 2
Back
Fore
SplineSet
302 -10 m 0,0,1
 226 -10 226 -10 173 36 c 1,2,-1
 173 -242 l 1,3,-1
 60 -242 l 1,4,-1
 60 497 l 1,5,-1
 156 497 l 1,6,-1
 166 455 l 1,7,8
 224 506 224 506 302 506 c 0,9,10
 357 506 357 506 400.5 486 c 128,-1,11
 444 466 444 466 475 431 c 128,-1,12
 506 396 506 396 522.5 349 c 128,-1,13
 539 302 539 302 539 248 c 256,14,15
 539 194 539 194 523 146.5 c 128,-1,16
 507 99 507 99 477 64.5 c 128,-1,17
 447 30 447 30 403 10 c 128,-1,18
 359 -10 359 -10 302 -10 c 0,0,1
293 410 m 0,19,20
 235 410 235 410 201.5 367 c 128,-1,21
 168 324 168 324 168 248 c 0,22,23
 168 170 168 170 201.5 127.5 c 128,-1,24
 235 85 235 85 293 85 c 0,25,26
 353 85 353 85 388 130.5 c 128,-1,27
 423 176 423 176 423 248 c 0,28,29
 423 321 423 321 388 365.5 c 128,-1,30
 353 410 353 410 293 410 c 0,19,20
EndSplineSet
Substitution2: "'smcp' Lowercase to Small Capitals in Latin lookup 1 subtable" P.sc
Substitution2: "'aalt' Access All Alternates in Latin lookup 0 subtable" P.sc
EndChar

StartChar: q
Encoding: 113 113 82
Width: 569
Flags: W
LayerCount: 2
Back
Fore
SplineSet
267 -10 m 0,0,1
 210 -10 210 -10 166 9.5 c 128,-1,2
 122 29 122 29 92 63.5 c 128,-1,3
 62 98 62 98 46 145.5 c 128,-1,4
 30 193 30 193 30 248 c 256,5,6
 30 303 30 303 46.5 350 c 128,-1,7
 63 397 63 397 94 431.5 c 128,-1,8
 125 466 125 466 169 486 c 128,-1,9
 213 506 213 506 267 506 c 0,10,11
 344 506 344 506 403 455 c 1,12,-1
 413 497 l 1,13,-1
 509 497 l 1,14,-1
 509 -242 l 1,15,-1
 395 -242 l 1,16,-1
 395 36 l 1,17,18
 343 -10 343 -10 267 -10 c 0,0,1
276 410 m 0,19,20
 216 410 216 410 181 365.5 c 128,-1,21
 146 321 146 321 146 248 c 0,22,23
 146 176 146 176 181 130.5 c 128,-1,24
 216 85 216 85 276 85 c 0,25,26
 334 85 334 85 367.5 127.5 c 128,-1,27
 401 170 401 170 401 248 c 0,28,29
 401 324 401 324 367.5 367 c 128,-1,30
 334 410 334 410 276 410 c 0,19,20
EndSplineSet
Substitution2: "'smcp' Lowercase to Small Capitals in Latin lookup 1 subtable" Q.sc
Substitution2: "'aalt' Access All Alternates in Latin lookup 0 subtable" Q.sc
EndChar

StartChar: r
Encoding: 114 114 83
Width: 338
Flags: W
LayerCount: 2
Back
Fore
SplineSet
337 508 m 1,0,-1
 315 397 l 1,1,-1
 273 397 l 2,2,3
 243 397 243 397 215.5 381 c 128,-1,4
 188 365 188 365 176 343 c 1,5,-1
 176 0 l 1,6,-1
 60 0 l 1,7,-1
 60 497 l 1,8,-1
 163 497 l 1,9,-1
 169 435 l 1,10,11
 235 508 235 508 312 508 c 2,12,-1
 337 508 l 1,0,-1
EndSplineSet
Substitution2: "'smcp' Lowercase to Small Capitals in Latin lookup 1 subtable" R.sc
Substitution2: "'aalt' Access All Alternates in Latin lookup 0 subtable" R.sc
EndChar

StartChar: s
Encoding: 115 115 84
Width: 421
Flags: W
LayerCount: 2
Back
Fore
SplineSet
201 -10 m 0,0,1
 90 -10 90 -10 32 29 c 1,2,-1
 43 129 l 1,3,4
 55 120 55 120 72.5 111 c 128,-1,5
 90 102 90 102 110.5 95 c 128,-1,6
 131 88 131 88 153.5 83.5 c 128,-1,7
 176 79 176 79 197 79 c 0,8,9
 240 79 240 79 260 95 c 128,-1,10
 280 111 280 111 280 136 c 0,11,12
 280 160 280 160 258.5 176 c 128,-1,13
 237 192 237 192 206.5 204 c 128,-1,14
 176 216 176 216 143 226.5 c 128,-1,15
 110 237 110 237 88 250 c 0,16,17
 39 279 39 279 39 350 c 0,18,19
 39 380 39 380 49.5 408.5 c 128,-1,20
 60 437 60 437 82.5 458.5 c 128,-1,21
 105 480 105 480 139.5 493 c 128,-1,22
 174 506 174 506 222 506 c 0,23,24
 313 506 313 506 372 470 c 1,25,-1
 361 372 l 1,26,27
 305 422 305 422 229 422 c 0,28,29
 191 422 191 422 166.5 408 c 128,-1,30
 142 394 142 394 142 364 c 0,31,32
 142 344 142 344 151.5 332 c 128,-1,33
 161 320 161 320 177 312 c 128,-1,34
 193 304 193 304 213.5 299 c 128,-1,35
 234 294 234 294 256 288 c 0,36,37
 394 253 394 253 394 137 c 0,38,39
 394 113 394 113 387 87.5 c 128,-1,40
 380 62 380 62 359 40 c 128,-1,41
 338 18 338 18 300 4 c 128,-1,42
 262 -10 262 -10 201 -10 c 0,0,1
EndSplineSet
Substitution2: "'smcp' Lowercase to Small Capitals in Latin lookup 1 subtable" S.sc
Substitution2: "'aalt' Access All Alternates in Latin lookup 0 subtable" S.sc
EndChar

StartChar: t
Encoding: 116 116 85
Width: 342
Flags: W
LayerCount: 2
Back
Fore
SplineSet
319 83 m 1,0,-1
 309 -10 l 1,1,-1
 223 -10 l 2,2,3
 190 -10 190 -10 165 0 c 128,-1,4
 140 10 140 10 123.5 27 c 128,-1,5
 107 44 107 44 99 67 c 128,-1,6
 91 90 91 90 91 117 c 2,7,-1
 91 405 l 1,8,-1
 16 405 l 1,9,-1
 26 497 l 1,10,-1
 91 497 l 1,11,-1
 91 610 l 1,12,-1
 204 622 l 1,13,-1
 204 497 l 1,14,-1
 320 497 l 1,15,-1
 320 405 l 1,16,-1
 204 405 l 1,17,-1
 204 169 l 2,18,19
 204 138 204 138 206 120.5 c 128,-1,20
 208 103 208 103 216 95 c 128,-1,21
 224 87 224 87 241 85 c 128,-1,22
 258 83 258 83 288 83 c 2,23,-1
 319 83 l 1,0,-1
EndSplineSet
Substitution2: "'smcp' Lowercase to Small Capitals in Latin lookup 1 subtable" T.sc
Substitution2: "'aalt' Access All Alternates in Latin lookup 0 subtable" T.sc
EndChar

StartChar: u
Encoding: 117 117 86
Width: 544
Flags: W
LayerCount: 2
Back
Fore
SplineSet
484 0 m 1,0,-1
 380 0 l 1,1,-1
 375 37 l 1,2,3
 325 -10 325 -10 256 -10 c 0,4,5
 54 -10 54 -10 54 223 c 2,6,-1
 54 497 l 1,7,-1
 167 497 l 1,8,-1
 167 231 l 2,9,10
 167 156 167 156 192 121.5 c 128,-1,11
 217 87 217 87 271 87 c 0,12,13
 337 87 337 87 371 133 c 1,14,-1
 371 497 l 1,15,-1
 484 497 l 1,16,-1
 484 0 l 1,0,-1
EndSplineSet
Substitution2: "'smcp' Lowercase to Small Capitals in Latin lookup 1 subtable" U.sc
Substitution2: "'aalt' Access All Alternates in Latin lookup 0 subtable" U.sc
EndChar

StartChar: v
Encoding: 118 118 87
Width: 497
Flags: W
LayerCount: 2
Back
Fore
SplineSet
491 497 m 1,0,-1
 301 0 l 1,1,-1
 196 0 l 1,2,-1
 6 497 l 1,3,-1
 121 497 l 1,4,-1
 248 137 l 1,5,-1
 375 497 l 1,6,-1
 491 497 l 1,0,-1
EndSplineSet
Substitution2: "'smcp' Lowercase to Small Capitals in Latin lookup 1 subtable" V.sc
Substitution2: "'aalt' Access All Alternates in Latin lookup 0 subtable" V.sc
EndChar

StartChar: w
Encoding: 119 119 88
Width: 725
Flags: W
LayerCount: 2
Back
Fore
SplineSet
715 497 m 1,0,-1
 568 0 l 1,1,-1
 465 0 l 1,2,-1
 363 337 l 1,3,-1
 260 0 l 1,4,-1
 157 0 l 1,5,-1
 10 497 l 1,6,-1
 127 497 l 1,7,-1
 215 135 l 1,8,-1
 312 485 l 1,9,-1
 413 485 l 1,10,-1
 509 135 l 1,11,-1
 599 497 l 1,12,-1
 715 497 l 1,0,-1
EndSplineSet
Substitution2: "'smcp' Lowercase to Small Capitals in Latin lookup 1 subtable" W.sc
Substitution2: "'aalt' Access All Alternates in Latin lookup 0 subtable" W.sc
EndChar

StartChar: x
Encoding: 120 120 89
Width: 487
Flags: W
LayerCount: 2
Back
Fore
SplineSet
476 0 m 1,0,-1
 342 0 l 1,1,-1
 241 157 l 1,2,-1
 144 0 l 1,3,-1
 10 0 l 1,4,-1
 175 248 l 1,5,-1
 12 497 l 1,6,-1
 145 497 l 1,7,-1
 246 339 l 1,8,-1
 339 497 l 1,9,-1
 474 497 l 1,10,-1
 312 251 l 1,11,-1
 476 0 l 1,0,-1
EndSplineSet
Substitution2: "'smcp' Lowercase to Small Capitals in Latin lookup 1 subtable" X.sc
Substitution2: "'aalt' Access All Alternates in Latin lookup 0 subtable" X.sc
EndChar

StartChar: y
Encoding: 121 121 90
Width: 530
Flags: W
LayerCount: 2
Back
Fore
SplineSet
525 497 m 1,0,-1
 216 -242 l 1,1,-1
 99 -242 l 1,2,-1
 211 30 l 1,3,-1
 4 497 l 1,4,-1
 130 497 l 1,5,-1
 266 162 l 1,6,-1
 399 497 l 1,7,-1
 525 497 l 1,0,-1
EndSplineSet
Substitution2: "'smcp' Lowercase to Small Capitals in Latin lookup 1 subtable" Y.sc
Substitution2: "'aalt' Access All Alternates in Latin lookup 0 subtable" Y.sc
EndChar

StartChar: z
Encoding: 122 122 91
Width: 475
Flags: W
LayerCount: 2
Back
Fore
SplineSet
452 497 m 1,0,-1
 218 98 l 1,1,-1
 443 98 l 1,2,-1
 443 0 l 1,3,-1
 23 0 l 1,4,-1
 256 399 l 1,5,-1
 33 399 l 1,6,-1
 33 497 l 1,7,-1
 452 497 l 1,0,-1
EndSplineSet
Substitution2: "'smcp' Lowercase to Small Capitals in Latin lookup 1 subtable" Z.sc
Substitution2: "'aalt' Access All Alternates in Latin lookup 0 subtable" Z.sc
EndChar

StartChar: braceleft
Encoding: 123 123 92
Width: 316
Flags: W
LayerCount: 2
Back
Fore
SplineSet
88 24 m 0,0,1
 88 31 88 31 89 50.5 c 128,-1,2
 90 70 90 70 91.5 92.5 c 128,-1,3
 93 115 93 115 94.5 135 c 128,-1,4
 96 155 96 155 96 164 c 0,5,6
 96 218 96 218 79 250 c 128,-1,7
 62 282 62 282 17 307 c 1,8,9
 39 319 39 319 54 332.5 c 128,-1,10
 69 346 69 346 78.5 363 c 128,-1,11
 88 380 88 380 92 401.5 c 128,-1,12
 96 423 96 423 96 451 c 0,13,14
 96 460 96 460 94.5 480 c 128,-1,15
 93 500 93 500 91.5 522 c 128,-1,16
 90 544 90 544 89 563.5 c 128,-1,17
 88 583 88 583 88 590 c 0,18,19
 88 669 88 669 137.5 709 c 128,-1,20
 187 749 187 749 305 750 c 1,21,-1
 305 653 l 1,22,23
 257 653 257 653 231.5 646.5 c 128,-1,24
 206 640 206 640 194 623 c 128,-1,25
 182 606 182 606 180 577 c 128,-1,26
 178 548 178 548 178 503 c 0,27,28
 178 498 178 498 178.5 486 c 128,-1,29
 179 474 179 474 179.5 461.5 c 128,-1,30
 180 449 180 449 180.5 437 c 128,-1,31
 181 425 181 425 181 420 c 0,32,33
 181 383 181 383 169 356 c 128,-1,34
 157 329 157 329 120 307 c 1,35,36
 157 285 157 285 169 261.5 c 128,-1,37
 181 238 181 238 181 202 c 0,38,39
 181 196 181 196 180.5 184 c 128,-1,40
 180 172 180 172 179.5 158 c 128,-1,41
 179 144 179 144 178.5 131.5 c 128,-1,42
 178 119 178 119 178 112 c 2,43,-1
 178 56 l 2,44,45
 178 30 178 30 183 11.5 c 128,-1,46
 188 -7 188 -7 202 -18 c 128,-1,47
 216 -29 216 -29 240.5 -34 c 128,-1,48
 265 -39 265 -39 305 -39 c 1,49,-1
 305 -136 l 1,50,51
 188 -135 188 -135 138 -96 c 128,-1,52
 88 -57 88 -57 88 24 c 0,0,1
EndSplineSet
EndChar

StartChar: bar
Encoding: 124 124 93
Width: 232
Flags: W
LayerCount: 2
Back
Fore
SplineSet
164 -210 m 1,0,-1
 68 -210 l 1,1,-1
 68 750 l 1,2,-1
 164 750 l 1,3,-1
 164 -210 l 1,0,-1
EndSplineSet
EndChar

StartChar: braceright
Encoding: 125 125 94
Width: 316
Flags: W
LayerCount: 2
Back
Fore
SplineSet
226 24 m 0,0,1
 226 -57 226 -57 176.5 -96 c 128,-1,2
 127 -135 127 -135 11 -136 c 1,3,-1
 11 -39 l 1,4,5
 57 -39 57 -39 82.5 -33 c 128,-1,6
 108 -27 108 -27 120 -10.5 c 128,-1,7
 132 6 132 6 134.5 35.5 c 128,-1,8
 137 65 137 65 137 112 c 0,9,10
 137 119 137 119 136.5 131.5 c 128,-1,11
 136 144 136 144 135.5 158 c 128,-1,12
 135 172 135 172 134.5 184 c 128,-1,13
 134 196 134 196 134 202 c 0,14,15
 134 238 134 238 146 261.5 c 128,-1,16
 158 285 158 285 195 307 c 1,17,18
 158 329 158 329 146 356 c 128,-1,19
 134 383 134 383 134 420 c 0,20,21
 134 425 134 425 134.5 437 c 128,-1,22
 135 449 135 449 135.5 461.5 c 128,-1,23
 136 474 136 474 136.5 486 c 128,-1,24
 137 498 137 498 137 503 c 0,25,26
 137 546 137 546 135.5 575 c 128,-1,27
 134 604 134 604 122.5 621.5 c 128,-1,28
 111 639 111 639 85.5 646 c 128,-1,29
 60 653 60 653 11 653 c 1,30,-1
 11 750 l 1,31,32
 70 750 70 750 111 739.5 c 128,-1,33
 152 729 152 729 177.5 709 c 128,-1,34
 203 689 203 689 214.5 659 c 128,-1,35
 226 629 226 629 226 590 c 0,36,37
 226 583 226 583 225 563.5 c 128,-1,38
 224 544 224 544 223 522 c 128,-1,39
 222 500 222 500 221 480 c 128,-1,40
 220 460 220 460 220 451 c 0,41,42
 220 423 220 423 224 401.5 c 128,-1,43
 228 380 228 380 237.5 363 c 128,-1,44
 247 346 247 346 262 332.5 c 128,-1,45
 277 319 277 319 299 307 c 1,46,47
 254 282 254 282 237 250 c 128,-1,48
 220 218 220 218 220 164 c 0,49,50
 220 155 220 155 221 135 c 128,-1,51
 222 115 222 115 223 92.5 c 128,-1,52
 224 70 224 70 225 50.5 c 128,-1,53
 226 31 226 31 226 24 c 0,0,1
EndSplineSet
EndChar

StartChar: asciitilde
Encoding: 126 126 95
Width: 463
Flags: W
LayerCount: 2
Back
Fore
SplineSet
300 177 m 0,0,1
 289 177 289 177 270 184 c 128,-1,2
 251 191 251 191 231 199.5 c 128,-1,3
 211 208 211 208 194.5 215 c 128,-1,4
 178 222 178 222 172 222 c 0,5,6
 131 222 131 222 116 174 c 1,7,-1
 48 191 l 1,8,9
 55 237 55 237 89.5 263 c 128,-1,10
 124 289 124 289 166 289 c 0,11,12
 178 289 178 289 197 282 c 128,-1,13
 216 275 216 275 234.5 267 c 128,-1,14
 253 259 253 259 269 252 c 128,-1,15
 285 245 285 245 291 245 c 0,16,17
 313 245 313 245 329 259 c 128,-1,18
 345 273 345 273 352 293 c 1,19,-1
 415 276 l 1,20,21
 406 234 406 234 375.5 205.5 c 128,-1,22
 345 177 345 177 300 177 c 0,0,1
EndSplineSet
EndChar

StartChar: exclamdown
Encoding: 161 161 97
Width: 242
Flags: W
LayerCount: 2
Back
Fore
SplineSet
59 -250 m 1,0,-1
 82 300 l 1,1,-1
 160 300 l 1,2,-1
 183 -250 l 1,3,-1
 59 -250 l 1,0,-1
65 500 m 1,4,-1
 177 500 l 1,5,-1
 177 388 l 1,6,-1
 65 388 l 1,7,-1
 65 500 l 1,4,-1
EndSplineSet
EndChar

StartChar: cent
Encoding: 162 162 98
Width: 475
Flags: W
LayerCount: 2
Back
Fore
SplineSet
321 -32 m 1,0,-1
 220 -32 l 1,1,-1
 236 90 l 1,2,3
 188 97 188 97 150.5 119 c 128,-1,4
 113 141 113 141 87 175 c 128,-1,5
 61 209 61 209 47 253 c 128,-1,6
 33 297 33 297 33 347 c 0,7,8
 33 396 33 396 46.5 439.5 c 128,-1,9
 60 483 60 483 86 517.5 c 128,-1,10
 112 552 112 552 149.5 575 c 128,-1,11
 187 598 187 598 236 605 c 1,12,-1
 220 748 l 1,13,-1
 321 748 l 1,14,-1
 305 607 l 1,15,16
 350 604 350 604 376.5 595 c 128,-1,17
 403 586 403 586 426 572 c 1,18,-1
 416 475 l 1,19,20
 354 513 354 513 292 513 c 0,21,22
 257 513 257 513 230.5 500.5 c 128,-1,23
 204 488 204 488 186 466 c 128,-1,24
 168 444 168 444 159 414 c 128,-1,25
 150 384 150 384 150 348 c 0,26,27
 150 274 150 274 186.5 228.5 c 128,-1,28
 223 183 223 183 292 183 c 0,29,30
 354 183 354 183 416 221 c 1,31,-1
 426 124 l 1,32,33
 406 111 406 111 380 101 c 128,-1,34
 354 91 354 91 309 88 c 1,35,-1
 321 -32 l 1,0,-1
EndSplineSet
EndChar

StartChar: sterling
Encoding: 163 163 99
Width: 519
Flags: W
LayerCount: 2
Back
Fore
SplineSet
422 557 m 1,0,1
 409 587 409 587 391 600 c 128,-1,2
 373 613 373 613 343 613 c 0,3,4
 315 613 315 613 299.5 605 c 128,-1,5
 284 597 284 597 276.5 580.5 c 128,-1,6
 269 564 269 564 267.5 539.5 c 128,-1,7
 266 515 266 515 266 482 c 2,8,-1
 266 403 l 1,9,-1
 453 403 l 1,10,-1
 432 305 l 1,11,-1
 260 305 l 1,12,13
 258 274 258 274 256 250.5 c 128,-1,14
 254 227 254 227 249.5 206 c 128,-1,15
 245 185 245 185 238 162.5 c 128,-1,16
 231 140 231 140 219 112 c 1,17,-1
 461 112 l 1,18,-1
 461 0 l 1,19,-1
 33 0 l 1,20,21
 89 70 89 70 113.5 142.5 c 128,-1,22
 138 215 138 215 146 305 c 1,23,-1
 56 305 l 1,24,-1
 77 403 l 1,25,-1
 152 403 l 1,26,-1
 152 503 l 2,27,28
 152 541 152 541 158.5 577.5 c 128,-1,29
 165 614 165 614 184.5 643 c 128,-1,30
 204 672 204 672 239.5 690 c 128,-1,31
 275 708 275 708 332 708 c 0,32,33
 394 708 394 708 438 685.5 c 128,-1,34
 482 663 482 663 495 617 c 1,35,-1
 422 557 l 1,0,1
EndSplineSet
EndChar

StartChar: currency
Encoding: 164 164 100
Width: 630
Flags: W
LayerCount: 2
Back
Fore
SplineSet
572 64 m 1,0,-1
 522 22 l 1,1,-1
 446 122 l 1,2,3
 385 91 385 91 315 91 c 0,4,5
 281 91 281 91 247.5 98.5 c 128,-1,6
 214 106 214 106 184 122 c 1,7,-1
 109 22 l 1,8,-1
 59 64 l 1,9,-1
 132 163 l 1,10,11
 62 236 62 236 62 348 c 0,12,13
 62 459 62 459 133 533 c 1,14,-1
 59 632 l 1,15,-1
 109 674 l 1,16,-1
 184 574 l 1,17,18
 247 605 247 605 315 605 c 0,19,20
 384 605 384 605 446 573 c 1,21,-1
 522 674 l 1,22,-1
 572 632 l 1,23,-1
 498 532 l 1,24,25
 568 459 568 459 568 348 c 0,26,27
 568 239 568 239 497 162 c 1,28,-1
 572 64 l 1,0,-1
415 469 m 0,29,30
 379 516 379 516 315 516 c 0,31,32
 283 516 283 516 257.5 503.5 c 128,-1,33
 232 491 232 491 214.5 469 c 128,-1,34
 197 447 197 447 187.5 416 c 128,-1,35
 178 385 178 385 178 348 c 0,36,37
 178 273 178 273 214 226.5 c 128,-1,38
 250 180 250 180 315 180 c 0,39,40
 348 180 348 180 373.5 192.5 c 128,-1,41
 399 205 399 205 416.5 227.5 c 128,-1,42
 434 250 434 250 443 280.5 c 128,-1,43
 452 311 452 311 452 348 c 0,44,45
 452 423 452 423 415 469 c 0,29,30
EndSplineSet
EndChar

StartChar: yen
Encoding: 165 165 101
Width: 695
Flags: W
LayerCount: 2
Back
Fore
SplineSet
420 330 m 1,0,-1
 577 330 l 1,1,-1
 552 266 l 1,2,-1
 407 266 l 1,3,-1
 407 205 l 1,4,-1
 577 205 l 1,5,-1
 552 140 l 1,6,-1
 407 140 l 1,7,-1
 407 0 l 1,8,-1
 289 0 l 1,9,-1
 289 140 l 1,10,-1
 120 140 l 1,11,-1
 144 205 l 1,12,-1
 289 205 l 1,13,-1
 289 266 l 1,14,-1
 120 266 l 1,15,-1
 143 330 l 1,16,-1
 276 330 l 1,17,-1
 28 700 l 1,18,-1
 148 700 l 1,19,-1
 348 414 l 1,20,-1
 548 700 l 1,21,-1
 668 700 l 1,22,-1
 420 330 l 1,0,-1
EndSplineSet
EndChar

StartChar: brokenbar
Encoding: 166 166 102
Width: 226
Flags: W
LayerCount: 2
Back
Fore
SplineSet
157 291 m 1,0,-1
 69 291 l 1,1,-1
 69 750 l 1,2,-1
 157 750 l 1,3,-1
 157 291 l 1,0,-1
157 -210 m 1,4,-1
 69 -210 l 1,5,-1
 69 182 l 1,6,-1
 157 182 l 1,7,-1
 157 -210 l 1,4,-1
EndSplineSet
EndChar

StartChar: section
Encoding: 167 167 103
Width: 460
Flags: W
LayerCount: 2
Back
Fore
SplineSet
329 187 m 1,0,1
 356 165 356 165 366.5 140 c 128,-1,2
 377 115 377 115 377 78 c 0,3,4
 377 45 377 45 367.5 15.5 c 128,-1,5
 358 -14 358 -14 337 -36.5 c 128,-1,6
 316 -59 316 -59 284 -72 c 128,-1,7
 252 -85 252 -85 207 -85 c 0,8,9
 188 -85 188 -85 166.5 -81.5 c 128,-1,10
 145 -78 145 -78 125.5 -72.5 c 128,-1,11
 106 -67 106 -67 89.5 -59.5 c 128,-1,12
 73 -52 73 -52 64 -44 c 1,13,-1
 75 48 l 1,14,15
 142 0 142 0 204 0 c 0,16,17
 298 0 298 0 298 66 c 0,18,19
 298 96 298 96 279 113 c 128,-1,20
 260 130 260 130 231 142.5 c 128,-1,21
 202 155 202 155 168.5 167 c 128,-1,22
 135 179 135 179 106 198.5 c 128,-1,23
 77 218 77 218 58 249 c 128,-1,24
 39 280 39 280 39 331 c 0,25,26
 39 444 39 444 131 479 c 1,27,28
 82 516 82 516 82 584 c 0,29,30
 82 618 82 618 91.5 648.5 c 128,-1,31
 101 679 101 679 122 701.5 c 128,-1,32
 143 724 143 724 175 737 c 128,-1,33
 207 750 207 750 252 750 c 0,34,35
 271 750 271 750 292.5 746.5 c 128,-1,36
 314 743 314 743 334 737.5 c 128,-1,37
 354 732 354 732 370.5 724.5 c 128,-1,38
 387 717 387 717 396 709 c 1,39,-1
 386 617 l 1,40,41
 318 665 318 665 256 665 c 0,42,43
 216 665 216 665 190 648 c 128,-1,44
 164 631 164 631 164 598 c 0,45,46
 164 569 164 569 183 552.5 c 128,-1,47
 202 536 202 536 230.5 523.5 c 128,-1,48
 259 511 259 511 292.5 498 c 128,-1,49
 326 485 326 485 354.5 465 c 128,-1,50
 383 445 383 445 402 414 c 128,-1,51
 421 383 421 383 421 332 c 0,52,53
 421 225 421 225 329 187 c 1,0,1
200 417 m 0,54,55
 189 417 189 417 176.5 412.5 c 128,-1,56
 164 408 164 408 152.5 399 c 128,-1,57
 141 390 141 390 133.5 377.5 c 128,-1,58
 126 365 126 365 126 350 c 0,59,60
 126 274 126 274 266 238 c 0,61,62
 278 239 278 239 290 246.5 c 128,-1,63
 302 254 302 254 311.5 265 c 128,-1,64
 321 276 321 276 327.5 289 c 128,-1,65
 334 302 334 302 334 315 c 0,66,67
 334 339 334 339 321.5 356 c 128,-1,68
 309 373 309 373 289.5 384.5 c 128,-1,69
 270 396 270 396 246.5 403.5 c 128,-1,70
 223 411 223 411 200 417 c 0,54,55
EndSplineSet
EndChar

StartChar: dieresis
Encoding: 168 168 104
Width: 422
Flags: W
LayerCount: 2
Back
Fore
SplineSet
335 596 m 1,0,-1
 246 596 l 1,1,-1
 246 700 l 1,2,-1
 335 700 l 1,3,-1
 335 596 l 1,0,-1
176 596 m 1,4,-1
 87 596 l 1,5,-1
 87 700 l 1,6,-1
 176 700 l 1,7,-1
 176 596 l 1,4,-1
EndSplineSet
EndChar

StartChar: copyright
Encoding: 169 169 105
Width: 701
Flags: W
LayerCount: 2
Back
Fore
SplineSet
40 365 m 0,0,1
 40 439 40 439 63.5 499.5 c 128,-1,2
 87 560 87 560 128.5 603 c 128,-1,3
 170 646 170 646 227 669.5 c 128,-1,4
 284 693 284 693 351 693 c 256,5,6
 418 693 418 693 475 669 c 128,-1,7
 532 645 532 645 573.5 602 c 128,-1,8
 615 559 615 559 638 498.5 c 128,-1,9
 661 438 661 438 661 365 c 256,10,11
 661 292 661 292 638 232 c 128,-1,12
 615 172 615 172 574 128.5 c 128,-1,13
 533 85 533 85 476 61 c 128,-1,14
 419 37 419 37 351 37 c 256,15,16
 283 37 283 37 226 61 c 128,-1,17
 169 85 169 85 127.5 128.5 c 128,-1,18
 86 172 86 172 63 232 c 128,-1,19
 40 292 40 292 40 365 c 0,0,1
530 557 m 256,20,21
 468 631 468 631 351 631 c 0,22,23
 292 631 292 631 247 611.5 c 128,-1,24
 202 592 202 592 171.5 557 c 128,-1,25
 141 522 141 522 125 473 c 128,-1,26
 109 424 109 424 109 365 c 256,27,28
 109 306 109 306 124.5 256.5 c 128,-1,29
 140 207 140 207 171 172 c 128,-1,30
 202 137 202 137 247 117.5 c 128,-1,31
 292 98 292 98 351 98 c 256,32,33
 410 98 410 98 455 117.5 c 128,-1,34
 500 137 500 137 530.5 172.5 c 128,-1,35
 561 208 561 208 576.5 257 c 128,-1,36
 592 306 592 306 592 365 c 0,37,38
 592 483 592 483 530 557 c 256,20,21
359 192 m 0,39,40
 323 192 323 192 293.5 204 c 128,-1,41
 264 216 264 216 242.5 238.5 c 128,-1,42
 221 261 221 261 209 292.5 c 128,-1,43
 197 324 197 324 197 363 c 256,44,45
 197 402 197 402 209.5 433.5 c 128,-1,46
 222 465 222 465 243.5 487.5 c 128,-1,47
 265 510 265 510 294.5 522.5 c 128,-1,48
 324 535 324 535 359 535 c 0,49,50
 410 535 410 535 458 513 c 1,51,-1
 449 436 l 1,52,53
 395 458 395 458 359 458 c 0,54,55
 322 458 322 458 301.5 433 c 128,-1,56
 281 408 281 408 281 363 c 0,57,58
 281 320 281 320 301.5 294 c 128,-1,59
 322 268 322 268 359 268 c 0,60,61
 398 268 398 268 449 292 c 1,62,-1
 458 216 l 1,63,64
 414 192 414 192 359 192 c 0,39,40
EndSplineSet
EndChar

StartChar: ordfeminine
Encoding: 170 170 106
Width: 359
Flags: W
LayerCount: 2
Back
Fore
SplineSet
322 512 m 1,0,-1
 317 434 l 1,1,-1
 268 434 l 2,2,3
 262 434 262 434 253.5 436 c 128,-1,4
 245 438 245 438 236.5 441.5 c 128,-1,5
 228 445 228 445 220.5 449 c 128,-1,6
 213 453 213 453 209 457 c 1,7,8
 184 434 184 434 116 434 c 0,9,10
 81 434 81 434 56.5 456.5 c 128,-1,11
 32 479 32 479 32 524 c 0,12,13
 32 553 32 553 51 572.5 c 128,-1,14
 70 592 70 592 96.5 603.5 c 128,-1,15
 123 615 123 615 150 620 c 128,-1,16
 177 625 177 625 194 626 c 1,17,18
 186 652 186 652 150 652 c 0,19,20
 133 652 133 652 63 635 c 1,21,-1
 57 710 l 1,22,23
 119 730 119 730 176 730 c 0,24,25
 224 730 224 730 256.5 706.5 c 128,-1,26
 289 683 289 683 289 640 c 2,27,-1
 289 541 l 2,28,29
 289 522 289 522 293.5 516.5 c 128,-1,30
 298 511 298 511 308 512 c 2,31,-1
 322 512 l 1,0,-1
195 507 m 1,32,-1
 195 565 l 1,33,34
 132 551 132 551 132 526 c 0,35,36
 132 502 132 502 167 502 c 0,37,38
 180 502 180 502 195 507 c 1,32,-1
EndSplineSet
EndChar

StartChar: guillemotleft
Encoding: 171 171 107
Width: 594
Flags: W
LayerCount: 2
Back
Fore
SplineSet
556 78 m 1,0,-1
 423 78 l 1,1,-1
 273 284 l 1,2,-1
 423 490 l 1,3,-1
 556 490 l 1,4,-1
 405 284 l 1,5,-1
 556 78 l 1,0,-1
295 78 m 1,6,-1
 163 78 l 1,7,-1
 13 284 l 1,8,-1
 163 490 l 1,9,-1
 295 490 l 1,10,-1
 145 284 l 1,11,-1
 295 78 l 1,6,-1
EndSplineSet
EndChar

StartChar: logicalnot
Encoding: 172 172 108
Width: 592
Flags: W
LayerCount: 2
Back
Fore
SplineSet
522 151 m 1,0,-1
 440 151 l 1,1,-1
 440 323 l 1,2,-1
 62 323 l 1,3,-1
 62 406 l 1,4,-1
 522 406 l 1,5,-1
 522 151 l 1,0,-1
EndSplineSet
EndChar

StartChar: uni00AD
Encoding: 173 173 109
Width: 420
Flags: W
LayerCount: 2
Back
Fore
SplineSet
365 230 m 1,0,-1
 55 230 l 1,1,-1
 55 324 l 1,2,-1
 365 324 l 1,3,-1
 365 230 l 1,0,-1
EndSplineSet
EndChar

StartChar: registered
Encoding: 174 174 110
Width: 701
Flags: W
LayerCount: 2
Back
Fore
SplineSet
40 365 m 0,0,1
 40 439 40 439 63.5 499.5 c 128,-1,2
 87 560 87 560 128.5 603 c 128,-1,3
 170 646 170 646 227 669.5 c 128,-1,4
 284 693 284 693 351 693 c 256,5,6
 418 693 418 693 475 669 c 128,-1,7
 532 645 532 645 573.5 602 c 128,-1,8
 615 559 615 559 638 498.5 c 128,-1,9
 661 438 661 438 661 365 c 256,10,11
 661 292 661 292 638 232 c 128,-1,12
 615 172 615 172 574 128.5 c 128,-1,13
 533 85 533 85 476 61 c 128,-1,14
 419 37 419 37 351 37 c 256,15,16
 283 37 283 37 226 61 c 128,-1,17
 169 85 169 85 127.5 128.5 c 128,-1,18
 86 172 86 172 63 232 c 128,-1,19
 40 292 40 292 40 365 c 0,0,1
110 365 m 0,20,21
 110 306 110 306 125.5 257.5 c 128,-1,22
 141 209 141 209 171.5 173.5 c 128,-1,23
 202 138 202 138 247 118.5 c 128,-1,24
 292 99 292 99 351 99 c 0,25,26
 409 99 409 99 454 118.5 c 128,-1,27
 499 138 499 138 529.5 173.5 c 128,-1,28
 560 209 560 209 575.5 257.5 c 128,-1,29
 591 306 591 306 591 365 c 0,30,31
 591 423 591 423 575.5 471.5 c 128,-1,32
 560 520 560 520 530 555.5 c 128,-1,33
 500 591 500 591 455 610.5 c 128,-1,34
 410 630 410 630 351 630 c 256,35,36
 292 630 292 630 247 610.5 c 128,-1,37
 202 591 202 591 171.5 556 c 128,-1,38
 141 521 141 521 125.5 472 c 128,-1,39
 110 423 110 423 110 365 c 0,20,21
492 205 m 1,40,-1
 409 205 l 1,41,-1
 346 319 l 1,42,-1
 308 319 l 1,43,-1
 308 205 l 1,44,-1
 228 205 l 1,45,-1
 228 536 l 1,46,-1
 352 536 l 2,47,48
 409 536 409 536 439 512.5 c 128,-1,49
 469 489 469 489 469 429 c 0,50,51
 469 374 469 374 419 342 c 1,52,-1
 492 205 l 1,40,-1
339 469 m 2,53,-1
 308 469 l 1,54,-1
 308 392 l 1,55,-1
 337 392 l 2,56,57
 365 392 365 392 375.5 402 c 128,-1,58
 386 412 386 412 386 431 c 256,59,60
 386 450 386 450 376.5 459.5 c 128,-1,61
 367 469 367 469 339 469 c 2,53,-1
EndSplineSet
EndChar

StartChar: degree
Encoding: 176 176 111
Width: 329
Flags: W
LayerCount: 2
Back
Fore
SplineSet
164 482 m 256,0,1
 134 482 134 482 109.5 492.5 c 128,-1,2
 85 503 85 503 68 521 c 128,-1,3
 51 539 51 539 41.5 564 c 128,-1,4
 32 589 32 589 32 618 c 256,5,6
 32 647 32 647 41.5 672 c 128,-1,7
 51 697 51 697 68 715.5 c 128,-1,8
 85 734 85 734 109.5 744.5 c 128,-1,9
 134 755 134 755 164 755 c 256,10,11
 194 755 194 755 219 744.5 c 128,-1,12
 244 734 244 734 261 715.5 c 128,-1,13
 278 697 278 697 287.5 672 c 128,-1,14
 297 647 297 647 297 618 c 256,15,16
 297 589 297 589 287.5 564 c 128,-1,17
 278 539 278 539 261 521 c 128,-1,18
 244 503 244 503 219 492.5 c 128,-1,19
 194 482 194 482 164 482 c 256,0,1
164 712 m 0,20,21
 131 712 131 712 112 686 c 128,-1,22
 93 660 93 660 93 618 c 256,23,24
 93 576 93 576 112 550.5 c 128,-1,25
 131 525 131 525 164 525 c 0,26,27
 199 525 199 525 217 550.5 c 128,-1,28
 235 576 235 576 235 618 c 256,29,30
 235 660 235 660 216.5 686 c 128,-1,31
 198 712 198 712 164 712 c 0,20,21
EndSplineSet
EndChar

StartChar: plusminus
Encoding: 177 177 112
Width: 492
Flags: W
LayerCount: 2
Back
Fore
SplineSet
431 315 m 1,0,-1
 288 315 l 1,1,-1
 288 182 l 1,2,-1
 204 182 l 1,3,-1
 204 315 l 1,4,-1
 61 315 l 1,5,-1
 61 401 l 1,6,-1
 204 401 l 1,7,-1
 204 532 l 1,8,-1
 288 532 l 1,9,-1
 288 401 l 1,10,-1
 431 401 l 1,11,-1
 431 315 l 1,0,-1
431 34 m 1,12,-1
 61 34 l 1,13,-1
 61 119 l 1,14,-1
 431 119 l 1,15,-1
 431 34 l 1,12,-1
EndSplineSet
EndChar

StartChar: uni00B2
Encoding: 178 178 113
Width: 309
Flags: W
LayerCount: 2
Back
Fore
SplineSet
276 320 m 1,0,-1
 20 320 l 1,1,2
 75 396 75 396 107 444.5 c 128,-1,3
 139 493 139 493 155 522.5 c 128,-1,4
 171 552 171 552 175 567 c 128,-1,5
 179 582 179 582 179 591 c 0,6,7
 179 637 179 637 136 637 c 0,8,9
 81 637 81 637 44 570 c 1,10,-1
 33 651 l 1,11,12
 46 674 46 674 76.5 690 c 128,-1,13
 107 706 107 706 152 706 c 0,14,15
 181 706 181 706 201.5 697.5 c 128,-1,16
 222 689 222 689 235.5 675.5 c 128,-1,17
 249 662 249 662 255.5 643.5 c 128,-1,18
 262 625 262 625 262 606 c 0,19,20
 262 540 262 540 174 410 c 1,21,-1
 276 410 l 1,22,-1
 276 320 l 1,0,-1
EndSplineSet
EndChar

StartChar: uni00B3
Encoding: 179 179 114
Width: 307
Flags: W
LayerCount: 2
Back
Fore
SplineSet
126 312 m 0,0,1
 109 312 109 312 91.5 315 c 128,-1,2
 74 318 74 318 58.5 322.5 c 128,-1,3
 43 327 43 327 32 332 c 128,-1,4
 21 337 21 337 18 342 c 1,5,-1
 40 425 l 2,6,7
 41 420 41 420 49.5 415.5 c 128,-1,8
 58 411 58 411 70 408 c 128,-1,9
 82 405 82 405 95.5 403 c 128,-1,10
 109 401 109 401 120 401 c 0,11,12
 190 401 190 401 190 433 c 0,13,14
 190 492 190 492 137 492 c 2,15,-1
 75 492 l 1,16,-1
 82 559 l 1,17,-1
 114 559 l 2,18,19
 145 559 145 559 159 570.5 c 128,-1,20
 173 582 173 582 173 595 c 0,21,22
 173 611 173 611 161 623.5 c 128,-1,23
 149 636 149 636 121 636 c 0,24,25
 75 636 75 636 56 620 c 1,26,-1
 44 681 l 1,27,28
 70 706 70 706 133 706 c 0,29,30
 169 706 169 706 193.5 697 c 128,-1,31
 218 688 218 688 233 673.5 c 128,-1,32
 248 659 248 659 254.5 640 c 128,-1,33
 261 621 261 621 261 602 c 0,34,35
 261 575 261 575 252.5 555 c 128,-1,36
 244 535 244 535 235 530 c 1,37,38
 246 519 246 519 261 498 c 128,-1,39
 276 477 276 477 276 439 c 0,40,41
 276 409 276 409 264 385.5 c 128,-1,42
 252 362 252 362 231.5 345.5 c 128,-1,43
 211 329 211 329 184 320.5 c 128,-1,44
 157 312 157 312 126 312 c 0,0,1
EndSplineSet
EndChar

StartChar: acute
Encoding: 180 180 115
Width: 303
Flags: W
LayerCount: 2
Back
Fore
SplineSet
245 650 m 1,0,-1
 58 588 l 1,1,-1
 58 652 l 1,2,-1
 245 744 l 1,3,-1
 245 650 l 1,0,-1
EndSplineSet
EndChar

StartChar: uni00B5
Encoding: 181 181 116
Width: 610
Flags: W
LayerCount: 2
Back
Fore
SplineSet
568 83 m 1,0,-1
 556 -10 l 1,1,-1
 517 -10 l 2,2,3
 441 -10 441 -10 409 49 c 1,4,5
 355 -9 355 -9 282 -9 c 0,6,7
 226 -9 226 -9 186 13 c 1,8,-1
 186 -242 l 1,9,-1
 73 -242 l 1,10,-1
 73 497 l 1,11,-1
 186 497 l 1,12,-1
 186 231 l 2,13,14
 186 156 186 156 210.5 121 c 128,-1,15
 235 86 235 86 292 86 c 0,16,17
 352 86 352 86 393 133 c 1,18,-1
 393 497 l 1,19,-1
 506 497 l 1,20,-1
 506 171 l 2,21,22
 506 144 506 144 508 127 c 128,-1,23
 510 110 510 110 515 100 c 128,-1,24
 520 90 520 90 528.5 86.5 c 128,-1,25
 537 83 537 83 551 83 c 2,26,-1
 568 83 l 1,0,-1
EndSplineSet
EndChar

StartChar: paragraph
Encoding: 182 182 117
Width: 624
Flags: W
LayerCount: 2
Back
Fore
SplineSet
580 605 m 1,0,-1
 509 605 l 1,1,-1
 509 0 l 1,2,-1
 434 0 l 1,3,-1
 434 605 l 1,4,-1
 359 605 l 1,5,-1
 359 0 l 1,6,-1
 299 0 l 1,7,-1
 299 233 l 1,8,9
 235 237 235 237 185.5 257.5 c 128,-1,10
 136 278 136 278 102 310 c 128,-1,11
 68 342 68 342 50.5 382.5 c 128,-1,12
 33 423 33 423 33 468 c 0,13,14
 33 514 33 514 52 556.5 c 128,-1,15
 71 599 71 599 108 630.5 c 128,-1,16
 145 662 145 662 198 681 c 128,-1,17
 251 700 251 700 320 700 c 2,18,-1
 580 700 l 1,19,-1
 580 605 l 1,0,-1
EndSplineSet
EndChar

StartChar: periodcentered
Encoding: 183 183 118
Width: 234
Flags: W
LayerCount: 2
Back
Fore
SplineSet
179 213 m 1,0,-1
 55 213 l 1,1,-1
 55 343 l 1,2,-1
 179 343 l 1,3,-1
 179 213 l 1,0,-1
EndSplineSet
EndChar

StartChar: cedilla
Encoding: 184 184 119
Width: 303
Flags: W
LayerCount: 2
Back
Fore
SplineSet
295 -53 m 1,0,-1
 199 -186 l 1,1,-1
 134 -193 l 1,2,-1
 203 -61 l 1,3,-1
 295 -53 l 1,0,-1
EndSplineSet
EndChar

StartChar: uni00B9
Encoding: 185 185 120
Width: 220
Flags: W
LayerCount: 2
Back
Fore
SplineSet
161 320 m 1,0,-1
 72 320 l 1,1,-1
 72 573 l 1,2,3
 65 571 65 571 54 570.5 c 128,-1,4
 43 570 43 570 29 569 c 1,5,-1
 26 639 l 1,6,7
 33 639 33 639 43 645 c 128,-1,8
 53 651 53 651 63 659.5 c 128,-1,9
 73 668 73 668 81 678.5 c 128,-1,10
 89 689 89 689 91 698 c 1,11,-1
 161 698 l 1,12,-1
 161 320 l 1,0,-1
EndSplineSet
EndChar

StartChar: ordmasculine
Encoding: 186 186 121
Width: 375
Flags: W
LayerCount: 2
Back
Fore
SplineSet
302 477 m 0,0,1
 260 434 260 434 188 434 c 0,2,3
 152 434 152 434 123 445.5 c 128,-1,4
 94 457 94 457 73 477 c 128,-1,5
 52 497 52 497 41 524 c 128,-1,6
 30 551 30 551 30 582 c 0,7,8
 30 612 30 612 41.5 639 c 128,-1,9
 53 666 53 666 73.5 686 c 128,-1,10
 94 706 94 706 123 718 c 128,-1,11
 152 730 152 730 188 730 c 256,12,13
 224 730 224 730 253 718 c 128,-1,14
 282 706 282 706 302.5 685.5 c 128,-1,15
 323 665 323 665 334 638.5 c 128,-1,16
 345 612 345 612 345 582 c 0,17,18
 345 520 345 520 302 477 c 0,0,1
232 636 m 0,19,20
 215 658 215 658 188 658 c 0,21,22
 160 658 160 658 143 635.5 c 128,-1,23
 126 613 126 613 126 582 c 256,24,25
 126 551 126 551 143 528.5 c 128,-1,26
 160 506 160 506 188 506 c 256,27,28
 216 506 216 506 232.5 529 c 128,-1,29
 249 552 249 552 249 582 c 0,30,31
 249 613 249 613 232 636 c 0,19,20
EndSplineSet
EndChar

StartChar: guillemotright
Encoding: 187 187 122
Width: 594
Flags: W
LayerCount: 2
Back
Fore
SplineSet
582 284 m 1,0,-1
 431 78 l 1,1,-1
 299 78 l 1,2,-1
 449 284 l 1,3,-1
 299 490 l 1,4,-1
 431 490 l 1,5,-1
 582 284 l 1,0,-1
322 284 m 1,6,-1
 172 78 l 1,7,-1
 39 78 l 1,8,-1
 190 284 l 1,9,-1
 39 490 l 1,10,-1
 172 490 l 1,11,-1
 322 284 l 1,6,-1
EndSplineSet
EndChar

StartChar: questiondown
Encoding: 191 191 126
Width: 442
Flags: W
LayerCount: 2
Back
Fore
SplineSet
210 300 m 1,0,-1
 286 300 l 1,1,2
 289 261 289 261 289 249 c 0,3,4
 289 202 289 202 268 164.5 c 128,-1,5
 247 127 247 127 222.5 92 c 128,-1,6
 198 57 198 57 177 20.5 c 128,-1,7
 156 -16 156 -16 156 -60 c 0,8,9
 156 -111 156 -111 187 -136.5 c 128,-1,10
 218 -162 218 -162 266 -162 c 0,11,12
 308 -162 308 -162 341 -142.5 c 128,-1,13
 374 -123 374 -123 392 -96 c 1,14,-1
 419 -180 l 1,15,16
 397 -214 397 -214 354 -232 c 128,-1,17
 311 -250 311 -250 259 -250 c 0,18,19
 206 -250 206 -250 166.5 -231.5 c 128,-1,20
 127 -213 127 -213 101 -185.5 c 128,-1,21
 75 -158 75 -158 62.5 -124.5 c 128,-1,22
 50 -91 50 -91 50 -61 c 0,23,24
 50 -15 50 -15 75 26 c 128,-1,25
 100 67 100 67 130 107.5 c 128,-1,26
 160 148 160 148 185 190.5 c 128,-1,27
 210 233 210 233 210 283 c 2,28,-1
 210 300 l 1,0,-1
191 500 m 1,29,-1
 304 500 l 1,30,-1
 304 388 l 1,31,-1
 191 388 l 1,32,-1
 191 500 l 1,29,-1
EndSplineSet
EndChar

StartChar: AE
Encoding: 198 198 133
Width: 868
Flags: W
LayerCount: 2
Back
Fore
SplineSet
832 0 m 1,0,-1
 396 0 l 1,1,-1
 396 172 l 1,2,-1
 196 172 l 1,3,-1
 111 0 l 1,4,-1
 -9 0 l 1,5,-1
 332 700 l 1,6,-1
 823 700 l 1,7,-1
 823 588 l 1,8,-1
 522 588 l 1,9,-1
 522 421 l 1,10,-1
 754 421 l 1,11,-1
 754 309 l 1,12,-1
 522 309 l 1,13,-1
 522 112 l 1,14,-1
 832 112 l 1,15,-1
 832 0 l 1,0,-1
396 286 m 1,16,-1
 396 585 l 1,17,-1
 250 286 l 1,18,-1
 396 286 l 1,16,-1
EndSplineSet
EndChar

StartChar: Eth
Encoding: 208 208 143
Width: 732
Flags: W
LayerCount: 2
Back
Fore
SplineSet
349 0 m 2,0,-1
 89 0 l 1,1,-1
 89 303 l 1,2,-1
 -5 303 l 1,3,-1
 -5 388 l 1,4,-1
 89 388 l 1,5,-1
 89 700 l 1,6,-1
 349 700 l 2,7,8
 425 700 425 700 488.5 675.5 c 128,-1,9
 552 651 552 651 597.5 605.5 c 128,-1,10
 643 560 643 560 668.5 495.5 c 128,-1,11
 694 431 694 431 694 350 c 256,12,13
 694 269 694 269 668.5 204 c 128,-1,14
 643 139 643 139 597.5 94 c 128,-1,15
 552 49 552 49 488.5 24.5 c 128,-1,16
 425 0 425 0 349 0 c 2,0,-1
349 589 m 2,17,-1
 205 589 l 1,18,-1
 205 388 l 1,19,-1
 330 388 l 1,20,-1
 330 303 l 1,21,-1
 205 303 l 1,22,-1
 205 112 l 1,23,-1
 349 112 l 2,24,25
 455 112 455 112 510.5 175 c 128,-1,26
 566 238 566 238 566 350 c 256,27,28
 566 462 566 462 510.5 525.5 c 128,-1,29
 455 589 455 589 349 589 c 2,17,-1
EndSplineSet
EndChar

StartChar: multiply
Encoding: 215 215 150
Width: 446
Flags: W
LayerCount: 2
Back
Fore
SplineSet
388 165 m 1,0,-1
 335 112 l 1,1,-1
 223 224 l 1,2,-1
 111 112 l 1,3,-1
 58 165 l 1,4,-1
 170 277 l 1,5,-1
 58 389 l 1,6,-1
 111 442 l 1,7,-1
 223 330 l 1,8,-1
 335 442 l 1,9,-1
 388 389 l 1,10,-1
 276 277 l 1,11,-1
 388 165 l 1,0,-1
EndSplineSet
EndChar

StartChar: Oslash
Encoding: 216 216 151
Width: 764
Flags: W
LayerCount: 2
Back
Fore
SplineSet
382 -13 m 0,0,1
 294 -13 294 -13 216 25 c 1,2,-1
 178 -31 l 1,3,-1
 57 -31 l 1,4,-1
 135 83 l 1,5,6
 37 190 37 190 37 350 c 0,7,8
 37 432 37 432 62.5 499 c 128,-1,9
 88 566 88 566 134 614 c 128,-1,10
 180 662 180 662 243.5 688 c 128,-1,11
 307 714 307 714 382 714 c 0,12,13
 466 714 466 714 543 678 c 1,14,-1
 570 716 l 1,15,-1
 691 716 l 1,16,-1
 624 619 l 1,17,18
 727 516 727 516 727 350 c 0,19,20
 727 269 727 269 701.5 202 c 128,-1,21
 676 135 676 135 630 87.5 c 128,-1,22
 584 40 584 40 521 13.5 c 128,-1,23
 458 -13 458 -13 382 -13 c 0,0,1
553 516 m 1,24,-1
 282 119 l 1,25,26
 330 99 330 99 382 99 c 256,27,28
 434 99 434 99 474.5 117.5 c 128,-1,29
 515 136 515 136 542 169.5 c 128,-1,30
 569 203 569 203 583 249.5 c 128,-1,31
 597 296 597 296 597 351 c 0,32,33
 597 454 597 454 553 516 c 1,24,-1
382 602 m 0,34,35
 330 602 330 602 290 583.5 c 128,-1,36
 250 565 250 565 222.5 532 c 128,-1,37
 195 499 195 499 181 452.5 c 128,-1,38
 167 406 167 406 167 350 c 0,39,40
 167 259 167 259 208 188 c 1,41,-1
 477 582 l 1,42,43
 426 602 426 602 382 602 c 0,34,35
EndSplineSet
EndChar

StartChar: Thorn
Encoding: 222 222 157
Width: 567
Flags: W
LayerCount: 2
Back
Fore
SplineSet
197 117 m 1,0,-1
 197 0 l 1,1,-1
 78 0 l 1,2,-1
 78 700 l 1,3,-1
 197 700 l 1,4,-1
 197 583 l 1,5,-1
 284 583 l 2,6,7
 349 583 349 583 401.5 575.5 c 128,-1,8
 454 568 454 568 490.5 544.5 c 128,-1,9
 527 521 527 521 547 477.5 c 128,-1,10
 567 434 567 434 567 362 c 0,11,12
 567 289 567 289 544 241.5 c 128,-1,13
 521 194 521 194 485.5 166.5 c 128,-1,14
 450 139 450 139 408.5 128 c 128,-1,15
 367 117 367 117 331 117 c 2,16,-1
 197 117 l 1,0,-1
197 483 m 1,17,-1
 197 227 l 1,18,-1
 313 227 l 2,19,20
 385 227 385 227 415.5 257.5 c 128,-1,21
 446 288 446 288 446 360 c 0,22,23
 446 392 446 392 439.5 415.5 c 128,-1,24
 433 439 433 439 416.5 454 c 128,-1,25
 400 469 400 469 372.5 476 c 128,-1,26
 345 483 345 483 303 483 c 2,27,-1
 197 483 l 1,17,-1
EndSplineSet
EndChar

StartChar: germandbls
Encoding: 223 223 158
Width: 564
Flags: W
LayerCount: 2
Back
Fore
SplineSet
324 -10 m 0,0,1
 310 -10 310 -10 296.5 -9 c 128,-1,2
 283 -8 283 -8 267 -6 c 1,3,-1
 267 85 l 1,4,5
 307 85 307 85 337.5 86 c 128,-1,6
 368 87 368 87 388.5 93.5 c 128,-1,7
 409 100 409 100 419.5 113.5 c 128,-1,8
 430 127 430 127 430 152 c 0,9,10
 430 179 430 179 419 200.5 c 128,-1,11
 408 222 408 222 391.5 240 c 128,-1,12
 375 258 375 258 355.5 273 c 128,-1,13
 336 288 336 288 319.5 302.5 c 128,-1,14
 303 317 303 317 292 331.5 c 128,-1,15
 281 346 281 346 281 363 c 0,16,17
 281 383 281 383 295.5 403 c 128,-1,18
 310 423 310 423 328 446 c 128,-1,19
 346 469 346 469 360.5 498 c 128,-1,20
 375 527 375 527 375 565 c 0,21,22
 375 590 375 590 368 607 c 128,-1,23
 361 624 361 624 349 634 c 128,-1,24
 337 644 337 644 321.5 648.5 c 128,-1,25
 306 653 306 653 290 653 c 0,26,27
 205 653 205 653 205 556 c 2,28,-1
 205 -136 l 1,29,-1
 92 -136 l 1,30,-1
 92 405 l 1,31,-1
 17 405 l 1,32,-1
 28 497 l 1,33,-1
 92 497 l 1,34,-1
 92 562 l 2,35,36
 92 606 92 606 108 641 c 128,-1,37
 124 676 124 676 151.5 700 c 128,-1,38
 179 724 179 724 215 737 c 128,-1,39
 251 750 251 750 291 750 c 0,40,41
 327 750 327 750 362 740 c 128,-1,42
 397 730 397 730 424 708 c 128,-1,43
 451 686 451 686 468 652 c 128,-1,44
 485 618 485 618 485 569 c 0,45,46
 485 527 485 527 472 494.5 c 128,-1,47
 459 462 459 462 444 438 c 128,-1,48
 429 414 429 414 416 397.5 c 128,-1,49
 403 381 403 381 403 370 c 0,50,51
 403 356 403 356 425.5 339.5 c 128,-1,52
 448 323 448 323 474.5 298.5 c 128,-1,53
 501 274 501 274 523.5 238.5 c 128,-1,54
 546 203 546 203 546 151 c 0,55,56
 546 107 546 107 528 76 c 128,-1,57
 510 45 510 45 479 26 c 128,-1,58
 448 7 448 7 408 -1.5 c 128,-1,59
 368 -10 368 -10 324 -10 c 0,0,1
EndSplineSet
EndChar

StartChar: ae
Encoding: 230 230 165
Width: 797
Flags: W
LayerCount: 2
Back
Fore
SplineSet
761 230 m 1,0,-1
 438 230 l 1,1,2
 445 157 445 157 486.5 120 c 128,-1,3
 528 83 528 83 588 83 c 0,4,5
 656 83 656 83 736 122 c 1,6,-1
 745 29 l 1,7,8
 668 -10 668 -10 580 -10 c 0,9,10
 432 -10 432 -10 380 90 c 1,11,12
 312 -15 312 -15 182 -15 c 0,13,14
 104 -15 104 -15 63 21.5 c 128,-1,15
 22 58 22 58 22 124 c 0,16,17
 22 164 22 164 36.5 193 c 128,-1,18
 51 222 51 222 75 242 c 128,-1,19
 99 262 99 262 129.5 275 c 128,-1,20
 160 288 160 288 192 296 c 128,-1,21
 224 304 224 304 255 307.5 c 128,-1,22
 286 311 286 311 310 312 c 1,23,24
 305 363 305 363 283 385 c 128,-1,25
 261 407 261 407 211 407 c 0,26,27
 153 407 153 407 78 372 c 1,28,-1
 68 463 l 1,29,30
 158 506 158 506 241 506 c 0,31,32
 366 506 366 506 395 407 c 1,33,34
 402 428 402 428 419.5 446.5 c 128,-1,35
 437 465 437 465 460.5 478 c 128,-1,36
 484 491 484 491 513 498.5 c 128,-1,37
 542 506 542 506 572 506 c 0,38,39
 616 506 616 506 652 491 c 128,-1,40
 688 476 688 476 714 448.5 c 128,-1,41
 740 421 740 421 754 382 c 128,-1,42
 768 343 768 343 768 295 c 0,43,44
 768 265 768 265 761 230 c 1,0,-1
568 410 m 0,45,46
 520 410 520 410 487 383 c 128,-1,47
 454 356 454 356 443 307 c 1,48,-1
 665 307 l 1,49,50
 665 352 665 352 641 381 c 128,-1,51
 617 410 617 410 568 410 c 0,45,46
318 235 m 1,52,53
 289 234 289 234 258 228.5 c 128,-1,54
 227 223 227 223 200.5 211 c 128,-1,55
 174 199 174 199 157 180.5 c 128,-1,56
 140 162 140 162 140 134 c 256,57,58
 140 106 140 106 158.5 90.5 c 128,-1,59
 177 75 177 75 206 75 c 0,60,61
 227 75 227 75 247.5 83.5 c 128,-1,62
 268 92 268 92 284 108 c 128,-1,63
 300 124 300 124 309.5 147.5 c 128,-1,64
 319 171 319 171 319 201 c 0,65,66
 319 211 319 211 319 219.5 c 128,-1,67
 319 228 319 228 318 235 c 1,52,53
EndSplineSet
Substitution2: "'smcp' Lowercase to Small Capitals in Latin lookup 1 subtable" AE.sc
Substitution2: "'aalt' Access All Alternates in Latin lookup 0 subtable" AE.sc
EndChar

StartChar: eth
Encoding: 240 240 175
Width: 517
Flags: W
LayerCount: 2
Back
Fore
SplineSet
245 -13 m 0,0,1
 197 -13 197 -13 156 3 c 128,-1,2
 115 19 115 19 85 48 c 128,-1,3
 55 77 55 77 38 117 c 128,-1,4
 21 157 21 157 21 204 c 0,5,6
 21 247 21 247 35 287 c 128,-1,7
 49 327 49 327 76 358 c 128,-1,8
 103 389 103 389 142 407.5 c 128,-1,9
 181 426 181 426 232 426 c 0,10,11
 305 426 305 426 355 382 c 1,12,13
 353 400 353 400 346 424 c 128,-1,14
 339 448 339 448 328.5 471.5 c 128,-1,15
 318 495 318 495 306 515 c 128,-1,16
 294 535 294 535 281 545 c 1,17,18
 213 495 213 495 143 486 c 1,19,-1
 107 554 l 1,20,21
 158 555 158 555 229 600 c 1,22,23
 170 651 170 651 110 651 c 1,24,-1
 149 701 l 1,25,26
 222 700 222 700 295 648 c 1,27,28
 329 679 329 679 352 711 c 1,29,-1
 412 696 l 1,30,31
 395 670 395 670 377.5 647 c 128,-1,32
 360 624 360 624 343 605 c 1,33,34
 404 542 404 542 440.5 451 c 128,-1,35
 477 360 477 360 477 258 c 0,36,37
 477 181 477 181 456.5 129.5 c 128,-1,38
 436 78 436 78 403 46 c 128,-1,39
 370 14 370 14 328.5 0.5 c 128,-1,40
 287 -13 287 -13 245 -13 c 0,0,1
246 333 m 0,41,42
 219 333 219 333 198 323.5 c 128,-1,43
 177 314 177 314 162.5 298 c 128,-1,44
 148 282 148 282 140.5 261 c 128,-1,45
 133 240 133 240 133 217 c 0,46,47
 133 160 133 160 163.5 121.5 c 128,-1,48
 194 83 194 83 248 83 c 0,49,50
 296 83 296 83 327.5 115 c 128,-1,51
 359 147 359 147 359 207 c 256,52,53
 359 267 359 267 329.5 300 c 128,-1,54
 300 333 300 333 246 333 c 0,41,42
EndSplineSet
EndChar

StartChar: divide
Encoding: 247 247 182
Width: 574
Flags: W
LayerCount: 2
Back
Fore
SplineSet
339 415 m 1,0,-1
 226 415 l 1,1,-1
 226 534 l 1,2,-1
 339 534 l 1,3,-1
 339 415 l 1,0,-1
517 235 m 1,4,-1
 57 235 l 1,5,-1
 57 322 l 1,6,-1
 517 322 l 1,7,-1
 517 235 l 1,4,-1
339 20 m 1,8,-1
 226 20 l 1,9,-1
 226 139 l 1,10,-1
 339 139 l 1,11,-1
 339 20 l 1,8,-1
EndSplineSet
EndChar

StartChar: oslash
Encoding: 248 248 183
Width: 563
Flags: W
LayerCount: 2
Back
Fore
SplineSet
282 -9 m 0,0,1
 247 -9 247 -9 207 0 c 1,2,-1
 190 -36 l 1,3,-1
 95 -36 l 1,4,-1
 130 37 l 1,5,6
 29 111 29 111 29 249 c 0,7,8
 29 304 29 304 47 351.5 c 128,-1,9
 65 399 65 399 98.5 433.5 c 128,-1,10
 132 468 132 468 178.5 487.5 c 128,-1,11
 225 507 225 507 282 507 c 0,12,13
 315 507 315 507 354 498 c 1,14,-1
 371 534 l 1,15,-1
 469 534 l 1,16,-1
 433 462 l 1,17,18
 535 384 535 384 535 249 c 0,19,20
 535 195 535 195 517.5 148 c 128,-1,21
 500 101 500 101 467 66 c 128,-1,22
 434 31 434 31 387 11 c 128,-1,23
 340 -9 340 -9 282 -9 c 0,0,1
386 364 m 1,24,-1
 249 86 l 1,25,26
 273 83 273 83 282 83 c 0,27,28
 346 83 346 83 381.5 128.5 c 128,-1,29
 417 174 417 174 417 249 c 0,30,31
 417 327 417 327 386 364 c 1,24,-1
281 415 m 0,32,33
 218 415 218 415 182.5 369.5 c 128,-1,34
 147 324 147 324 147 249 c 0,35,36
 147 186 147 186 177 134 c 1,37,-1
 312 412 l 1,38,39
 297 415 297 415 281 415 c 0,32,33
EndSplineSet
EndChar

StartChar: thorn
Encoding: 254 254 189
Width: 577
Flags: W
LayerCount: 2
Back
Fore
SplineSet
301 -10 m 0,0,1
 223 -10 223 -10 173 34 c 1,2,-1
 173 -242 l 1,3,-1
 60 -242 l 1,4,-1
 60 750 l 1,5,-1
 173 750 l 1,6,-1
 173 463 l 1,7,8
 228 506 228 506 303 506 c 0,9,10
 359 506 359 506 404.5 486 c 128,-1,11
 450 466 450 466 481.5 431 c 128,-1,12
 513 396 513 396 530 349 c 128,-1,13
 547 302 547 302 547 248 c 256,14,15
 547 194 547 194 530.5 147 c 128,-1,16
 514 100 514 100 482.5 65 c 128,-1,17
 451 30 451 30 405 10 c 128,-1,18
 359 -10 359 -10 301 -10 c 0,0,1
293 410 m 0,19,20
 229 410 229 410 198 366.5 c 128,-1,21
 167 323 167 323 167 248 c 0,22,23
 167 172 167 172 198 127.5 c 128,-1,24
 229 83 229 83 293 83 c 0,25,26
 359 83 359 83 395 128 c 128,-1,27
 431 173 431 173 431 248 c 256,28,29
 431 323 431 323 395 366.5 c 128,-1,30
 359 410 359 410 293 410 c 0,19,20
EndSplineSet
EndChar

StartChar: dotlessi
Encoding: 305 305 193
Width: 234
Flags: W
LayerCount: 2
Back
Fore
SplineSet
174 0 m 1,0,-1
 60 0 l 1,1,-1
 60 497 l 1,2,-1
 174 497 l 1,3,-1
 174 0 l 1,0,-1
EndSplineSet
EndChar

StartChar: OE
Encoding: 338 338 194
Width: 1067
Flags: W
LayerCount: 2
Back
Fore
SplineSet
1031 0 m 1,0,-1
 603 0 l 1,1,-1
 603 64 l 1,2,3
 501 -14 501 -14 380 -14 c 0,4,5
 304 -14 304 -14 241 12.5 c 128,-1,6
 178 39 178 39 132.5 87 c 128,-1,7
 87 135 87 135 62 202 c 128,-1,8
 37 269 37 269 37 350 c 256,9,10
 37 431 37 431 62 498 c 128,-1,11
 87 565 87 565 132.5 613 c 128,-1,12
 178 661 178 661 241 687.5 c 128,-1,13
 304 714 304 714 380 714 c 0,14,15
 501 714 501 714 603 636 c 1,16,-1
 603 700 l 1,17,-1
 1022 700 l 1,18,-1
 1022 588 l 1,19,-1
 722 588 l 1,20,-1
 722 421 l 1,21,-1
 953 421 l 1,22,-1
 953 309 l 1,23,-1
 722 309 l 1,24,-1
 722 112 l 1,25,-1
 1031 112 l 1,26,-1
 1031 0 l 1,0,-1
539 533 m 0,27,28
 484 603 484 603 380 603 c 0,29,30
 327 603 327 603 287 584.5 c 128,-1,31
 247 566 247 566 220 532 c 128,-1,32
 193 498 193 498 179 451.5 c 128,-1,33
 165 405 165 405 165 350 c 0,34,35
 165 294 165 294 179 247.5 c 128,-1,36
 193 201 193 201 220 167.5 c 128,-1,37
 247 134 247 134 287 115.5 c 128,-1,38
 327 97 327 97 380 97 c 0,39,40
 432 97 432 97 472 115.5 c 128,-1,41
 512 134 512 134 539.5 168 c 128,-1,42
 567 202 567 202 581 248 c 128,-1,43
 595 294 595 294 595 350 c 0,44,45
 595 462 595 462 539 533 c 0,27,28
EndSplineSet
EndChar

StartChar: oe
Encoding: 339 339 195
Width: 897
Flags: W
LayerCount: 2
Back
Fore
SplineSet
862 230 m 1,0,-1
 533 230 l 1,1,2
 537 191 537 191 551 163 c 128,-1,3
 565 135 565 135 585.5 117 c 128,-1,4
 606 99 606 99 632 91 c 128,-1,5
 658 83 658 83 685 83 c 0,6,7
 762 83 762 83 839 122 c 1,8,-1
 846 26 l 1,9,10
 775 -10 775 -10 684 -10 c 0,11,12
 538 -10 538 -10 473 79 c 1,13,14
 444 37 444 37 393.5 13.5 c 128,-1,15
 343 -10 343 -10 280 -10 c 0,16,17
 221 -10 221 -10 174.5 10 c 128,-1,18
 128 30 128 30 96 65.5 c 128,-1,19
 64 101 64 101 46.5 148 c 128,-1,20
 29 195 29 195 29 249 c 256,21,22
 29 303 29 303 46.5 350 c 128,-1,23
 64 397 64 397 97 431.5 c 128,-1,24
 130 466 130 466 176.5 486 c 128,-1,25
 223 506 223 506 281 506 c 0,26,27
 341 506 341 506 391 483.5 c 128,-1,28
 441 461 441 461 470 419 c 1,29,30
 500 461 500 461 547 483.5 c 128,-1,31
 594 506 594 506 651 506 c 0,32,33
 699 506 699 506 739 491 c 128,-1,34
 779 476 779 476 808 448 c 128,-1,35
 837 420 837 420 853 380.5 c 128,-1,36
 869 341 869 341 869 293 c 0,37,38
 869 259 869 259 862 230 c 1,0,-1
654 410 m 0,39,40
 557 410 557 410 536 307 c 1,41,-1
 754 307 l 1,42,43
 752 352 752 352 727 381 c 128,-1,44
 702 410 702 410 654 410 c 0,39,40
281 410 m 0,45,46
 217 410 217 410 181 366.5 c 128,-1,47
 145 323 145 323 145 248 c 256,48,49
 145 173 145 173 180 129 c 128,-1,50
 215 85 215 85 281 85 c 0,51,52
 345 85 345 85 380 130.5 c 128,-1,53
 415 176 415 176 415 249 c 256,54,55
 415 322 415 322 379.5 366 c 128,-1,56
 344 410 344 410 281 410 c 0,45,46
EndSplineSet
Substitution2: "'smcp' Lowercase to Small Capitals in Latin lookup 1 subtable" OE.sc
Substitution2: "'aalt' Access All Alternates in Latin lookup 0 subtable" OE.sc
EndChar

StartChar: florin
Encoding: 402 402 201
Width: 356
Flags: W
LayerCount: 2
Back
Fore
SplineSet
376 702 m 1,0,-1
 367 620 l 1,1,2
 340 628 340 628 324 628 c 0,3,4
 300 628 300 628 283 621.5 c 128,-1,5
 266 615 266 615 254 599.5 c 128,-1,6
 242 584 242 584 234 559 c 128,-1,7
 226 534 226 534 220 497 c 1,8,-1
 354 497 l 1,9,-1
 346 423 l 1,10,-1
 208 423 l 1,11,-1
 127 -84 l 2,12,13
 120 -125 120 -125 106.5 -155 c 128,-1,14
 93 -185 93 -185 76.5 -204.5 c 128,-1,15
 60 -224 60 -224 42.5 -233 c 128,-1,16
 25 -242 25 -242 9 -242 c 2,17,-1
 -16 -242 l 1,18,-1
 -34 -152 l 1,19,20
 -19 -151 -19 -151 -7.5 -146.5 c 128,-1,21
 4 -142 4 -142 12 -132 c 128,-1,22
 20 -122 20 -122 25.5 -105.5 c 128,-1,23
 31 -89 31 -89 35 -65 c 2,24,-1
 109 423 l 1,25,-1
 26 423 l 1,26,-1
 34 497 l 1,27,-1
 120 497 l 1,28,-1
 127 543 l 2,29,30
 133 582 133 582 149.5 614 c 128,-1,31
 166 646 166 646 190 668 c 128,-1,32
 214 690 214 690 245 702 c 128,-1,33
 276 714 276 714 312 714 c 0,34,35
 343 714 343 714 376 702 c 1,0,-1
EndSplineSet
EndChar

StartChar: uni0237
Encoding: 567 567 202
Width: 234
Flags: W
LayerCount: 2
Back
Fore
SplineSet
47 -240 m 2,0,-1
 7 -240 l 1,1,-1
 -4 -150 l 1,2,3
 17 -149 17 -149 30 -146.5 c 128,-1,4
 43 -144 43 -144 49.5 -135.5 c 128,-1,5
 56 -127 56 -127 58 -110 c 128,-1,6
 60 -93 60 -93 60 -64 c 2,7,-1
 60 497 l 1,8,-1
 174 497 l 1,9,-1
 174 -110 l 2,10,11
 174 -170 174 -170 139.5 -204 c 128,-1,12
 105 -238 105 -238 47 -240 c 2,0,-1
EndSplineSet
EndChar

StartChar: circumflex
Encoding: 710 710 203
Width: 446
Flags: W
LayerCount: 2
Back
Fore
SplineSet
370 591 m 1,0,-1
 223 665 l 1,1,-1
 76 591 l 1,2,-1
 76 653 l 1,3,-1
 223 748 l 1,4,-1
 370 653 l 1,5,-1
 370 591 l 1,0,-1
EndSplineSet
EndChar

StartChar: caron
Encoding: 711 711 204
Width: 446
Flags: W
LayerCount: 2
Back
Fore
SplineSet
370 683 m 1,0,-1
 223 590 l 1,1,-1
 76 683 l 1,2,-1
 76 747 l 1,3,-1
 223 674 l 1,4,-1
 370 747 l 1,5,-1
 370 683 l 1,0,-1
EndSplineSet
EndChar

StartChar: ring
Encoding: 730 730 205
Width: 292
Flags: W
LayerCount: 2
Back
Fore
SplineSet
42 665 m 0,0,1
 42 705 42 705 72 730 c 128,-1,2
 102 755 102 755 153 755 c 0,3,4
 176 755 176 755 194 747 c 128,-1,5
 212 739 212 739 224.5 726 c 128,-1,6
 237 713 237 713 243.5 696.5 c 128,-1,7
 250 680 250 680 250 663 c 0,8,9
 250 627 250 627 222.5 601.5 c 128,-1,10
 195 576 195 576 146 576 c 0,11,12
 98 576 98 576 70 601.5 c 128,-1,13
 42 627 42 627 42 665 c 0,0,1
97 665 m 2,14,-1
 97 661 l 2,15,16
 97 640 97 640 112 629.5 c 128,-1,17
 127 619 127 619 146 619 c 0,18,19
 164 619 164 619 179.5 629.5 c 128,-1,20
 195 640 195 640 195 661 c 0,21,22
 195 683 195 683 182 697.5 c 128,-1,23
 169 712 169 712 146 712 c 0,24,25
 126 712 126 712 111.5 698.5 c 128,-1,26
 97 685 97 685 97 665 c 2,14,-1
EndSplineSet
EndChar

StartChar: tilde
Encoding: 732 732 206
Width: 528
Flags: W
LayerCount: 2
Back
Fore
SplineSet
333 599 m 0,0,1
 322 599 322 599 303 606 c 128,-1,2
 284 613 284 613 264 621.5 c 128,-1,3
 244 630 244 630 227.5 637 c 128,-1,4
 211 644 211 644 205 644 c 0,5,6
 164 644 164 644 149 596 c 1,7,-1
 81 613 l 1,8,9
 88 659 88 659 122.5 685 c 128,-1,10
 157 711 157 711 199 711 c 0,11,12
 211 711 211 711 230 704 c 128,-1,13
 249 697 249 697 267.5 689 c 128,-1,14
 286 681 286 681 302 674 c 128,-1,15
 318 667 318 667 324 667 c 0,16,17
 346 667 346 667 362 681 c 128,-1,18
 378 695 378 695 385 715 c 1,19,-1
 448 699 l 1,20,21
 439 657 439 657 408.5 628 c 128,-1,22
 378 599 378 599 333 599 c 0,0,1
EndSplineSet
EndChar

StartChar: endash
Encoding: 8211 8211 207
Width: 498
Flags: W
LayerCount: 2
Back
Fore
SplineSet
443 232 m 1,0,-1
 55 232 l 1,1,-1
 55 324 l 1,2,-1
 443 324 l 1,3,-1
 443 232 l 1,0,-1
EndSplineSet
EndChar

StartChar: emdash
Encoding: 8212 8212 208
Width: 590
Flags: W
LayerCount: 2
Back
Fore
SplineSet
535 232 m 1,0,-1
 55 232 l 1,1,-1
 55 324 l 1,2,-1
 535 324 l 1,3,-1
 535 232 l 1,0,-1
EndSplineSet
EndChar

StartChar: quoteleft
Encoding: 8216 8216 209
Width: 202
Flags: W
LayerCount: 2
Back
Fore
SplineSet
43 640 m 1,0,-1
 135 750 l 1,1,-1
 160 736 l 1,2,-1
 126 650 l 1,3,-1
 159 640 l 1,4,-1
 159 524 l 1,5,-1
 43 524 l 1,6,-1
 43 640 l 1,0,-1
EndSplineSet
EndChar

StartChar: quoteright
Encoding: 8217 8217 210
Width: 185
Flags: W
LayerCount: 2
Back
Fore
SplineSet
158 634 m 1,0,-1
 66 524 l 1,1,-1
 41 538 l 1,2,-1
 74 624 l 1,3,-1
 41 634 l 1,4,-1
 41 750 l 1,5,-1
 158 750 l 1,6,-1
 158 634 l 1,0,-1
EndSplineSet
EndChar

StartChar: quotesinglbase
Encoding: 8218 8218 211
Width: 227
Flags: W
LayerCount: 2
Back
Fore
SplineSet
172 0 m 1,0,-1
 80 -110 l 1,1,-1
 55 -96 l 1,2,-1
 88 -10 l 1,3,-1
 55 0 l 1,4,-1
 55 116 l 1,5,-1
 172 116 l 1,6,-1
 172 0 l 1,0,-1
EndSplineSet
EndChar

StartChar: quotedblleft
Encoding: 8220 8220 212
Width: 412
Flags: W
LayerCount: 2
Back
Fore
SplineSet
43 640 m 1,0,-1
 135 750 l 1,1,-1
 160 736 l 1,2,-1
 126 650 l 1,3,-1
 159 640 l 1,4,-1
 159 524 l 1,5,-1
 43 524 l 1,6,-1
 43 640 l 1,0,-1
253 640 m 1,7,-1
 345 750 l 1,8,-1
 370 736 l 1,9,-1
 336 650 l 1,10,-1
 369 640 l 1,11,-1
 369 524 l 1,12,-1
 253 524 l 1,13,-1
 253 640 l 1,7,-1
EndSplineSet
EndChar

StartChar: quotedblright
Encoding: 8221 8221 213
Width: 395
Flags: W
LayerCount: 2
Back
Fore
SplineSet
368 634 m 1,0,-1
 276 524 l 1,1,-1
 251 538 l 1,2,-1
 284 624 l 1,3,-1
 251 634 l 1,4,-1
 251 750 l 1,5,-1
 368 750 l 1,6,-1
 368 634 l 1,0,-1
158 634 m 1,7,-1
 66 524 l 1,8,-1
 41 538 l 1,9,-1
 74 624 l 1,10,-1
 41 634 l 1,11,-1
 41 750 l 1,12,-1
 158 750 l 1,13,-1
 158 634 l 1,7,-1
EndSplineSet
EndChar

StartChar: quotedblbase
Encoding: 8222 8222 214
Width: 457
Flags: W
LayerCount: 2
Back
Fore
SplineSet
172 0 m 1,0,-1
 80 -110 l 1,1,-1
 55 -96 l 1,2,-1
 88 -10 l 1,3,-1
 55 0 l 1,4,-1
 55 116 l 1,5,-1
 172 116 l 1,6,-1
 172 0 l 1,0,-1
402 0 m 1,7,-1
 310 -110 l 1,8,-1
 285 -96 l 1,9,-1
 318 -10 l 1,10,-1
 285 0 l 1,11,-1
 285 116 l 1,12,-1
 402 116 l 1,13,-1
 402 0 l 1,7,-1
EndSplineSet
EndChar

StartChar: dagger
Encoding: 8224 8224 215
Width: 424
Flags: W
LayerCount: 2
Back
Fore
SplineSet
389 356 m 1,0,-1
 250 384 l 1,1,-1
 282 255 l 1,2,-1
 252 0 l 1,3,-1
 172 0 l 1,4,-1
 142 255 l 1,5,-1
 174 384 l 1,6,-1
 35 356 l 1,7,-1
 35 474 l 1,8,-1
 174 446 l 1,9,-1
 143 607 l 1,10,-1
 281 607 l 1,11,-1
 250 446 l 1,12,-1
 389 474 l 1,13,-1
 389 356 l 1,0,-1
EndSplineSet
EndChar

StartChar: daggerdbl
Encoding: 8225 8225 216
Width: 460
Flags: W
LayerCount: 2
Back
Fore
SplineSet
407 74 m 1,0,-1
 268 101 l 1,1,-1
 299 -59 l 1,2,-1
 161 -59 l 1,3,-1
 192 101 l 1,4,-1
 53 74 l 1,5,-1
 53 191 l 1,6,-1
 193 163 l 1,7,-1
 160 274 l 1,8,-1
 193 385 l 1,9,-1
 53 358 l 1,10,-1
 53 475 l 1,11,-1
 192 447 l 1,12,-1
 161 607 l 1,13,-1
 299 607 l 1,14,-1
 268 447 l 1,15,-1
 407 475 l 1,16,-1
 407 358 l 1,17,-1
 267 385 l 1,18,-1
 300 274 l 1,19,-1
 267 163 l 1,20,-1
 407 191 l 1,21,-1
 407 74 l 1,0,-1
EndSplineSet
EndChar

StartChar: bullet
Encoding: 8226 8226 217
Width: 302
Flags: W
LayerCount: 2
Back
Fore
SplineSet
228 201 m 0,0,1
 211 184 211 184 191.5 176.5 c 128,-1,2
 172 169 172 169 151 169 c 0,3,4
 129 169 129 169 109.5 178 c 128,-1,5
 90 187 90 187 75 202 c 128,-1,6
 60 217 60 217 51 236.5 c 128,-1,7
 42 256 42 256 42 278 c 256,8,9
 42 300 42 300 51 319.5 c 128,-1,10
 60 339 60 339 75 354 c 128,-1,11
 90 369 90 369 109.5 378 c 128,-1,12
 129 387 129 387 151 387 c 256,13,14
 173 387 173 387 192.5 378 c 128,-1,15
 212 369 212 369 227 354 c 128,-1,16
 242 339 242 339 251 319.5 c 128,-1,17
 260 300 260 300 260 278 c 0,18,19
 260 257 260 257 252 237 c 128,-1,20
 244 217 244 217 228 201 c 0,0,1
EndSplineSet
EndChar

StartChar: ellipsis
Encoding: 8230 8230 218
Width: 696
Flags: W
LayerCount: 2
Back
Fore
SplineSet
169 0 m 1,0,-1
 55 0 l 1,1,-1
 55 116 l 1,2,-1
 169 116 l 1,3,-1
 169 0 l 1,0,-1
405 0 m 1,4,-1
 291 0 l 1,5,-1
 291 116 l 1,6,-1
 405 116 l 1,7,-1
 405 0 l 1,4,-1
641 0 m 1,8,-1
 527 0 l 1,9,-1
 527 116 l 1,10,-1
 641 116 l 1,11,-1
 641 0 l 1,8,-1
EndSplineSet
EndChar

StartChar: perthousand
Encoding: 8240 8240 219
Width: 1202
Flags: W
LayerCount: 2
Back
Fore
SplineSet
248 -12 m 1,0,-1
 153 -12 l 1,1,-1
 574 700 l 1,2,-1
 669 700 l 1,3,-1
 248 -12 l 1,0,-1
184 334 m 0,4,5
 118 334 118 334 76.5 383 c 128,-1,6
 35 432 35 432 35 516 c 0,7,8
 35 560 35 560 47 595 c 128,-1,9
 59 630 59 630 80 654 c 128,-1,10
 101 678 101 678 129 691 c 128,-1,11
 157 704 157 704 189 704 c 256,12,13
 221 704 221 704 248 691.5 c 128,-1,14
 275 679 275 679 295 656 c 128,-1,15
 315 633 315 633 326.5 599.5 c 128,-1,16
 338 566 338 566 338 524 c 0,17,18
 338 480 338 480 326.5 445 c 128,-1,19
 315 410 315 410 295 385 c 128,-1,20
 275 360 275 360 246.5 347 c 128,-1,21
 218 334 218 334 184 334 c 0,4,5
188 639 m 0,22,23
 157 639 157 639 132.5 608.5 c 128,-1,24
 108 578 108 578 108 516 c 0,25,26
 108 457 108 457 130.5 429.5 c 128,-1,27
 153 402 153 402 185 402 c 0,28,29
 220 402 220 402 243 431.5 c 128,-1,30
 266 461 266 461 266 524 c 0,31,32
 266 582 266 582 242 610.5 c 128,-1,33
 218 639 218 639 188 639 c 0,22,23
655 -11 m 0,34,35
 588 -11 588 -11 547 37.5 c 128,-1,36
 506 86 506 86 506 171 c 0,37,38
 506 215 506 215 518 250 c 128,-1,39
 530 285 530 285 551 309 c 128,-1,40
 572 333 572 333 600 346 c 128,-1,41
 628 359 628 359 660 359 c 256,42,43
 692 359 692 359 719 346.5 c 128,-1,44
 746 334 746 334 766 311 c 128,-1,45
 786 288 786 288 797.5 254.5 c 128,-1,46
 809 221 809 221 809 179 c 0,47,48
 809 135 809 135 797.5 100 c 128,-1,49
 786 65 786 65 766 40 c 128,-1,50
 746 15 746 15 717.5 2 c 128,-1,51
 689 -11 689 -11 655 -11 c 0,34,35
659 294 m 0,52,53
 628 294 628 294 603.5 263.5 c 128,-1,54
 579 233 579 233 579 171 c 0,55,56
 579 112 579 112 601.5 84.5 c 128,-1,57
 624 57 624 57 656 57 c 0,58,59
 691 57 691 57 714 86.5 c 128,-1,60
 737 116 737 116 737 179 c 0,61,62
 737 237 737 237 713 265.5 c 128,-1,63
 689 294 689 294 659 294 c 0,52,53
1015 -11 m 0,64,65
 948 -11 948 -11 907 37.5 c 128,-1,66
 866 86 866 86 866 171 c 0,67,68
 866 215 866 215 878 250 c 128,-1,69
 890 285 890 285 911 309 c 128,-1,70
 932 333 932 333 960 346 c 128,-1,71
 988 359 988 359 1020 359 c 256,72,73
 1052 359 1052 359 1079 346.5 c 128,-1,74
 1106 334 1106 334 1126 311 c 128,-1,75
 1146 288 1146 288 1157 254.5 c 128,-1,76
 1168 221 1168 221 1168 179 c 0,77,78
 1168 135 1168 135 1157 100 c 128,-1,79
 1146 65 1146 65 1125.5 40 c 128,-1,80
 1105 15 1105 15 1077 2 c 128,-1,81
 1049 -11 1049 -11 1015 -11 c 0,64,65
1019 294 m 0,82,83
 987 294 987 294 962.5 263.5 c 128,-1,84
 938 233 938 233 938 171 c 0,85,86
 938 112 938 112 961 84.5 c 128,-1,87
 984 57 984 57 1016 57 c 0,88,89
 1051 57 1051 57 1074 86.5 c 128,-1,90
 1097 116 1097 116 1097 179 c 0,91,92
 1097 237 1097 237 1073 265.5 c 128,-1,93
 1049 294 1049 294 1019 294 c 0,82,83
EndSplineSet
EndChar

StartChar: guilsinglleft
Encoding: 8249 8249 220
Width: 339
Flags: W
LayerCount: 2
Back
Fore
SplineSet
301 78 m 1,0,-1
 166 78 l 1,1,-1
 12 284 l 1,2,-1
 166 490 l 1,3,-1
 301 490 l 1,4,-1
 147 284 l 1,5,-1
 301 78 l 1,0,-1
EndSplineSet
EndChar

StartChar: guilsinglright
Encoding: 8250 8250 221
Width: 340
Flags: W
LayerCount: 2
Back
Fore
SplineSet
328 284 m 1,0,-1
 174 78 l 1,1,-1
 39 78 l 1,2,-1
 193 284 l 1,3,-1
 39 490 l 1,4,-1
 174 490 l 1,5,-1
 328 284 l 1,0,-1
EndSplineSet
EndChar

StartChar: uni2070
Encoding: 8304 8304 222
Width: 401
Flags: W
LayerCount: 2
Back
Fore
SplineSet
197 312 m 0,0,1
 159 312 159 312 128 326 c 128,-1,2
 97 340 97 340 75.5 365.5 c 128,-1,3
 54 391 54 391 42 426.5 c 128,-1,4
 30 462 30 462 30 504 c 0,5,6
 30 547 30 547 43.5 584 c 128,-1,7
 57 621 57 621 80 648 c 128,-1,8
 103 675 103 675 135 690.5 c 128,-1,9
 167 706 167 706 204 706 c 256,10,11
 241 706 241 706 271.5 691.5 c 128,-1,12
 302 677 302 677 324 650.5 c 128,-1,13
 346 624 346 624 358.5 588.5 c 128,-1,14
 371 553 371 553 371 511 c 0,15,16
 371 468 371 468 359 431.5 c 128,-1,17
 347 395 347 395 324.5 368.5 c 128,-1,18
 302 342 302 342 269.5 327 c 128,-1,19
 237 312 237 312 197 312 c 0,0,1
118 504 m 0,20,21
 118 446 118 446 140.5 419 c 128,-1,22
 163 392 163 392 198 392 c 0,23,24
 284 392 284 392 284 511 c 0,25,26
 284 568 284 568 260 598 c 128,-1,27
 236 628 236 628 203 628 c 256,28,29
 170 628 170 628 144 596 c 128,-1,30
 118 564 118 564 118 504 c 0,20,21
EndSplineSet
EndChar

StartChar: uni2074
Encoding: 8308 8308 223
Width: 343
Flags: W
LayerCount: 2
Back
Fore
SplineSet
317 423 m 1,0,-1
 268 423 l 1,1,-1
 268 320 l 1,2,-1
 178 320 l 1,3,-1
 178 423 l 1,4,-1
 3 423 l 1,5,-1
 190 698 l 1,6,-1
 268 698 l 1,7,-1
 268 490 l 1,8,-1
 317 490 l 1,9,-1
 317 423 l 1,0,-1
178 490 m 1,10,-1
 178 576 l 1,11,-1
 118 490 l 1,12,-1
 178 490 l 1,10,-1
EndSplineSet
EndChar

StartChar: uni2075
Encoding: 8309 8309 224
Width: 306
Flags: W
LayerCount: 2
Back
Fore
SplineSet
137 314 m 0,0,1
 113 314 113 314 92 319 c 128,-1,2
 71 324 71 324 56 330.5 c 128,-1,3
 41 337 41 337 32 343.5 c 128,-1,4
 23 350 23 350 23 354 c 2,5,-1
 44 433 l 1,6,7
 69 399 69 399 152 399 c 0,8,9
 195 399 195 399 195 440 c 0,10,11
 195 446 195 446 193.5 453.5 c 128,-1,12
 192 461 192 461 184.5 468 c 128,-1,13
 177 475 177 475 161.5 480 c 128,-1,14
 146 485 146 485 117 485 c 2,15,-1
 44 485 l 1,16,-1
 70 698 l 1,17,-1
 258 698 l 1,18,-1
 248 608 l 1,19,-1
 136 608 l 1,20,-1
 128 556 l 1,21,22
 204 555 204 555 240.5 528.5 c 128,-1,23
 277 502 277 502 277 442 c 0,24,25
 277 409 277 409 266 385 c 128,-1,26
 255 361 255 361 236.5 345 c 128,-1,27
 218 329 218 329 192.5 321.5 c 128,-1,28
 167 314 167 314 137 314 c 0,0,1
EndSplineSet
EndChar

StartChar: uni2076
Encoding: 8310 8310 225
Width: 320
Flags: W
LayerCount: 2
Back
Fore
SplineSet
156 312 m 0,0,1
 99 312 99 312 64.5 349.5 c 128,-1,2
 30 387 30 387 30 465 c 0,3,4
 30 512 30 512 48.5 554 c 128,-1,5
 67 596 67 596 94 627.5 c 128,-1,6
 121 659 121 659 151 678 c 128,-1,7
 181 697 181 697 204 698 c 1,8,-1
 263 664 l 1,9,10
 249 664 249 664 226 648 c 128,-1,11
 203 632 203 632 180 610.5 c 128,-1,12
 157 589 157 589 140 567.5 c 128,-1,13
 123 546 123 546 122 536 c 1,14,15
 135 548 135 548 179 548 c 0,16,17
 231 548 231 548 264.5 519 c 128,-1,18
 298 490 298 490 298 439 c 0,19,20
 298 415 298 415 288 392 c 128,-1,21
 278 369 278 369 259.5 351.5 c 128,-1,22
 241 334 241 334 214.5 323 c 128,-1,23
 188 312 188 312 156 312 c 0,0,1
172 478 m 0,24,25
 115 478 115 478 115 431 c 0,26,27
 115 415 115 415 131.5 404 c 128,-1,28
 148 393 148 393 164 393 c 0,29,30
 186 393 186 393 202 407.5 c 128,-1,31
 218 422 218 422 218 443 c 0,32,33
 218 457 218 457 204.5 467.5 c 128,-1,34
 191 478 191 478 172 478 c 0,24,25
EndSplineSet
EndChar

StartChar: uni2077
Encoding: 8311 8311 226
Width: 296
Flags: W
LayerCount: 2
Back
Fore
SplineSet
297 698 m 1,0,-1
 134 320 l 1,1,-1
 38 320 l 1,2,-1
 164 608 l 1,3,-1
 27 608 l 1,4,-1
 27 698 l 1,5,-1
 297 698 l 1,0,-1
EndSplineSet
EndChar

StartChar: uni2078
Encoding: 8312 8312 227
Width: 342
Flags: W
LayerCount: 2
Back
Fore
SplineSet
164 312 m 0,0,1
 98 312 98 312 63.5 341 c 128,-1,2
 29 370 29 370 29 418 c 0,3,4
 29 475 29 475 78 524 c 1,5,6
 65 532 65 532 58 557.5 c 128,-1,7
 51 583 51 583 51 608 c 0,8,9
 51 706 51 706 173 706 c 0,10,11
 292 706 292 706 292 617 c 0,12,13
 292 593 292 593 281 566.5 c 128,-1,14
 270 540 270 540 258 528 c 1,15,16
 268 522 268 522 278 511 c 128,-1,17
 288 500 288 500 295.5 487.5 c 128,-1,18
 303 475 303 475 308 461 c 128,-1,19
 313 447 313 447 313 434 c 0,20,21
 313 410 313 410 303.5 388 c 128,-1,22
 294 366 294 366 275 349 c 128,-1,23
 256 332 256 332 228 322 c 128,-1,24
 200 312 200 312 164 312 c 0,0,1
171 643 m 0,25,26
 147 643 147 643 138 629.5 c 128,-1,27
 129 616 129 616 129 589 c 0,28,29
 129 573 129 573 135.5 563.5 c 128,-1,30
 142 554 142 554 168 552 c 0,31,32
 211 552 211 552 211 597 c 0,33,34
 211 643 211 643 171 643 c 0,25,26
174 496 m 0,35,36
 163 496 163 496 151.5 491 c 128,-1,37
 140 486 140 486 131 477 c 128,-1,38
 122 468 122 468 116 456 c 128,-1,39
 110 444 110 444 110 429 c 0,40,41
 110 406 110 406 125.5 391.5 c 128,-1,42
 141 377 141 377 167 377 c 0,43,44
 226 377 226 377 226 429 c 0,45,46
 226 459 226 459 210.5 477 c 128,-1,47
 195 495 195 495 174 496 c 0,35,36
EndSplineSet
EndChar

StartChar: uni2079
Encoding: 8313 8313 228
Width: 320
Flags: W
LayerCount: 2
Back
Fore
SplineSet
163 706 m 0,0,1
 223 706 223 706 256.5 667 c 128,-1,2
 290 628 290 628 290 553 c 0,3,4
 290 512 290 512 274 470.5 c 128,-1,5
 258 429 258 429 232.5 395.5 c 128,-1,6
 207 362 207 362 174.5 341 c 128,-1,7
 142 320 142 320 110 320 c 1,8,-1
 59 354 l 1,9,10
 75 354 75 354 100 367 c 128,-1,11
 125 380 125 380 148 400 c 128,-1,12
 171 420 171 420 188 442.5 c 128,-1,13
 205 465 205 465 206 485 c 1,14,15
 186 471 186 471 144 471 c 0,16,17
 122 471 122 471 100 478.5 c 128,-1,18
 78 486 78 486 60.5 499.5 c 128,-1,19
 43 513 43 513 32 532.5 c 128,-1,20
 21 552 21 552 21 577 c 0,21,22
 21 604 21 604 32 627.5 c 128,-1,23
 43 651 43 651 62 668.5 c 128,-1,24
 81 686 81 686 107 696 c 128,-1,25
 133 706 133 706 163 706 c 0,0,1
151 540 m 0,26,27
 209 540 209 540 209 585 c 0,28,29
 209 628 209 628 161 628 c 0,30,31
 138 628 138 628 123.5 612.5 c 128,-1,32
 109 597 109 597 109 579 c 256,33,34
 109 561 109 561 120.5 550.5 c 128,-1,35
 132 540 132 540 151 540 c 0,26,27
EndSplineSet
EndChar

StartChar: Euro
Encoding: 8364 8364 239
Width: 704
Flags: W
LayerCount: 2
Back
Fore
SplineSet
469 17 m 0,0,1
 367 17 367 17 289.5 68 c 128,-1,2
 212 119 212 119 175 211 c 1,3,-1
 32 211 l 1,4,-1
 60 292 l 1,5,-1
 154 292 l 1,6,7
 152 306 152 306 151.5 325 c 128,-1,8
 151 344 151 344 151 361 c 1,9,-1
 59 361 l 1,10,-1
 88 443 l 1,11,-1
 161 443 l 1,12,13
 175 499 175 499 203.5 543.5 c 128,-1,14
 232 588 232 588 272 619 c 128,-1,15
 312 650 312 650 362 666.5 c 128,-1,16
 412 683 412 683 469 683 c 0,17,18
 517 683 517 683 564 674 c 128,-1,19
 611 665 611 665 649 647 c 1,20,-1
 635 539 l 1,21,22
 595 556 595 556 556 567 c 128,-1,23
 517 578 517 578 469 578 c 0,24,25
 397 578 397 578 353 542 c 128,-1,26
 309 506 309 506 290 443 c 1,27,-1
 543 443 l 1,28,-1
 513 361 l 1,29,-1
 277 361 l 1,30,31
 277 354 277 354 277 344 c 128,-1,32
 277 334 277 334 277.5 324.5 c 128,-1,33
 278 315 278 315 279 306 c 128,-1,34
 280 297 280 297 282 292 c 1,35,-1
 523 292 l 1,36,-1
 495 211 l 1,37,-1
 308 211 l 1,38,39
 359 122 359 122 469 122 c 0,40,41
 517 122 517 122 556 133 c 128,-1,42
 595 144 595 144 635 161 c 1,43,-1
 649 53 l 1,44,45
 611 35 611 35 564 26 c 128,-1,46
 517 17 517 17 469 17 c 0,0,1
EndSplineSet
EndChar

StartChar: trademark
Encoding: 8482 8482 240
Width: 735
Flags: W
LayerCount: 2
Back
Fore
SplineSet
497 431 m 1,0,-1
 487 431 l 1,1,-1
 407 567 l 1,2,-1
 378 337 l 1,3,-1
 305 337 l 1,4,-1
 354 700 l 1,5,-1
 397 700 l 1,6,-1
 493 542 l 1,7,-1
 587 700 l 1,8,-1
 631 700 l 1,9,-1
 680 337 l 1,10,-1
 606 337 l 1,11,-1
 578 566 l 1,12,-1
 497 431 l 1,0,-1
305 700 m 1,13,-1
 297 631 l 1,14,-1
 201 631 l 1,15,-1
 201 337 l 1,16,-1
 130 337 l 1,17,-1
 130 631 l 1,18,-1
 31 631 l 1,19,-1
 31 700 l 1,20,-1
 305 700 l 1,13,-1
EndSplineSet
EndChar

StartChar: B.sc
Encoding: 65537 -1 241
Width: 559
Flags: W
LayerCount: 2
Back
Fore
SplineSet
309 0 m 2,0,-1
 71 0 l 1,1,-1
 71 574 l 1,2,-1
 238 574 l 2,3,4
 293 574 293 574 336.5 568.5 c 128,-1,5
 380 563 380 563 410 546.5 c 128,-1,6
 440 530 440 530 455.5 501 c 128,-1,7
 471 472 471 472 471 425 c 0,8,9
 471 341 471 341 420 307 c 1,10,11
 475 288 475 288 501 256.5 c 128,-1,12
 527 225 527 225 527 168 c 0,13,14
 527 120 527 120 507.5 88 c 128,-1,15
 488 56 488 56 457 36.5 c 128,-1,16
 426 17 426 17 387 8.5 c 128,-1,17
 348 0 348 0 309 0 c 2,0,-1
285 480 m 2,18,-1
 185 480 l 1,19,-1
 185 346 l 1,20,-1
 294 346 l 2,21,22
 322 346 322 346 344.5 361 c 128,-1,23
 367 376 367 376 367 407 c 0,24,25
 367 480 367 480 285 480 c 2,18,-1
299 260 m 2,26,-1
 185 260 l 1,27,-1
 185 95 l 1,28,-1
 297 95 l 2,29,30
 409 95 409 95 409 178 c 0,31,32
 409 260 409 260 299 260 c 2,26,-1
EndSplineSet
EndChar

StartChar: C.sc
Encoding: 65538 -1 242
Width: 541
Flags: W
LayerCount: 2
Back
Fore
SplineSet
335 -12 m 0,0,1
 269 -12 269 -12 214 9.5 c 128,-1,2
 159 31 159 31 119 70.5 c 128,-1,3
 79 110 79 110 57 165 c 128,-1,4
 35 220 35 220 35 288 c 0,5,6
 35 354 35 354 57.5 409 c 128,-1,7
 80 464 80 464 119.5 503 c 128,-1,8
 159 542 159 542 214 564 c 128,-1,9
 269 586 269 586 335 586 c 0,10,11
 439 586 439 586 508 552 c 1,12,-1
 496 445 l 1,13,14
 412 477 412 477 335 477 c 0,15,16
 250 477 250 477 204.5 426 c 128,-1,17
 159 375 159 375 159 288 c 0,18,19
 159 200 159 200 204 149 c 128,-1,20
 249 98 249 98 334 98 c 0,21,22
 412 98 412 98 496 130 c 1,23,-1
 508 22 l 1,24,25
 439 -12 439 -12 335 -12 c 0,0,1
EndSplineSet
EndChar

StartChar: D.sc
Encoding: 65539 -1 243
Width: 636
Flags: W
LayerCount: 2
Back
Fore
SplineSet
300 0 m 2,0,-1
 71 0 l 1,1,-1
 71 574 l 1,2,-1
 300 574 l 2,3,4
 366 574 366 574 420.5 554 c 128,-1,5
 475 534 475 534 515 497 c 128,-1,6
 555 460 555 460 577 407 c 128,-1,7
 599 354 599 354 599 288 c 256,8,9
 599 222 599 222 577 168.5 c 128,-1,10
 555 115 555 115 515.5 77.5 c 128,-1,11
 476 40 476 40 421 20 c 128,-1,12
 366 0 366 0 300 0 c 2,0,-1
300 465 m 2,13,-1
 185 465 l 1,14,-1
 185 109 l 1,15,-1
 300 109 l 2,16,17
 387 109 387 109 431 156 c 128,-1,18
 475 203 475 203 475 288 c 256,19,20
 475 373 475 373 431 419 c 128,-1,21
 387 465 387 465 300 465 c 2,13,-1
EndSplineSet
EndChar

StartChar: E.sc
Encoding: 65540 -1 244
Width: 506
Flags: W
LayerCount: 2
Back
Fore
SplineSet
471 0 m 1,0,-1
 71 0 l 1,1,-1
 71 574 l 1,2,-1
 463 574 l 1,3,-1
 463 464 l 1,4,-1
 188 464 l 1,5,-1
 188 354 l 1,6,-1
 401 354 l 1,7,-1
 401 245 l 1,8,-1
 188 245 l 1,9,-1
 188 110 l 1,10,-1
 471 110 l 1,11,-1
 471 0 l 1,0,-1
EndSplineSet
EndChar

StartChar: F.sc
Encoding: 65541 -1 245
Width: 467
Flags: W
LayerCount: 2
Back
Fore
SplineSet
447 464 m 1,0,-1
 185 464 l 1,1,-1
 185 354 l 1,2,-1
 387 354 l 1,3,-1
 387 245 l 1,4,-1
 185 245 l 1,5,-1
 185 0 l 1,6,-1
 71 0 l 1,7,-1
 71 574 l 1,8,-1
 447 574 l 1,9,-1
 447 464 l 1,0,-1
EndSplineSet
EndChar

StartChar: G.sc
Encoding: 65542 -1 246
Width: 587
Flags: W
LayerCount: 2
Back
Fore
SplineSet
333 -12 m 0,0,1
 268 -12 268 -12 213.5 10 c 128,-1,2
 159 32 159 32 119 71.5 c 128,-1,3
 79 111 79 111 57 166 c 128,-1,4
 35 221 35 221 35 288 c 256,5,6
 35 355 35 355 57.5 410 c 128,-1,7
 80 465 80 465 120 504 c 128,-1,8
 160 543 160 543 216 564.5 c 128,-1,9
 272 586 272 586 338 586 c 0,10,11
 452 586 452 586 521 552 c 1,12,-1
 509 443 l 1,13,14
 426 477 426 477 341 477 c 0,15,16
 250 477 250 477 204.5 426 c 128,-1,17
 159 375 159 375 159 290 c 0,18,19
 159 202 159 202 206.5 150 c 128,-1,20
 254 98 254 98 345 98 c 0,21,22
 361 98 361 98 381 99.5 c 128,-1,23
 401 101 401 101 427 105 c 1,24,-1
 427 196 l 1,25,-1
 363 196 l 1,26,-1
 363 288 l 1,27,-1
 541 288 l 1,28,-1
 541 32 l 1,29,30
 525 23 525 23 500 15 c 128,-1,31
 475 7 475 7 446 1 c 128,-1,32
 417 -5 417 -5 387.5 -8.5 c 128,-1,33
 358 -12 358 -12 333 -12 c 0,0,1
EndSplineSet
EndChar

StartChar: H.sc
Encoding: 65543 -1 247
Width: 652
Flags: W
LayerCount: 2
Back
Fore
SplineSet
581 0 m 1,0,-1
 467 0 l 1,1,-1
 467 245 l 1,2,-1
 185 245 l 1,3,-1
 185 0 l 1,4,-1
 71 0 l 1,5,-1
 71 574 l 1,6,-1
 185 574 l 1,7,-1
 185 354 l 1,8,-1
 467 354 l 1,9,-1
 467 574 l 1,10,-1
 581 574 l 1,11,-1
 581 0 l 1,0,-1
EndSplineSet
EndChar

StartChar: I.sc
Encoding: 65544 -1 248
Width: 256
Flags: W
LayerCount: 2
Back
Fore
SplineSet
185 0 m 1,0,-1
 71 0 l 1,1,-1
 71 574 l 1,2,-1
 185 574 l 1,3,-1
 185 0 l 1,0,-1
EndSplineSet
EndChar

StartChar: J.sc
Encoding: 65545 -1 249
Width: 256
Flags: W
LayerCount: 2
Back
Fore
SplineSet
45 -141 m 2,0,-1
 12 -141 l 1,1,-1
 3 -53 l 1,2,-1
 28 -53 l 2,3,4
 52 -53 52 -53 61.5 -39.5 c 128,-1,5
 71 -26 71 -26 71 4 c 2,6,-1
 71 574 l 1,7,-1
 185 574 l 1,8,-1
 185 -18 l 2,9,10
 185 -79 185 -79 148 -110 c 128,-1,11
 111 -141 111 -141 45 -141 c 2,0,-1
EndSplineSet
EndChar

StartChar: K.sc
Encoding: 65546 -1 250
Width: 555
Flags: W
LayerCount: 2
Back
Fore
SplineSet
546 0 m 1,0,-1
 418 0 l 1,1,-1
 206 304 l 1,2,-1
 418 574 l 1,3,-1
 546 574 l 1,4,-1
 334 304 l 1,5,-1
 546 0 l 1,0,-1
185 0 m 1,6,-1
 71 0 l 1,7,-1
 71 574 l 1,8,-1
 185 574 l 1,9,-1
 185 0 l 1,6,-1
EndSplineSet
EndChar

StartChar: A.sc
Encoding: 65547 -1 251
Width: 550
Flags: W
LayerCount: 2
Back
Fore
SplineSet
545 0 m 1,0,-1
 428 0 l 1,1,-1
 375 134 l 1,2,-1
 175 134 l 1,3,-1
 124 0 l 1,4,-1
 5 0 l 1,5,-1
 222 574 l 1,6,-1
 329 574 l 1,7,-1
 545 0 l 1,0,-1
336 244 m 1,8,-1
 275 393 l 1,9,-1
 214 244 l 1,10,-1
 336 244 l 1,8,-1
EndSplineSet
EndChar

StartChar: M.sc
Encoding: 65548 -1 252
Width: 737
Flags: W
LayerCount: 2
Back
Fore
SplineSet
694 0 m 1,0,-1
 575 0 l 1,1,-1
 523 371 l 1,2,-1
 368 116 l 1,3,-1
 213 371 l 1,4,-1
 161 0 l 1,5,-1
 43 0 l 1,6,-1
 127 574 l 1,7,-1
 220 574 l 1,8,-1
 369 319 l 1,9,-1
 516 574 l 1,10,-1
 609 574 l 1,11,-1
 694 0 l 1,0,-1
EndSplineSet
EndChar

StartChar: N.sc
Encoding: 65549 -1 253
Width: 625
Flags: W
LayerCount: 2
Back
Fore
SplineSet
554 0 m 1,0,-1
 460 0 l 1,1,-1
 185 378 l 1,2,-1
 185 0 l 1,3,-1
 71 0 l 1,4,-1
 71 574 l 1,5,-1
 182 574 l 1,6,-1
 440 219 l 1,7,-1
 440 574 l 1,8,-1
 554 574 l 1,9,-1
 554 0 l 1,0,-1
EndSplineSet
EndChar

StartChar: O.sc
Encoding: 65550 -1 254
Width: 670
Flags: W
LayerCount: 2
Back
Fore
SplineSet
35 288 m 0,0,1
 35 354 35 354 57.5 409 c 128,-1,2
 80 464 80 464 119.5 503 c 128,-1,3
 159 542 159 542 214 564 c 128,-1,4
 269 586 269 586 335 586 c 0,5,6
 400 586 400 586 455 564 c 128,-1,7
 510 542 510 542 550 503 c 128,-1,8
 590 464 590 464 612.5 409 c 128,-1,9
 635 354 635 354 635 288 c 0,10,11
 635 220 635 220 613 165 c 128,-1,12
 591 110 591 110 551 70.5 c 128,-1,13
 511 31 511 31 456 9.5 c 128,-1,14
 401 -12 401 -12 335 -12 c 256,15,16
 269 -12 269 -12 214 9.5 c 128,-1,17
 159 31 159 31 119 70.5 c 128,-1,18
 79 110 79 110 57 165 c 128,-1,19
 35 220 35 220 35 288 c 0,0,1
510 288 m 0,20,21
 510 375 510 375 465 426 c 128,-1,22
 420 477 420 477 335 477 c 256,23,24
 250 477 250 477 204.5 426 c 128,-1,25
 159 375 159 375 159 288 c 256,26,27
 159 201 159 201 204.5 149.5 c 128,-1,28
 250 98 250 98 335 98 c 256,29,30
 420 98 420 98 465 149 c 128,-1,31
 510 200 510 200 510 288 c 0,20,21
EndSplineSet
EndChar

StartChar: AE.sc
Encoding: 65551 -1 255
Width: 762
Flags: W
LayerCount: 2
Back
Fore
SplineSet
727 0 m 1,0,-1
 348 0 l 1,1,-1
 348 136 l 1,2,-1
 180 136 l 1,3,-1
 110 0 l 1,4,-1
 -9 0 l 1,5,-1
 288 574 l 1,6,-1
 719 574 l 1,7,-1
 719 464 l 1,8,-1
 463 464 l 1,9,-1
 463 354 l 1,10,-1
 660 354 l 1,11,-1
 660 245 l 1,12,-1
 463 245 l 1,13,-1
 463 110 l 1,14,-1
 727 110 l 1,15,-1
 727 0 l 1,0,-1
348 245 m 1,16,-1
 348 462 l 1,17,-1
 233 245 l 1,18,-1
 348 245 l 1,16,-1
EndSplineSet
EndChar

StartChar: P.sc
Encoding: 65552 -1 256
Width: 531
Flags: W
LayerCount: 2
Back
Fore
SplineSet
292 185 m 2,0,-1
 185 185 l 1,1,-1
 185 0 l 1,2,-1
 71 0 l 1,3,-1
 71 574 l 1,4,-1
 241 574 l 2,5,6
 307 574 307 574 356.5 567.5 c 128,-1,7
 406 561 406 561 439.5 541.5 c 128,-1,8
 473 522 473 522 490 486 c 128,-1,9
 507 450 507 450 507 392 c 0,10,11
 507 330 507 330 486.5 290 c 128,-1,12
 466 250 466 250 434.5 227 c 128,-1,13
 403 204 403 204 365 194.5 c 128,-1,14
 327 185 327 185 292 185 c 2,0,-1
276 482 m 2,15,-1
 185 482 l 1,16,-1
 185 291 l 1,17,-1
 277 291 l 2,18,19
 340 291 340 291 366 312.5 c 128,-1,20
 392 334 392 334 392 391 c 0,21,22
 392 440 392 440 367.5 461 c 128,-1,23
 343 482 343 482 276 482 c 2,15,-1
EndSplineSet
EndChar

StartChar: Q.sc
Encoding: 65553 -1 257
Width: 671
Flags: W
LayerCount: 2
Back
Fore
SplineSet
637 68 m 1,0,-1
 570 -11 l 1,1,-1
 510 37 l 1,2,3
 439 -12 439 -12 335 -12 c 0,4,5
 269 -12 269 -12 214 9.5 c 128,-1,6
 159 31 159 31 119 70.5 c 128,-1,7
 79 110 79 110 57 165 c 128,-1,8
 35 220 35 220 35 288 c 0,9,10
 35 354 35 354 57.5 409 c 128,-1,11
 80 464 80 464 119.5 503 c 128,-1,12
 159 542 159 542 214 564 c 128,-1,13
 269 586 269 586 335 586 c 0,14,15
 400 586 400 586 455 564 c 128,-1,16
 510 542 510 542 550 503 c 128,-1,17
 590 464 590 464 612.5 409 c 128,-1,18
 635 354 635 354 635 288 c 0,19,20
 635 184 635 184 582 111 c 1,21,-1
 637 68 l 1,0,-1
159 288 m 0,22,23
 159 200 159 200 204.5 149 c 128,-1,24
 250 98 250 98 335 98 c 0,25,26
 380 98 380 98 418 113 c 1,27,-1
 346 168 l 1,28,-1
 413 247 l 1,29,-1
 488 191 l 1,30,31
 510 228 510 228 510 288 c 0,32,33
 510 375 510 375 465 426 c 128,-1,34
 420 477 420 477 335 477 c 256,35,36
 250 477 250 477 204.5 426 c 128,-1,37
 159 375 159 375 159 288 c 0,22,23
EndSplineSet
EndChar

StartChar: R.sc
Encoding: 65554 -1 258
Width: 559
Flags: W
LayerCount: 2
Back
Fore
SplineSet
540 0 m 1,0,-1
 422 0 l 1,1,-1
 297 211 l 1,2,-1
 185 211 l 1,3,-1
 185 0 l 1,4,-1
 71 0 l 1,5,-1
 71 574 l 1,6,-1
 297 574 l 2,7,8
 506 574 506 574 506 410 c 0,9,10
 506 346 506 346 480 308.5 c 128,-1,11
 454 271 454 271 403 240 c 1,12,-1
 540 0 l 1,0,-1
269 480 m 2,13,-1
 185 480 l 1,14,-1
 185 315 l 1,15,-1
 262 315 l 2,16,17
 298 315 298 315 322.5 321 c 128,-1,18
 347 327 347 327 361 338 c 128,-1,19
 375 349 375 349 381 364.5 c 128,-1,20
 387 380 387 380 387 400 c 0,21,22
 387 441 387 441 362.5 460.5 c 128,-1,23
 338 480 338 480 269 480 c 2,13,-1
EndSplineSet
EndChar

StartChar: S.sc
Encoding: 65555 -1 259
Width: 517
Flags: W
LayerCount: 2
Back
Fore
SplineSet
250 -12 m 0,0,1
 114 -12 114 -12 47 31 c 1,2,-1
 60 159 l 1,3,4
 124 98 124 98 253 98 c 0,5,6
 358 98 358 98 358 153 c 1,7,8
 354 184 354 184 331.5 202 c 128,-1,9
 309 220 309 220 260 237 c 2,10,-1
 164 269 l 1,11,-1
 118 290 l 2,12,13
 80 310 80 310 61.5 337 c 128,-1,14
 43 364 43 364 39 412 c 0,15,16
 39 445 39 445 52 476.5 c 128,-1,17
 65 508 65 508 92 532.5 c 128,-1,18
 119 557 119 557 160.5 571.5 c 128,-1,19
 202 586 202 586 259 586 c 0,20,21
 287 586 287 586 316.5 581.5 c 128,-1,22
 346 577 346 577 372 570.5 c 128,-1,23
 398 564 398 564 419 555.5 c 128,-1,24
 440 547 440 547 453 540 c 1,25,-1
 442 426 l 1,26,27
 345 478 345 478 263 478 c 0,28,29
 154 478 154 478 154 424 c 0,30,31
 154 404 154 404 166 392 c 128,-1,32
 178 380 178 380 200.5 370 c 128,-1,33
 223 360 223 360 254.5 351 c 128,-1,34
 286 342 286 342 324 330 c 0,35,36
 353 321 353 321 381.5 307.5 c 128,-1,37
 410 294 410 294 433 274 c 128,-1,38
 456 254 456 254 470.5 226 c 128,-1,39
 485 198 485 198 485 158 c 0,40,41
 485 133 485 133 477 103 c 128,-1,42
 469 73 469 73 444 47.5 c 128,-1,43
 419 22 419 22 372.5 5 c 128,-1,44
 326 -12 326 -12 250 -12 c 0,0,1
EndSplineSet
EndChar

StartChar: T.sc
Encoding: 65556 -1 260
Width: 492
Flags: W
LayerCount: 2
Back
Fore
SplineSet
475 464 m 1,0,-1
 304 464 l 1,1,-1
 304 0 l 1,2,-1
 189 0 l 1,3,-1
 189 464 l 1,4,-1
 17 464 l 1,5,-1
 17 574 l 1,6,-1
 475 574 l 1,7,-1
 475 464 l 1,0,-1
EndSplineSet
EndChar

StartChar: U.sc
Encoding: 65557 -1 261
Width: 635
Flags: W
LayerCount: 2
Back
Fore
SplineSet
65 247 m 2,0,-1
 65 574 l 1,1,-1
 179 574 l 1,2,-1
 179 282 l 2,3,4
 179 237 179 237 185.5 202.5 c 128,-1,5
 192 168 192 168 208 145 c 128,-1,6
 224 122 224 122 250.5 110 c 128,-1,7
 277 98 277 98 318 98 c 0,8,9
 358 98 358 98 384.5 110 c 128,-1,10
 411 122 411 122 427 145 c 128,-1,11
 443 168 443 168 449.5 202.5 c 128,-1,12
 456 237 456 237 456 282 c 2,13,-1
 456 574 l 1,14,-1
 570 574 l 1,15,-1
 570 247 l 2,16,17
 570 127 570 127 506.5 57.5 c 128,-1,18
 443 -12 443 -12 318 -12 c 256,19,20
 193 -12 193 -12 129 57.5 c 128,-1,21
 65 127 65 127 65 247 c 2,0,-1
EndSplineSet
EndChar

StartChar: V.sc
Encoding: 65558 -1 262
Width: 578
Flags: W
LayerCount: 2
Back
Fore
SplineSet
573 574 m 1,0,-1
 360 0 l 1,1,-1
 221 0 l 1,2,-1
 2 574 l 1,3,-1
 121 574 l 1,4,-1
 290 152 l 1,5,-1
 456 574 l 1,6,-1
 573 574 l 1,0,-1
EndSplineSet
EndChar

StartChar: W.sc
Encoding: 65559 -1 263
Width: 847
Flags: W
LayerCount: 2
Back
Fore
SplineSet
837 574 m 1,0,-1
 659 0 l 1,1,-1
 560 0 l 1,2,-1
 425 360 l 1,3,-1
 291 0 l 1,4,-1
 185 0 l 1,5,-1
 13 574 l 1,6,-1
 131 574 l 1,7,-1
 252 187 l 1,8,-1
 386 577 l 1,9,-1
 463 577 l 1,10,-1
 604 200 l 1,11,-1
 719 574 l 1,12,-1
 837 574 l 1,0,-1
EndSplineSet
EndChar

StartChar: X.sc
Encoding: 65560 -1 264
Width: 561
Flags: W
LayerCount: 2
Back
Fore
SplineSet
557 0 m 1,0,-1
 424 0 l 1,1,-1
 279 204 l 1,2,-1
 136 0 l 1,3,-1
 5 0 l 1,4,-1
 221 287 l 1,5,-1
 15 574 l 1,6,-1
 147 574 l 1,7,-1
 286 378 l 1,8,-1
 412 574 l 1,9,-1
 543 574 l 1,10,-1
 345 298 l 1,11,-1
 557 0 l 1,0,-1
EndSplineSet
EndChar

StartChar: Y.sc
Encoding: 65561 -1 265
Width: 523
Flags: W
LayerCount: 2
Back
Fore
SplineSet
530 574 m 1,0,-1
 318 251 l 1,1,-1
 318 0 l 1,2,-1
 205 0 l 1,3,-1
 205 251 l 1,4,-1
 -6 574 l 1,5,-1
 115 574 l 1,6,-1
 262 352 l 1,7,-1
 409 574 l 1,8,-1
 530 574 l 1,0,-1
EndSplineSet
EndChar

StartChar: Z.sc
Encoding: 65562 -1 266
Width: 488
Flags: W
LayerCount: 2
Back
Fore
SplineSet
477 574 m 1,0,-1
 201 110 l 1,1,-1
 438 110 l 1,2,-1
 438 0 l 1,3,-1
 13 0 l 1,4,-1
 289 464 l 1,5,-1
 52 464 l 1,6,-1
 52 574 l 1,7,-1
 477 574 l 1,0,-1
EndSplineSet
EndChar

StartChar: OE.sc
Encoding: 65563 -1 267
Width: 935
Flags: W
LayerCount: 2
Back
Fore
SplineSet
900 0 m 1,0,-1
 519 0 l 1,1,-1
 519 39 l 1,2,3
 436 -12 436 -12 336 -12 c 0,4,5
 270 -12 270 -12 215 9.5 c 128,-1,6
 160 31 160 31 120 70.5 c 128,-1,7
 80 110 80 110 57.5 165.5 c 128,-1,8
 35 221 35 221 35 288 c 256,9,10
 35 355 35 355 57.5 410 c 128,-1,11
 80 465 80 465 120 504 c 128,-1,12
 160 543 160 543 215.5 564.5 c 128,-1,13
 271 586 271 586 336 586 c 0,14,15
 436 586 436 586 519 536 c 1,16,-1
 519 574 l 1,17,-1
 892 574 l 1,18,-1
 892 464 l 1,19,-1
 636 464 l 1,20,-1
 636 354 l 1,21,-1
 833 354 l 1,22,-1
 833 245 l 1,23,-1
 636 245 l 1,24,-1
 636 110 l 1,25,-1
 900 110 l 1,26,-1
 900 0 l 1,0,-1
159 288 m 0,27,28
 159 200 159 200 204 149 c 128,-1,29
 249 98 249 98 336 98 c 0,30,31
 421 98 421 98 466.5 149.5 c 128,-1,32
 512 201 512 201 512 288 c 0,33,34
 512 373 512 373 466.5 425 c 128,-1,35
 421 477 421 477 336 477 c 256,36,37
 251 477 251 477 205 425 c 128,-1,38
 159 373 159 373 159 288 c 0,27,28
EndSplineSet
EndChar

StartChar: L.sc
Encoding: 65564 -1 268
Width: 445
Flags: W
LayerCount: 2
Back
Fore
SplineSet
433 0 m 1,0,-1
 71 0 l 1,1,-1
 71 574 l 1,2,-1
 185 574 l 1,3,-1
 185 110 l 1,4,-1
 433 110 l 1,5,-1
 433 0 l 1,0,-1
EndSplineSet
EndChar
